<svg xmlns="http://www.w3.org/2000/svg" viewBox="0 0 98.97 42.48"><defs><style>.cls-1{fill:#575656;}.cls-2{fill-rule:evenodd;}</style></defs><g id="Capa_2" data-name="Capa 2"><g id="Capa_1-2" data-name="Capa 1"><path class="cls-1" d="M91.58,29.2l-1.11-1.11-1.11-10-1.8,10.45-3.67-.64-1.11-1.1,2.7-8.15.25-1.44,1.6-9.25,2.83-.43,1.11,1.11,2.24,11.15L95.31,9.3l2.55-.48L99,9.93l-1.6,9.26-.24,1.43-1.59,9.24v0ZM68.74,16.83l-.44,5.64,4,.31.44-5.64.12-1.45.44-5.64-4-.31-.44,5.64Zm7.14,7.86L73.3,26.61l-6.65-.52-2.2-2.29L65,16.54l.12-1.45.56-7.25,2.58-1.93,6.61.51,2.25,2.31L76.56,16l-.11,1.45Zm-28-11.35,3.88,0,0-4.52-3.87,0ZM44.1,15.91l0-1.46Zm11.95,9.52-4,0-1.11-1.11-2-7.17H47.84l-.08,8.24L44,25.29l-1.12-1.1L44.22,5.05l9,.1,2.36,2.16-.07,7.43L52.9,17.1Zm-26.32-7-1.66-7.87-.76,8Zm1.81,7.36-.68-1.12-.36-1.42-3.88.13-.37,2.73-3.8.22-1.11-1.11L25.07,4.68l5.24-.3,5.46,21.15Zm-25.35-1,3.8-.58-.68-4.45-3.8.58Zm-4.55-5L1.42,18.3,0,9,8.85,7.29,11.49,9l1,6.54-1.13,1.77L13,18.88l.92,6.34-2,2.45L3.06,29,2,27.91Zm3.3-3.14L8.74,16l-.68-4.46-3.8.58Z"/><path d="M70.58,36.33c0,.36-.09.74-.13,1.15s-.07.84-.08,1.31l1.38-.28c-.2-.42-.4-.82-.6-1.18l-.57-1m1.83,3.88c-.08-.2-.15-.39-.23-.58s-.15-.37-.23-.56l-1.56.32c0,.23,0,.46,0,.7s0,.47,0,.69l-.54.11c-.1,0-.16,0-.18-.14s0-.29,0-.43c0-.47,0-.92,0-1.35s0-.84.08-1.23.07-.74.12-1.06.1-.62.15-.87l.7-.14a.18.18,0,0,1,.13,0,.22.22,0,0,1,.09.1c.15.21.31.48.5.78s.37.66.57,1,.4.79.59,1.24.39.9.56,1.38l-.59.12A.16.16,0,0,1,72.41,40.21Zm-6.23-4.09c-.11,0-.15,0-.12-.14a.58.58,0,0,1,0-.14c0-.07,0-.14.08-.23s.07-.17.11-.26a2,2,0,0,1,.11-.26L67,35c.08,0,.13,0,.14.08a.25.25,0,0,1-.06.19l-.5.79Zm.87,5.25c-.11,0-.17,0-.19-.14l-.74-4.72.57-.09a.15.15,0,0,1,.2.13l.74,4.73Zm-5.14-2,.78-.09a1.21,1.21,0,0,0,.34-.08.65.65,0,0,0,.26-.17.61.61,0,0,0,.15-.3,1.37,1.37,0,0,0,0-.46,1.51,1.51,0,0,0-.1-.45,1,1,0,0,0-.2-.27.57.57,0,0,0-.3-.11h-.4a3.87,3.87,0,0,0-.43.07,1.61,1.61,0,0,0-.31.07ZM61.62,42a.15.15,0,0,1-.18-.15l-.52-4.67a7,7,0,0,1,.69-.17,6.68,6.68,0,0,1,.78-.13,1.76,1.76,0,0,1,1.28.24,1.54,1.54,0,0,1,.51,1.08,1.42,1.42,0,0,1-.15.89,1.33,1.33,0,0,1-.6.55,4.48,4.48,0,0,1,.4.44c.14.18.27.35.39.54s.24.36.34.54.19.34.25.48l-.62.07a.18.18,0,0,1-.23-.13l-.22-.39c-.09-.15-.19-.29-.3-.45s-.22-.3-.34-.46a3.57,3.57,0,0,0-.37-.4L62,40l.22,2Zm-2.89-4.71c.11,0,.16.05.17.16l0,.45-2,.1L57,39.52l1.7-.08c.1,0,.16,0,.17.15l0,.46L57,40.14l.08,1.58,2-.1a.16.16,0,0,1,.12,0s0,.06.06.12l0,.45-2.71.13a.16.16,0,0,1-.18-.16l-.23-4.78Zm-5.75.1a3.08,3.08,0,0,1,.52,0,2.37,2.37,0,0,1,.42.1.2.2,0,0,1,.11.09.24.24,0,0,1,0,.15v.34l-.46-.05a4.61,4.61,0,0,0-.53,0,1.45,1.45,0,0,0-.54.09.7.7,0,0,0-.35.31A1.52,1.52,0,0,0,52,39a6,6,0,0,0,0,.91,5.22,5.22,0,0,0,.08,1,1.5,1.5,0,0,0,.22.58.7.7,0,0,0,.35.29,1.31,1.31,0,0,0,.51.07,2.68,2.68,0,0,0,.52,0l.34,0a.14.14,0,0,1,.17.16v.35a2.49,2.49,0,0,1-.5.15,3.23,3.23,0,0,1-.66.06,2,2,0,0,1-.81-.13,1.22,1.22,0,0,1-.56-.45,2.11,2.11,0,0,1-.32-.79A5.5,5.5,0,0,1,51.19,40a5.05,5.05,0,0,1,.09-1.17,1.94,1.94,0,0,1,.31-.8,1.34,1.34,0,0,1,.55-.45A2.3,2.3,0,0,1,53,37.39Zm-4,.08a.14.14,0,0,1,.16.17v.45l-2-.07L47,39.54l1.69.06a.14.14,0,0,1,.16.16v.46L47,40.16,47,41.74l2,.06a.17.17,0,0,1,.12.05.16.16,0,0,1,0,.12v.45l-2.71-.08c-.11,0-.17-.06-.16-.17l.15-4.79Zm-4.66-.23c.13,0,.18.08.15.19l-.12.46q-.12.45-.3,1c-.13.37-.26.73-.41,1.11s-.29.74-.45,1.1-.32.68-.47,1L42,42a.26.26,0,0,1-.14,0,.23.23,0,0,1-.06-.12c-.11-.34-.2-.71-.3-1.11s-.17-.81-.25-1.24-.14-.85-.19-1.29S41,37.34,41,36.93l.64.06c.1,0,.15.07.16.18s0,.51,0,.82.06.63.11,1,.1.72.17,1.11.17.79.27,1.19c.18-.39.35-.77.49-1.14s.27-.74.38-1.09.21-.69.3-1,.15-.6.21-.86Zm-7.83,1.54.78.1a1.38,1.38,0,0,0,.35,0,.67.67,0,0,0,.29-.1.64.64,0,0,0,.22-.26,1.43,1.43,0,0,0,.13-.45,1.76,1.76,0,0,0,0-.46.59.59,0,0,0-.13-.3.55.55,0,0,0-.26-.18,1.39,1.39,0,0,0-.39-.1l-.43,0h-.32Zm-.9,2.46q-.18,0-.15-.18l.62-4.66h.71c.27,0,.53,0,.8.06a1.77,1.77,0,0,1,1.18.54A1.5,1.5,0,0,1,39,38.17a1.45,1.45,0,0,1-.36.83,1.35,1.35,0,0,1-.71.39,5.12,5.12,0,0,1,.28.53c.09.2.17.4.25.61s.14.41.2.61a5.37,5.37,0,0,1,.12.53l-.61-.08a.23.23,0,0,1-.14-.06A.23.23,0,0,1,38,41.4c0-.12-.07-.27-.12-.43s-.11-.33-.18-.51a3.85,3.85,0,0,0-.22-.52,4.48,4.48,0,0,0-.26-.49l-.75-.1-.27,2ZM34,36a.14.14,0,0,1,.12.19l-.08.45-2-.41-.3,1.5,1.66.33a.14.14,0,0,1,.13.19l-.09.45-1.82-.36-.31,1.54,1.92.39a.17.17,0,0,1,.11.06.15.15,0,0,1,0,.13l-.09.44-2.66-.53a.14.14,0,0,1-.13-.19l.94-4.69Zm-5.62-1.27a3.11,3.11,0,0,1,.49.16,1.45,1.45,0,0,1,.38.2.24.24,0,0,1,.09.12.25.25,0,0,1,0,.15l-.08.33-.44-.17-.5-.15a1.54,1.54,0,0,0-.55,0,.76.76,0,0,0-.42.21A1.36,1.36,0,0,0,27,36a5.43,5.43,0,0,0-.28.86,5.52,5.52,0,0,0-.16,1,1.47,1.47,0,0,0,.06.62.68.68,0,0,0,.27.37,1.44,1.44,0,0,0,.47.19,4.64,4.64,0,0,0,.52.1,1.83,1.83,0,0,1,.33,0c.12,0,.16.1.13.21l-.08.34a4.1,4.1,0,0,1-.52,0,3,3,0,0,1-.66-.11,2,2,0,0,1-.75-.33,1.33,1.33,0,0,1-.42-.57,2.21,2.21,0,0,1-.12-.85A5.5,5.5,0,0,1,26,36.71a6.2,6.2,0,0,1,.38-1.11,2.12,2.12,0,0,1,.5-.69,1.18,1.18,0,0,1,.65-.3A2.14,2.14,0,0,1,28.33,34.68Z"/><path d="M91.58,28.09,89.36,17,87.56,27.4l-3.67-.63,1.59-9.26.25-1.44,1.6-9.25,3.94.68,2.24,11.16,1.8-10.47L99,8.82l-1.6,9.26-.24,1.44-1.59,9.23v0l-3-.52ZM68.74,15.72l-.44,5.64,4,.31L72.72,16l.12-1.45.44-5.64-4-.31-.44,5.64Zm7.14,7.86L73.3,25.5,66.65,25l-2.2-2.29L65,15.43,65.13,14l.56-7.25L68.27,4.8l6.61.52,2.25,2.31-.57,7.24-.11,1.45Zm-28-11.34,3.88,0,0-4.52-3.87,0ZM44.1,14.8l0-1.45Zm11.95,9.52-4,0L49,16H47.84l-.08,8.24-3.76,0L44.21,4l9,.09L55.55,6.2l-.07,7.43L52.9,16ZM29.88,18.38l-1.6-9-1,9.12ZM32,24.64l-1.29-3-3.91.23L26.25,25l-3.8.22L25.32,4.75l5.25-.31,5.2,20Zm-25.78-1,3.8-.58-.68-4.45-3.8.58Zm-4.55-5-.22-1.44L0,7.9,8.82,6.55l2.7,1.75.94,6.15L11.3,16.4,13,18l.95,6.17-2,2.44L3.06,27.91Zm3.3-3.14,3.8-.58-.68-4.46L4.26,11Z"/><polygon class="cls-2" points="48.27 3.07 45.69 2.67 49.62 0 53.28 0.28 48.27 3.07"/></g></g></svg>