<svg xmlns="http://www.w3.org/2000/svg" viewBox="0 0 67.64 69.47"><g id="Capa_2" data-name="Capa 2"><g id="Capa_1-2" data-name="Capa 1"><path d="M26.44,69.47c-.06,0-.12-.13-.19-.15a1.43,1.43,0,0,1-.89-.84.72.72,0,0,0-.35-.36,1,1,0,0,1-.45-1.59,4,4,0,0,1,1.63-1.42,19.77,19.77,0,0,1,4.38-1.76c.09,0,.21,0,.27-.1a.33.33,0,0,0,.07-.27c-.1-.24-.24-.46-.32-.7s-.12-.26-.31-.25-.4-.1-.5,0-.1.32-.13.49a1.23,1.23,0,0,1-.81,1.15,1.15,1.15,0,0,1-1.4-.78c0-.22-.11-.41-.36-.45-.49-.06-.64-.42-.68-.82a.67.67,0,0,0-.47-.59,2,2,0,0,1-.5-.4l-.21-.17c0,.07-.11.13-.15.2-.44.72-.84,1.09-1.62,1A1.6,1.6,0,0,1,22.32,61a1.5,1.5,0,0,1-.15-.24,2.39,2.39,0,0,0-.17.4,7.58,7.58,0,0,1-1.56,3.33,19.83,19.83,0,0,1-1.92,2.18,10.5,10.5,0,0,1-3.09,2.08,4.12,4.12,0,0,1-2.54.3,2.19,2.19,0,0,1-1.41-.93,2.7,2.7,0,0,0-.58-.59A2.57,2.57,0,0,1,10,65.83a5.48,5.48,0,0,1,1.48-4.67,5.13,5.13,0,0,1,2.62-1.85c.45-.1.88-.21,1.22.25,0,.07.23.06.36.08a3.19,3.19,0,0,1,.94.14.87.87,0,0,1,.28,1.38c-.33.42-.69.81-1,1.21a4.13,4.13,0,0,0-1,1.75s0,.06,0,.09c0,.2.05.39.08.59.17,0,.38-.06.49-.17a18,18,0,0,0,1.46-1.44,9,9,0,0,0,1.65-2.87,3.79,3.79,0,0,0,.17-1,.38.38,0,0,0-.34-.47A12.51,12.51,0,0,0,17,58.76c-.87,0-1.74,0-2.61,0a3.69,3.69,0,0,1-1-.25,1.13,1.13,0,0,1-.66-.72.76.76,0,0,0-.34-.39,1.29,1.29,0,0,1-.7-1.47c0-.12.09-.25.11-.37s0-.2,0-.3a.94.94,0,0,0-.3.06l-2.08,1-.18,0a2.24,2.24,0,0,1,.11-.29c.61-1.28,1.22-2.57,1.84-3.85.24-.5.51-1,.74-1.49a17.28,17.28,0,0,0,1.37-3.47,8.13,8.13,0,0,0,.25-2.6,19.71,19.71,0,0,0-.45-2.53,9.3,9.3,0,0,0-1.62-3.18A9.9,9.9,0,0,0,8.6,36.42a17.49,17.49,0,0,0-3.25-1.37c-.79-.3-1.58-.62-2.37-.91-.55-.2-1.11-.37-1.66-.56L.2,33.16c-.24-.09-.27-.22-.06-.34A6.31,6.31,0,0,1,1,32.44l2.47-.88,2.94-1a10.46,10.46,0,0,0,2.74-1.41,9.81,9.81,0,0,0,2.15-2A9.19,9.19,0,0,0,13,24a14.36,14.36,0,0,0,.5-2.23,10.34,10.34,0,0,0-.07-1.84,4.45,4.45,0,0,0-.13-.89,16.35,16.35,0,0,0-.69-2.22c-.61-1.39-1.31-2.75-2-4.12-.46-1-.92-1.94-1.37-2.91a2,2,0,0,1-.07-.2,1.33,1.33,0,0,1,.24.08l2.79,1.31c.5.24,1,.52,1.49.74a28.41,28.41,0,0,0,4.13,1.78c.62.16,1.27.22,1.91.32a2.88,2.88,0,0,0,.63.11c.55,0,1.09-.11,1.63-.19a7.5,7.5,0,0,0,1.42-.32,14.31,14.31,0,0,0,2.23-1,9.58,9.58,0,0,0,4-4.3c.37-.79.64-1.63.94-2.45.48-1.32,1-2.63,1.43-3.95.18-.48.34-1,.5-1.44,0-.09.07-.17.11-.26h.09c.06.15.12.3.17.46l1.35,3.77c.46,1.25.88,2.52,1.4,3.75a8,8,0,0,0,1.67,2.51,10,10,0,0,0,2.33,1.92,10,10,0,0,0,3.2,1.23,13.5,13.5,0,0,0,1.79.24,8.13,8.13,0,0,0,1.63-.17,13.11,13.11,0,0,0,2.07-.54c.85-.33,1.67-.75,2.49-1.14,1.33-.62,2.64-1.27,4-1.89.42-.21.86-.38,1.32-.58a.65.65,0,0,1,0,.17c-.43.88-.87,1.75-1.29,2.63s-.86,1.87-1.3,2.8c-.26.56-.53,1.12-.8,1.68A8.58,8.58,0,0,0,52,19.07a9,9,0,0,0-.2,2.19,10.89,10.89,0,0,0,.77,3.43,9.64,9.64,0,0,0,2.75,3.79A12.13,12.13,0,0,0,57.65,30a23,23,0,0,0,2.74,1c1.22.42,2.45.79,3.68,1.2,1.07.36,2.15.73,3.21,1.13a.66.66,0,0,1,.36.44.56.56,0,0,1-.33.41c-1.27.48-2.55.92-3.83,1.38-1.11.4-2.21.82-3.33,1.19a9,9,0,0,0-2.9,1.58A10.7,10.7,0,0,0,55,40.91a11.7,11.7,0,0,0-.95,2,12.15,12.15,0,0,0-.36,1.91A5.52,5.52,0,0,0,53.58,46a8.58,8.58,0,0,0,.61,3c.53,1.18,1.05,2.37,1.6,3.55.34.73.71,1.46,1.07,2.18s.69,1.38,1,2.08a.59.59,0,0,1-.07.53.53.53,0,0,1-.47.14,4.05,4.05,0,0,1-.78-.33l-3-1.42c-.29-.14-.34-.12-.34.2,0,1.3,0,2.59,0,3.89a5.79,5.79,0,0,0,.34,1.44c.13.47.27.93.43,1.39,0,.16.17.3.23.46a1.45,1.45,0,0,1,0,.92A2.25,2.25,0,0,1,52.8,65.7a1.71,1.71,0,0,1-1.54-.29,5.38,5.38,0,0,1-.7-.73c-.08-.09-.15-.23-.25-.29a2.31,2.31,0,0,1-1-1.55c-.07-.25-.09-.51-.15-.76a4.06,4.06,0,0,0-.18-.46c-.17.26-.3.43-.41.62a4.08,4.08,0,0,1-1.43,1.4,2,2,0,0,1-1.57,0,2.21,2.21,0,0,1-1.38-1.12c0-.1-.19-.15-.29-.23a1.67,1.67,0,0,0-.11.34c-.06.74-.09,1.47-.17,2.2a1.2,1.2,0,0,1-1.94.86,3.09,3.09,0,0,1-.55-.76c-.06-.08-.13-.2-.21-.23-.69-.2-.76-.78-.81-1.34C40,62.63,40,61.9,40,61.18c0-.21-.08-.26-.29-.2a2.61,2.61,0,0,1-.78.1.85.85,0,0,1-.84-.77s0-.1,0-.12-.22-.21-.33-.31c-.08.11-.2.2-.23.31a1.09,1.09,0,0,1-1.22.89,1.66,1.66,0,0,1-.45-.17c-.17-.08-.25,0-.25.16,0,.44,0,.89,0,1.33a.38.38,0,0,0,.22.26c.88.24,1.76.46,2.64.68a1.33,1.33,0,0,1,.24.1.9.9,0,0,1,.5,1c-.13.42-.4.56-.94.58a11.33,11.33,0,0,0-3.78.73c-1,.4-2.06.76-3.05,1.24S29.58,68,28.64,68.54c-.54.29-1.11.52-1.67.78a1.49,1.49,0,0,0-.2.15Zm9.89-38.95,0,.14a1.11,1.11,0,0,0,.16.07c.51.09,1,.14,1.53.27a6,6,0,0,1,3.46,2.12,4.82,4.82,0,0,1,.91,4.08,4.74,4.74,0,0,1-1.7,2.56,4.11,4.11,0,0,1-1.74.91c-.47.12-.95.22-1.43.3a9.82,9.82,0,0,1-1.43.19h-13a1.18,1.18,0,0,0-.62.23c-.7.53-1.38,1.09-2.08,1.62-.18.14-.2.24,0,.39.5.45,1,.93,1.5,1.35a26.49,26.49,0,0,0,4.19,2.58c2,1,4.11,2,6.15,3.08a.85.85,0,0,0,.92,0c2.18-1.12,4.38-2.21,6.57-3.33a22.23,22.23,0,0,0,4.11-2.63,9.79,9.79,0,0,0,2.33-2.76,10.37,10.37,0,0,0,1.21-4.37c.07-.69,0-1.38.14-2.07a5,5,0,0,1,.36-1.37,6.89,6.89,0,0,1,2.45-2.74c.5-.35,1-.67,1.52-1,.27-.19.27-.31,0-.48-.48-.28-1-.55-1.43-.84A6,6,0,0,1,48,26.46a5.82,5.82,0,0,1-.61-2.37c-.06-1.3,0-2.61,0-3.91,0-.61,0-1.22,0-1.83a.41.41,0,0,0-.11-.25s-.14,0-.19.06l-1.87,1.47-2.52,2-2.17,1.72c-.16.13-.18.25,0,.4a2.5,2.5,0,0,1,.67,1.56A4.13,4.13,0,0,1,41,27.23a3.33,3.33,0,0,1-1,1.57,8.34,8.34,0,0,1-2.86,1.46ZM18,38h.05a1.76,1.76,0,0,0,0,.23,10,10,0,0,0,1.05,3.3c.2.35.4.69.63,1,.1.15.24.25.44.09.52-.43,1-.88,1.59-1.29a2.33,2.33,0,0,1,.9-.53,3.73,3.73,0,0,0,1.39-.41,2.25,2.25,0,0,0,1.33-2c0-4.7,0-9.4,0-14.1a.74.74,0,0,0,0-.26,3.4,3.4,0,0,0-2.54-2.32,1.19,1.19,0,0,1-.34-.26,1.15,1.15,0,0,1,.37-.15H33.7a8.84,8.84,0,0,1,1.45.1c.76.12,1.51.28,2.25.45A5.85,5.85,0,0,1,39.68,23c.22.17.36.14.57,0,1.12-.91,2.24-1.81,3.38-2.71s2.12-1.65,3.18-2.48a.26.26,0,0,0,.09-.19s-.08-.08-.14-.1c-.32-.07-.63-.14-.95-.19-.69-.12-1.38-.24-2.07-.34s-1.13-.16-1.7-.22-.92-.08-1.39-.11c-.31,0-.63,0-.94-.05-.58-.06-1.16-.17-1.75-.22s-1.13-.06-1.69-.06l-8.88.05h-.16c-.57.08-1.14.17-1.72.23-.91.1-1.82.17-2.73.28-.7.07-1.39.18-2.08.28l-2.36.38A.41.41,0,0,0,18,18a60.42,60.42,0,0,1-.12,6.73,6.21,6.21,0,0,1-.47,1.75,5,5,0,0,1-1.93,2.06c-.6.39-1.23.74-1.84,1.11-.39.24-.38.31,0,.58.75.51,1.52,1,2.23,1.57A5.54,5.54,0,0,1,18,35.71C18,36.47,18,37.25,18,38ZM53,55.2l4.22,2a1.28,1.28,0,0,0,.35.08,1,1,0,0,0,0-.39c-.62-1.31-1.26-2.62-1.88-3.94s-1.19-2.51-1.74-3.78a7.07,7.07,0,0,1-.58-2.91,19.08,19.08,0,0,1,.19-2.38,8.12,8.12,0,0,1,1.16-3,8.92,8.92,0,0,1,2.19-2.59,10.46,10.46,0,0,1,2.4-1.49c.82-.32,1.65-.63,2.48-.92L67.12,34a.87.87,0,0,0,.22-.17c-.06-.06-.11-.15-.19-.18-.45-.17-.91-.34-1.38-.48a.76.76,0,0,0-.47,0c-.81.28-1.61.58-2.42.87L60,35a17.53,17.53,0,0,0-3.32,1.39,9.23,9.23,0,0,0-3,2.81,22.77,22.77,0,0,0-1.18,2.17,8.85,8.85,0,0,0-.69,3.09,6.83,6.83,0,0,0,.12,1.74,10.42,10.42,0,0,0,.49,2.16c.41,1.07.92,2.09,1.41,3.11.74,1.55,1.49,3.1,2.23,4.64a.63.63,0,0,1,0,.23c-.42-.22-.79-.41-1.17-.59l-3.09-1.46a.59.59,0,0,1-.23-.24c-.16-.46-.25-1-.45-1.39a3.33,3.33,0,0,0-1-1.43,11.19,11.19,0,0,1-1-.81c-.23-.21-.39-.5-.63-.7a4,4,0,0,1-1.15-1.21c0-.07-.17-.08-.26-.12a.68.68,0,0,0,0,.28,3.46,3.46,0,0,0,1.37,1.65c.41.28.8.56,1.19.86a5.71,5.71,0,0,1,1.49,2.15,3.45,3.45,0,0,1,.32,1.29c.05,1.12,0,2.24,0,3.36a5.55,5.55,0,0,0,.21,2.06c.28.75.47,1.53.74,2.28a1.17,1.17,0,0,1,0,.84c-.23.66-.54,1.21-1.32,1.32-.19,0-.2.15-.09.28A1.52,1.52,0,0,0,53.4,65a1.68,1.68,0,0,0,.52-1.71c-.2-.62-.45-1.22-.64-1.84A5.64,5.64,0,0,1,53,60c0-1.48,0-3,0-4.44C52.94,55.45,53,55.36,53,55.2ZM31.33,35.3h0c0,1.24,0,2.48,0,3.72a6,6,0,0,0,.11.95c.13.64.39.84,1,.83.48,0,1,0,1.44,0a1.51,1.51,0,0,0,1.44-.93,7.9,7.9,0,0,0,.51-2.49c.07-.6,0-1.22,0-1.83a9,9,0,0,0-.51-3.3A1.86,1.86,0,0,0,33.84,31c-.71-.11-1.44-.11-2.17-.16-.28,0-.35.1-.35.36C31.33,32.53,31.33,33.92,31.33,35.3Zm0-9.2c0,1.33,0,2.67,0,4,0,.31.12.43.42.41l1.82-.08a1.41,1.41,0,0,0,1.26-.73,4.65,4.65,0,0,0,.48-2.31c0-1.14,0-2.28-.09-3.41A3.79,3.79,0,0,0,35,23,1.79,1.79,0,0,0,33.5,21.8a15.06,15.06,0,0,0-1.78-.12c-.3,0-.4.11-.4.4C31.33,23.42,31.33,24.76,31.33,26.1ZM19.4,57.83c.09.14.16.23.21.33a8.41,8.41,0,0,1,.55,1.23,3,3,0,0,1-.36,2.2,12.36,12.36,0,0,1-5.2,5.55,4,4,0,0,1-2.64.65c-.05,0-.17,0-.16,0a.35.35,0,0,0,.06.23,2,2,0,0,0,1.2.66,3.64,3.64,0,0,0,2.32-.35,12.25,12.25,0,0,0,6-6.28,4.68,4.68,0,0,0,.31-1.29,1,1,0,0,0-.21-.64,3.24,3.24,0,0,1-.79-1.44A1.56,1.56,0,0,0,19.4,57.83ZM38.09,64.7h.29c.27,0,.52-.1.53-.37a.79.79,0,0,0-.27-.56,2.23,2.23,0,0,0-.65-.27.49.49,0,0,0-.64.13.46.46,0,0,1-.35.13,12,12,0,0,0-3.51.58,23.48,23.48,0,0,0-4.81,2.06L25.79,68c-.21.12-.21.25-.11.43a1.18,1.18,0,0,0,1.67.45,17,17,0,0,0,1.5-.85,27.43,27.43,0,0,1,5.58-2.65A15.72,15.72,0,0,1,38.09,64.7Zm6.48-2.19a1.29,1.29,0,0,0,.06.2,2.3,2.3,0,0,0,2.28.68,3.85,3.85,0,0,0,1.68-1.84A5.64,5.64,0,0,0,49.12,59c.07-1.07,0-2.16,0-3.23,0-.58-.07-1.16-.11-1.74a1.42,1.42,0,0,0-.6-1c-.05-.05-.15,0-.23-.05a.93.93,0,0,0,0,.24c0,.12.17.24.17.36,0,1-.09,2-.15,3,0,.34-.07.68-.12,1a10.91,10.91,0,0,1-.19,1.12,9.39,9.39,0,0,1-1.14,2.57C46.29,62,45.72,62.73,44.57,62.51Zm-2.14-3.66c0-.11,0-.22,0-.33-.07-.58-.16-1.17-.2-1.75a2.86,2.86,0,0,1,.1-.77c.1-.53.19-1.06.33-1.58a1,1,0,0,0-.08-.84,3.22,3.22,0,0,0-.64-.69,1,1,0,0,0-.53-.16c-.22,0-.3.12-.21.32a7.55,7.55,0,0,1,.51,2.52c.1,1.23.09,2.46.13,3.7,0,.48.06,1,.08,1.46a14.56,14.56,0,0,1,.06,2,3.89,3.89,0,0,1-.38,1.69A.81.81,0,0,0,42,65.53c.73.35,1.12-.1,1.3-.76a6.73,6.73,0,0,0,.22-2.28,2.6,2.6,0,0,0-.21-.83A8,8,0,0,1,42.43,58.85ZM20,52l-.09.14a2.17,2.17,0,0,1,.19.33.94.94,0,0,1,0,1,.68.68,0,0,1-.83.18,1.73,1.73,0,0,0-.45-.05,7.56,7.56,0,0,0-2.54.51,6.9,6.9,0,0,0-3,2.14c-.05.07-.13.2-.1.25a.36.36,0,0,0,.26.13c.48,0,1,.06,1.43,0a.8.8,0,0,0,.41-.16c.31-.22.58-.49.9-.69a7,7,0,0,1,4.5-1.22.31.31,0,0,0,.39-.24,2.34,2.34,0,0,1,.25-.5c.37-.55.38-.55-.07-1.07a1.8,1.8,0,0,0-.37-.36C20.56,52.27,20.26,52.15,20,52Zm-6.91,11.6a1.32,1.32,0,0,0,1.09,1.45c.29.07.47,0,.44-.34a3.1,3.1,0,0,1,.84-2.32c.4-.48.83-.95,1.22-1.44a.56.56,0,0,0-.09-.86,1.1,1.1,0,0,0-1.45.11c-.47.53-.95,1.07-1.38,1.64A2.88,2.88,0,0,0,13.07,63.62Zm2.54-7,.24,0c.52.07,1,.12,1.54.22a12.29,12.29,0,0,1,1.23.31c.54.18,1.08.39,1.62.58l.32.1a1.86,1.86,0,0,0,.06-.34c0-.63,0-1.27.1-1.91.06-.84.05-.88-.83-.82a7.77,7.77,0,0,0-4.1,1.58A1.47,1.47,0,0,0,15.61,56.64ZM29.7,58c0-.15,0-.37-.06-.58s-.16-.45-.42-.47-.35.23-.41.44a22.11,22.11,0,0,0-.92,4.1,1.37,1.37,0,0,1-.13.5.91.91,0,0,0,0,.93.81.81,0,0,0,.8.46.65.65,0,0,0,.64-.48,7.91,7.91,0,0,0,.25-1.07c.05-.48.05-1,.08-1.46C29.6,59.61,29.65,58.84,29.7,58Zm2.53,1.76h0c0-.88,0-1.76,0-2.64,0-.21-.24-.4-.36-.6-.14.16-.37.3-.4.48-.15.76-.26,1.52-.36,2.28S31,60.7,30.84,61.4A1.91,1.91,0,0,0,31,62.54a.64.64,0,0,0,1.25-.21C32.23,61.47,32.23,60.62,32.23,59.76Zm7.54-4.37h-.06a.17.17,0,0,0,0-.1c-.06-.15-.1-.4-.22-.45s-.3.17-.35.33a6.26,6.26,0,0,0-.43,2c0,.53-.05,1.06-.09,1.59a.91.91,0,0,1-.12.5c-.32.38-.18.73,0,1.12s.46.36.72.4a.87.87,0,0,0,.54-.27c.25-.22.19-.51.17-.82C39.81,58.29,39.8,56.84,39.77,55.39Zm-6,4.35h0c0,.84,0,1.69,0,2.54,0,.21,0,.37.3.37h.94a.27.27,0,0,0,.29-.32c0-.73,0-1.45-.06-2.18a.35.35,0,0,0-.24-.27.73.73,0,0,1-.64-.68c-.07-.45-.1-.9-.13-1.35s-.07-1.14-.11-1.71a.45.45,0,0,0-.12-.25,1.73,1.73,0,0,0-.28-.19c0,.1-.1.2-.09.29,0,.51.09,1,.1,1.53C33.79,58.26,33.78,59,33.78,59.74ZM25.9,53.85c-.41,0-.55.14-.55.54,0,1,0,2.09,0,3.13,0,.5.19,1,.26,1.5a1,1,0,0,1,0,.58A.9.9,0,0,0,26,60.74c.23.11.33,0,.31-.2s-.08-.67-.09-1c0-1.16,0-2.32,0-3.49a1.64,1.64,0,0,1,.44-1.19.4.4,0,0,0,.1-.28A1.08,1.08,0,0,0,25.9,53.85ZM37,57h0c0-.55,0-1.09,0-1.64a1.07,1.07,0,0,0-.14-.36c-.1.1-.27.18-.3.29-.21.73-.41,1.46-.56,2.2s-.26,1.48-.41,2.21a1,1,0,0,0,.81,1.09.88.88,0,0,0,.81-1.21,3.5,3.5,0,0,1-.2-1C37,58.06,37,57.52,37,57Zm9.75-2.66c-.1.49-.15.93-.27,1.35a4.56,4.56,0,0,1-1.75,2.66.38.38,0,0,0-.12.32,1.07,1.07,0,0,0,.77.75.87.87,0,0,0,1-.62,9.85,9.85,0,0,0,.29-1.22c.14-.71.3-1.41.39-2.12s.09-1.29.12-1.93c0-.48-.06-.57-.5-.7a.33.33,0,0,0-.26,0s0,.17,0,.26C46.53,53.51,46.64,53.93,46.74,54.32ZM15,57.55v0H13.24c-.24,0-.32.13-.18.3a1.42,1.42,0,0,0,.61.49,7.19,7.19,0,0,0,1.67.19,12.46,12.46,0,0,1,2.73,0c.07,0,.16,0,.24-.06s0-.16-.11-.21a2.38,2.38,0,0,0-1.54-.71C16.11,57.53,15.56,57.55,15,57.55Zm7.26.14a1.51,1.51,0,0,0,0,.39,4.13,4.13,0,0,0,.17.45c.11-.14.23-.27.34-.4a0,0,0,0,0,0,0,17.76,17.76,0,0,0,.86-3.43.48.48,0,0,0-.18-.43.58.58,0,0,0-.5-.05.79.79,0,0,0-.54.81,3,3,0,0,1,0,.52C22.37,56.25,22.31,57,22.26,57.69ZM19.73,51.6s.12,0,.14-.07a.21.21,0,0,0-.07-.19,2.89,2.89,0,0,0-.45-.33,3.81,3.81,0,0,0-3-.24,8.12,8.12,0,0,0-2.84,1.55,1.13,1.13,0,0,0-.29.42c0,.07,0,.17,0,.26a1,1,0,0,0,.23-.06c.59-.38,1.16-.8,1.78-1.13a4.52,4.52,0,0,1,3.56-.38A8.62,8.62,0,0,0,19.73,51.6Zm3.95,7.2-.15.32a1.93,1.93,0,0,1-1,1.29.26.26,0,0,0-.07.24,1.23,1.23,0,0,0,2.14.16l.34-.56c.09-.17.06-.27-.12-.4a1.63,1.63,0,0,1-.54-.57c-.11-.23-.22-.24-.4-.16Zm18-6.57c.34.36.61.67.9,1a.32.32,0,0,0,.3,0,3.92,3.92,0,0,0,.79-.47,2,2,0,0,1,1.72-.61c.47.1.89.44,1.41.33,0,0,.06,0,.09,0l.28,0c-.07-.07-.12-.17-.2-.21s-.26,0-.38-.09a1.34,1.34,0,0,1-.4-.19,1.49,1.49,0,0,0-1.9-.22,2.37,2.37,0,0,1-.76.2c-.42.07-.83.11-1.25.17ZM25.9,53.41a.58.58,0,0,0-.1-.12,6.8,6.8,0,0,0-.68-.52c-.18-.11-.43-.27-.61-.23a2.7,2.7,0,0,1-1.17-.14c-.68-.12-1.36-.22-2.05-.32-.07,0-.15.05-.22.08a1.21,1.21,0,0,0,.09.2c.08.13.19.24.26.37A.55.55,0,0,0,22,53c.42,0,.84,0,1.26.07a2.63,2.63,0,0,0,.91.09.91.91,0,0,1,.89.19A.63.63,0,0,0,25.9,53.41ZM45.36,54a3.19,3.19,0,0,0-.26-.38.39.39,0,0,0-.17.1,3.9,3.9,0,0,0-.69,1.83c0,.22-.07.44-.09.66a1.37,1.37,0,0,0,.07.29c.08,0,.19-.06.24-.13A5.1,5.1,0,0,0,45.36,54Zm-5.25-2.62a1.91,1.91,0,0,0-1.34,1c0,.06,0,.14,0,.21a1,1,0,0,0,.2,0c.09-.05.14-.14.23-.19A2.81,2.81,0,0,1,39.9,52a.91.91,0,0,1,.88.36.32.32,0,0,0,.28.06.26.26,0,0,0,.1-.24A1.35,1.35,0,0,0,40.11,51.41Zm-11.39,3.7c.15-.19.28-.35.39-.52.47-.66.9-.7,1.47-.12a.61.61,0,0,0,.25.08c0-.09.09-.21.06-.28a3.74,3.74,0,0,0-.45-.67.6.6,0,0,0-.68-.14c-.51.11-1,1.1-1.12,1.54ZM36.25,53c.13-.06.17-.06.18-.09l.2-.25a1,1,0,0,1,1.54-.07c0,.07.19.07.28.11,0-.12.07-.26,0-.34a3,3,0,0,0-.44-.56.87.87,0,0,0-.91-.1,9.18,9.18,0,0,0-.83.93C36.23,52.74,36.27,52.88,36.25,53Zm-2.71.88c-.23-.3-.45-.6-.7-.87a.42.42,0,0,0-.64,0c-.3.34-.56.71-.83,1.07a.19.19,0,0,0,0,.19.21.21,0,0,0,.2,0c.08-.08.12-.2.2-.29.5-.59.83-.57,1.26,0a.48.48,0,0,0,.09.14c.06,0,.14.08.19.06S33.45,54,33.54,53.92ZM46,47.13a.88.88,0,0,0-.78.5.92.92,0,0,0,0,.29,1,1,0,0,0,.26-.06.76.76,0,0,1,1,.11,1,1,0,0,0,.24.22.42.42,0,0,0,.27,0,.22.22,0,0,0,.08-.19A1.64,1.64,0,0,0,46,47.13Zm-24,6.2a5.2,5.2,0,0,0,.48.6.32.32,0,0,0,.3,0,.89.89,0,0,1,.78-.06.39.39,0,0,0,.32,0,.32.32,0,0,0,0-.3.46.46,0,0,0-.28-.16,2.84,2.84,0,0,0-.57-.1Zm12.89-.23c.09,0,.22.08.25.15.16.29.3.6.44.9l.11.27c.07,0,.2-.08.21-.14a.48.48,0,0,0-.06-.3c0-.09-.11-.16-.14-.25a5,5,0,0,0-.31-.84.69.69,0,0,0-.45-.34.55.55,0,0,0-.51.46.64.64,0,0,0,0,.24,1.64,1.64,0,0,0,.23,0A1.93,1.93,0,0,0,34.86,53.1Zm-22,.11-.12-.05a1.5,1.5,0,0,0-.2.24c-.19.3-.38.6-.54.91a.65.65,0,0,0,0,.28,1,1,0,0,0,.25-.15c.19-.26.38-.52.55-.8A1.22,1.22,0,0,0,12.86,53.21Zm15.33,3.07s.1-.07.13-.12a1.58,1.58,0,0,0,.16-.35,1.53,1.53,0,0,0,0-.37c-.15,0-.42.06-.42.12a3.24,3.24,0,0,0,0,.69Zm-1.52-2.55-.12.18,1.12.62.07-.12C27.47,54,26.93,54.11,26.67,53.73Zm7.21,1.11-.39-.45c0,.07-.13.15-.11.19a1,1,0,0,0,.23.34S33.76,54.88,33.88,54.84Zm-2.54,0c-.29-.09-.45-.06-.49.16s.08.16.13.25Z"/><path d="M49.65,30a8.48,8.48,0,0,0-3,3.16,1.38,1.38,0,0,0-.11-.22,8.07,8.07,0,0,0-2.52-2.74c-.19-.13-.27-.22,0-.39a7,7,0,0,0,2.53-2.58,2.11,2.11,0,0,0,.11-.22A7.73,7.73,0,0,0,49.65,30Z"/><path d="M30.38,43a.62.62,0,0,1,.7.67.66.66,0,0,1-.69.7.7.7,0,0,1-.73-.71A.65.65,0,0,1,30.38,43Zm.45.68a.55.55,0,0,0-.46-.51.5.5,0,0,0-.44.52.45.45,0,1,0,.9,0Z"/><path d="M34.73,46.06a1.21,1.21,0,0,1,0-.19c0-.16,0-.42.1-.43a1.63,1.63,0,0,1,.66,0,.33.33,0,0,1,.2.23c0,.3.07.67-.08.88s-.51.15-.77.1c-.08,0-.11-.37-.16-.57Zm.49.54.26-.28c-.08-.07-.16-.18-.25-.2a.27.27,0,0,0-.21.16C35,46.37,35.12,46.46,35.22,46.6Zm0-.63.14.08c0-.09.12-.19.12-.28a.29.29,0,0,0-.2-.2.29.29,0,0,0-.21.16C35,45.81,35.11,45.89,35.17,46Z"/><path d="M35.66,44.25a1.71,1.71,0,0,0-.6-.25c-.19,0-.37.18-.55.28l-.08-.06c.18-.39.36-.79.55-1.18,0,0,.21,0,.23,0,.19.38.36.77.53,1.15Z"/><path d="M34,46c0,.16,0,.37-.07.47a.88.88,0,0,1-.52.32.53.53,0,0,1-.52-.46,3.47,3.47,0,0,1,0-.72c0-.06.08-.12.13-.18s.12.12.13.19a2.52,2.52,0,0,0,0,.55c0,.14.16.33.28.36s.29-.15.3-.33,0-.4,0-.59.07-.11.12-.16.1.1.11.16,0,.26,0,.39Z"/><path d="M28.93,43.14a1.13,1.13,0,0,0-.26,0,1.28,1.28,0,0,0-.24.11,1.28,1.28,0,0,0,.14.23c.05,0,.16,0,.2.08s.27.24.25.34a.58.58,0,0,1-.3.37,1,1,0,0,1-.49,0s-.06-.08,0-.1a.18.18,0,0,1,.11-.1c.06,0,.13.05.18,0a1.06,1.06,0,0,0,.25-.09,1.4,1.4,0,0,0-.15-.24c0-.05-.15-.06-.2-.11s-.25-.26-.22-.34A.63.63,0,0,1,28.5,43a1.1,1.1,0,0,1,.44,0Z"/><path d="M29.59,46.07a.67.67,0,0,1,.85-.7c.07,0,.12.1.17.16s-.15.08-.21.06a.35.35,0,0,0-.49.19.8.8,0,0,0,0,.55c.09.2.29.23.51.13,0,0,.13,0,.2,0s-.06.16-.11.2a.5.5,0,0,1-.58,0A.58.58,0,0,1,29.59,46.07Z"/><path d="M32.79,43.16a.68.68,0,0,0-.25,0c-.16,0-.4.08-.45.19a.69.69,0,0,0,0,.56c0,.09.28.09.44.12l.25,0c-.07.08-.12.18-.2.21a.64.64,0,0,1-.71-.21.66.66,0,0,1-.12-.73.57.57,0,0,1,.58-.39,3.44,3.44,0,0,1,.45,0Z"/><path d="M36.66,43c0,.24,0,.48,0,.72s.06.37.32.37a.5.5,0,0,1,.21.1c-.08,0-.15.12-.23.12-.49,0-.54,0-.53-.51,0-.27,0-.53,0-.8Z"/><path d="M31.63,45.41V46c0,.47,0,.47.44.55l.14.08c-.2.23-.43.12-.63.1s-.16-.19-.17-.3,0-.52,0-.78a.83.83,0,0,1,.06-.21Z"/><path d="M33.53,43.64a3.85,3.85,0,0,1,0-.48c0-.06.08-.11.12-.17s.12.1.13.15c0,.33,0,.65,0,1,0,.06-.09.1-.14.15s-.11-.11-.11-.17a3.34,3.34,0,0,1,0-.45Z"/><path d="M21.52,30c-.32.26-.62.51-.94.75a7.37,7.37,0,0,0-1.82,2.15,1.06,1.06,0,0,1-.15.15c-.05-.05-.13-.1-.16-.17a8.54,8.54,0,0,0-2.13-2.39c-.64-.53-.89-.37,0-1a6.61,6.61,0,0,0,2.07-2.17,2.78,2.78,0,0,1,.21-.27,1.64,1.64,0,0,1,.2.26,8.16,8.16,0,0,0,2.48,2.45l.19.12S21.49,29.93,21.52,30Z"/></g></g></svg>