<svg xmlns="http://www.w3.org/2000/svg" viewBox="0 0 55.72 64.59"><g id="Capa_2" data-name="Capa 2"><g id="Capa_1-2" data-name="Capa 1"><path d="M2.52,41.34l0,0H1.3l.06.11a29.32,29.32,0,0,0,9.51,11.5L11,53V51.66l0,0a28.47,28.47,0,0,1-8.44-10.3"/><path d="M54.12,19.17l0,0h1.15l0-.11a29.19,29.19,0,0,0-54.79,0l0,.11H1.58l0,0a28.11,28.11,0,0,1,52.52,0"/><path d="M53.2,41.34a28.4,28.4,0,0,1-8.45,10.3l0,0V53l.13-.09a29.5,29.5,0,0,0,9.51-11.5l0-.11H53.22Z"/><polygon points="55.71 36.02 51.42 30.54 55.32 25.38 55.32 24.44 52.35 24.47 48.87 29.33 46.53 29.32 46.53 24.44 43.49 24.44 43.49 36.96 46.53 36.96 46.53 31.96 48.94 31.96 52.65 36.94 55.72 36.94 55.71 36.02"/><polygon points="34.18 34.36 33.12 33.26 33.12 28.14 34.18 27.04 41.1 27.04 41.1 24.43 32.72 24.43 30.06 27.06 30.06 34.34 32.72 36.98 41.1 36.98 41.1 34.36 34.18 34.36"/><path d="M10.59,30.11,11.78,29V26.43l-2-2H0V37H10.29l2.1-2.11V31.92ZM8.1,26.89l.64.63v1.21l-.64.64H3V26.89Zm1.25,6.87-.78.72H3V31.73H8.57l.81.68Z"/><path d="M27.6,27.06l-2.66-2.63H17.33l-2.66,2.63,0,3.64,0,3.64L17.33,37h7.61l2.66-2.64,0-3.64Zm-3.06,6.2-1.06,1.1h-4.7l-1.06-1.1V28.14L18.78,27h4.7l1.06,1.1v5.12Z"/><rect x="17.72" y="21.11" width="2.49" height="2.14"/><rect x="22.07" y="21.11" width="2.49" height="2.14"/><path d="M29.66,63.58a2.48,2.48,0,0,1-.78.33,6,6,0,0,1-.65.11h-.39a5.7,5.7,0,0,1-.66-.11,2.48,2.48,0,0,1-.78-.33,2.67,2.67,0,0,1-.63-.58l-.07-.09.06.23a1.94,1.94,0,0,0,.5.79,2.2,2.2,0,0,0,.81.49,2.58,2.58,0,0,0,.91.17h.11a2.56,2.56,0,0,0,.9-.17,2.2,2.2,0,0,0,.81-.49,1.94,1.94,0,0,0,.5-.79l.06-.23-.07.09a2.49,2.49,0,0,1-.63.58"/><path d="M37,50.93l-.27,0c-.37.05-.76.13-1.15.22a9,9,0,0,0-1.1.34c-.17.07-.78.39-1,.49l0,0a3,3,0,0,0-.43.35l-.18.2a.61.61,0,0,0-.07.1l0,0c0,.08.09.16.15.26a2.74,2.74,0,0,0,1.14,0,4.2,4.2,0,0,0,1.2-.5,6.88,6.88,0,0,0,1-.81,7,7,0,0,0,.7-.75"/><path d="M19.74,51.68a6.88,6.88,0,0,0,1.05.81A4.2,4.2,0,0,0,22,53a2.74,2.74,0,0,0,1.14,0c.06-.1.11-.18.15-.26s0,0,0,0a.61.61,0,0,0-.07-.1l-.18-.2a3,3,0,0,0-.43-.35l-.05,0c-.18-.1-.78-.42-1-.49a8.44,8.44,0,0,0-1.1-.34c-.39-.09-.78-.17-1.15-.22l-.27,0a7,7,0,0,0,.7.75"/><path d="M35.23,50.74c-.33,0-.67.13-1,.22l-.87.28a.32.32,0,0,1-.29,0l-.05,0h0a1.38,1.38,0,0,0-.28.1,1.63,1.63,0,0,1-.29.12,2.31,2.31,0,0,1-.52.06,2.92,2.92,0,0,1-.5-.05,2.71,2.71,0,0,1-.94-.34,3,3,0,0,1-.77-.65,4.22,4.22,0,0,1-.52-.84,6,6,0,0,1-.32-.93A5.91,5.91,0,0,1,28.7,48l-.23,0-.39,0H28l-.4,0-.22,0c0,.2-.07.41-.13.68a7.32,7.32,0,0,1-.33.93,4.22,4.22,0,0,1-.52.84,3.12,3.12,0,0,1-.76.65,3.11,3.11,0,0,1-1.45.39,2.16,2.16,0,0,1-.51-.06,1.44,1.44,0,0,1-.3-.12,1.2,1.2,0,0,0-.28-.1h0l0,0a.32.32,0,0,1-.29,0c-.27-.1-.57-.19-.87-.28s-.71-.17-1-.22a5,5,0,0,0-1-.07,3.14,3.14,0,0,0-.45,0c.45,0,.84.12,1.19.19a8.66,8.66,0,0,1,1.17.3,5.75,5.75,0,0,1,1.11.51,3.63,3.63,0,0,1,.5.39,1.6,1.6,0,0,1,.22.24.71.71,0,0,1,.1.14.36.36,0,0,1,.07.33l-.08.18c-.05.1-.09.21-.13.27l-.09.16,0,.06h.25l.37,0a3,3,0,0,1,.73.24,2.92,2.92,0,0,1,.65.4,3.32,3.32,0,0,1,.52.54l.06.07,0,0,0-.05a1,1,0,0,0,.07-.15l.12-.26s.05-.05.09,0a.07.07,0,0,1,.05.08l0,.28a1,1,0,0,1,0,.2.54.54,0,0,1-.15.22.25.25,0,0,1-.2.06.36.36,0,0,1-.15-.06.25.25,0,0,1-.1-.08L25.6,55l-.17-.14-.17.17a1.11,1.11,0,0,1-.38.21.82.82,0,0,1-.44,0,1.73,1.73,0,0,1-.74-.38,1.44,1.44,0,0,1-.27-.34,1.08,1.08,0,0,1-.13-.43V54h-.07a8.23,8.23,0,0,0-.2,1.21,4.58,4.58,0,0,0,.09,1.5A3.73,3.73,0,0,0,23.74,58a5.83,5.83,0,0,0,.5.58l.31.3c.09.08.17.17.25.25a2.17,2.17,0,0,1,.28.31,1.29,1.29,0,0,1,.23.38.86.86,0,0,1,.06.23v.22c0,.13,0,.26,0,.38a4.26,4.26,0,0,0,.31,1.48,2.33,2.33,0,0,0,.91,1.11,2.54,2.54,0,0,0,1.13.33v-.16l-.26-.07a1.5,1.5,0,0,1-.47-.28L26.94,63v0l0,0-.07-.08-.16-.13a1.22,1.22,0,0,0-.37-.16.11.11,0,0,1-.09-.13.12.12,0,0,1,.14-.1,1.53,1.53,0,0,1,.46.14l.23.15.1.1,0,0,0,0a1.12,1.12,0,0,0,.38.17A2.44,2.44,0,0,0,28,63h.1a2.28,2.28,0,0,0,.39-.06,1.12,1.12,0,0,0,.38-.17l0,0,0,0,.1-.1.23-.15a1.62,1.62,0,0,1,.46-.14.12.12,0,0,1,.14.1.11.11,0,0,1-.09.13,1.34,1.34,0,0,0-.37.16l-.16.13-.07.08,0,0,0,0-.06.06a1.32,1.32,0,0,1-.47.27,1.29,1.29,0,0,1-.26.08v.16a2.5,2.5,0,0,0,1.13-.33,2.24,2.24,0,0,0,.54-.48,2.43,2.43,0,0,0,.37-.63,4.26,4.26,0,0,0,.31-1.48c0-.12,0-.25,0-.38v-.1a.41.41,0,0,1,0-.12.86.86,0,0,1,.06-.23,1.24,1.24,0,0,1,.22-.38,2.17,2.17,0,0,1,.28-.31c.08-.08.16-.17.25-.25l.31-.3a4.75,4.75,0,0,0,.5-.58,3.57,3.57,0,0,0,.62-1.36,4.58,4.58,0,0,0,.09-1.5,8.23,8.23,0,0,0-.2-1.21h-.07v.15a1.08,1.08,0,0,1-.13.43,1.44,1.44,0,0,1-.27.34,1.71,1.71,0,0,1-.73.38.85.85,0,0,1-.45,0A1.11,1.11,0,0,1,30.8,55a1.37,1.37,0,0,1-.17-.17l-.17.14-.07.06a.32.32,0,0,1-.09.08.49.49,0,0,1-.16.06.29.29,0,0,1-.2,0,.43.43,0,0,1-.14-.22,1.29,1.29,0,0,1-.05-.21l0-.28a.07.07,0,0,1,.05-.08s.08,0,.09,0l.12.26a1,1,0,0,0,.07.15l0,.05,0,0,.06-.07a3.8,3.8,0,0,1,.52-.54,2.92,2.92,0,0,1,.65-.4,3,3,0,0,1,.73-.24l.37,0h.25l0-.06-.09-.16a2.29,2.29,0,0,1-.13-.27l-.08-.18c-.06-.12,0-.28.07-.34l.1-.13a1.6,1.6,0,0,1,.22-.24,3.63,3.63,0,0,1,.5-.39,5.75,5.75,0,0,1,1.11-.51,8.66,8.66,0,0,1,1.17-.3c.36-.07.74-.14,1.19-.19a3.14,3.14,0,0,0-.45,0,5.71,5.71,0,0,0-1.05.07m-8.9,3.4h0a.1.1,0,0,1-.07,0l-.14-.25a2.42,2.42,0,0,0-.34-.45,2.21,2.21,0,0,0-.43-.34l-.25-.13-.26-.09-.34-.09-.24-.06-.14,0a.1.1,0,0,1-.06-.08.09.09,0,0,1,.06-.07l.14,0a1.42,1.42,0,0,1,.68,0,1.75,1.75,0,0,1,.62.26,2,2,0,0,1,.26.21l.23.25a3,3,0,0,1,.17.28,2.45,2.45,0,0,1,.12.31l.06.28a.08.08,0,0,1,0,.09m.35,6.11a5.86,5.86,0,0,1-.22,1.35.09.09,0,0,1-.1.06H26.3a.08.08,0,0,1-.07-.1c0-.41.06-.84.06-1.31l.08,0h-.08c0-.22,0-.44,0-.66s0-.45,0-.66,0-.46-.06-.67,0-.31-.05-.46l0-.21c-.05-.39-.1-.81-.17-1.31a.09.09,0,0,1,.07-.11h.05a.09.09,0,0,1,.11.06,10.85,10.85,0,0,1,.33,1.31c0,.23.07.45.1.68s.05.42.08.68,0,.48,0,.69,0,.45,0,.69m2.25-7.18a2,2,0,0,1-.39.26h0a1,1,0,0,1-.49.14,1,1,0,0,1-.51-.14h0a2,2,0,0,1-.39-.26,2.27,2.27,0,0,1-.53-.69.11.11,0,0,1,0-.15.12.12,0,0,1,.16,0,1.79,1.79,0,0,0,.52.54,2.31,2.31,0,0,0,.35.18h0a.88.88,0,0,0,.33.08h0a.88.88,0,0,0,.33-.08h0a2.21,2.21,0,0,0,.34-.18,1.79,1.79,0,0,0,.52-.54.12.12,0,0,1,.16,0,.11.11,0,0,1,.05.15,2.27,2.27,0,0,1-.53.69m1,3.13h0a.11.11,0,0,1,.11-.06h0a.09.09,0,0,1,.07.11c-.07.5-.12.92-.17,1.31a1.49,1.49,0,0,0,0,.21c0,.15,0,.31-.05.46s-.05.44-.06.67,0,.42,0,.66,0,.45,0,.66a10.85,10.85,0,0,0,.07,1.32.1.1,0,0,1-.08.1H29.7a.1.1,0,0,1-.1-.06,5.86,5.86,0,0,1-.22-1.35c0-.24,0-.47,0-.69s0-.43,0-.69.05-.48.08-.68.06-.45.1-.68a10.85,10.85,0,0,1,.33-1.31M32,52.67l-.14,0h0l-.24.06-.34.09-.26.09-.24.13a1.74,1.74,0,0,0-.43.34,2.1,2.1,0,0,0-.35.45l-.14.25a.1.1,0,0,1-.07,0h0a.08.08,0,0,1,0-.09l.07-.28a1.45,1.45,0,0,1,.11-.31,3.23,3.23,0,0,1,.18-.28,2.32,2.32,0,0,1,.22-.25,3,3,0,0,1,.26-.21,1.75,1.75,0,0,1,.62-.26,1.41,1.41,0,0,1,.68,0l.14,0a.07.07,0,0,1,.06.07.09.09,0,0,1-.06.08"/><path d="M20.81,54.91a5.81,5.81,0,0,0-.55-.73,3.51,3.51,0,0,0-.5-.47l0,0c.23.26.51.59.62.75h0A2.69,2.69,0,0,1,21,55.78a2.42,2.42,0,0,1,0,.6,1.63,1.63,0,0,1-.22.7,1.53,1.53,0,0,1-.46.52.71.71,0,0,1-.14.1,1.79,1.79,0,0,1-.48.19,2.31,2.31,0,0,1-.73,0h0a4,4,0,0,1-.58-.11l-.25-.08-.06,0-.31-.13-.29-.17-.27-.2a3.19,3.19,0,0,1-.38-.36c-.05,0-.36-.44-.48-.62v0a.91.91,0,0,1-.1-.16,7.11,7.11,0,0,1-.82-2.22c0-.22-.08-.69-.09-.74a7.3,7.3,0,0,1,0-.81c0-.29.13-1,.14-1,.08-.38.38-1.21.39-1.24a7.11,7.11,0,0,1,.63-1.14c.05-.08.12-.17.19-.26a1.88,1.88,0,0,1,.22-.26.55.55,0,0,1,.11-.1l.16-.14a1.73,1.73,0,0,1,.28-.19,2.36,2.36,0,0,1,.66-.24,2.51,2.51,0,0,1,.62,0,4,4,0,0,1,1.91.7,3.37,3.37,0,0,1,.38.3c.1.06.36.25.38.27a3.83,3.83,0,0,1,.35.35l.33.39.28.34a4.78,4.78,0,0,0,.52.55,2.48,2.48,0,0,0,.87.51,2,2,0,0,0,.43.05,3.42,3.42,0,0,0,.44,0,2.56,2.56,0,0,0,.83-.29,2.6,2.6,0,0,0,.67-.57,3,3,0,0,0,.47-.77,4,4,0,0,0,.28-.87,3.64,3.64,0,0,0,.07-.44c0-.12,0-.24,0-.35l-.6-.44h0L25.87,47l-.34-.24c-.39-.28-.75-.51-1.09-.72l-.18-.11-.3-.18A18.47,18.47,0,0,0,22.27,45a4.46,4.46,0,0,0-.7-.17,5.38,5.38,0,0,0-.67-.06,2.17,2.17,0,0,0-.38,0h0a4.26,4.26,0,0,0-1,.22,7.27,7.27,0,0,0-.72.3,9.71,9.71,0,0,0-1.4.85,8.54,8.54,0,0,0-1.5,1.39l-.27.35a8.42,8.42,0,0,0-.68,1.21,7,7,0,0,0-.6,2.24h0a.34.34,0,0,1,0,.1c0,.18,0,.65,0,.86s0,.33,0,.39a8,8,0,0,0,.13,1.08,3.76,3.76,0,0,0,.13.65l0,.09c0,.16.09.32.15.49a9.5,9.5,0,0,0,.5,1.17,7.47,7.47,0,0,0,.47.75,5.38,5.38,0,0,0,.65.74v0a4.06,4.06,0,0,0,1.2.75l.16,0,.17,0a2.66,2.66,0,0,0,.84.07,2.78,2.78,0,0,0,.88-.2h0a3.52,3.52,0,0,0,.39-.17h0c.07,0,.22-.12.38-.23a2,2,0,0,0,.25-.18A2.72,2.72,0,0,0,21,57.4a1.59,1.59,0,0,0,.27-.79,2.45,2.45,0,0,0-.11-.87,4.06,4.06,0,0,0-.38-.83"/><path d="M17.23,52.54c0-.14.11-.54.14-.66v0a4.4,4.4,0,0,1,.24-.75q.09-.23.18-.42c.07-.14.18-.32.32-.55l0,0a5.14,5.14,0,0,1,.87-1,1.78,1.78,0,0,1,.31-.23l0,0a3.28,3.28,0,0,1,.52-.27l.19-.07-.19-.08a3.6,3.6,0,0,0-1-.3h0l-.16,0h-.19a2.22,2.22,0,0,0-.37,0,1.39,1.39,0,0,0-.51.19,2.17,2.17,0,0,0-.44.34,1.37,1.37,0,0,0-.19.22,2.07,2.07,0,0,0-.17.24,7.5,7.5,0,0,0-.6,1.07,10,10,0,0,0-.37,1.13s-.11.61-.13.85,0,.56,0,.79v.13c0,.27,0,.44.07.64s0,.24.07.37a5.25,5.25,0,0,0,.25.84,7.54,7.54,0,0,0,.34.74,1.44,1.44,0,0,0,.15.26l0,.05a3.83,3.83,0,0,0,.33.46,2.69,2.69,0,0,0,.44.45h0l.12.09.11.08.25.14.31.14.24.09a3.29,3.29,0,0,0,.53.1,1.82,1.82,0,0,0,.62,0,1.15,1.15,0,0,0,.31-.11l.06,0,.14-.08a1.29,1.29,0,0,0,.36-.41,1.56,1.56,0,0,0,.2-.57,2.1,2.1,0,0,0,0-.56,2.07,2.07,0,0,0-.16-.52,5.3,5.3,0,0,0-.45-.71c-.1-.13-.25-.31-.4-.47l0,0a6.81,6.81,0,0,1,.69,1.1,1.8,1.8,0,0,1,.15.49.92.92,0,0,1-.05.55.9.9,0,0,1-.36.42,2.39,2.39,0,0,1-.44.24l-.28.09-.23,0h-.29a1,1,0,0,1-.24-.06,1.44,1.44,0,0,1-.37-.19l-.15-.13a1.85,1.85,0,0,1-.29-.33l-.08-.12-.1-.18a3.37,3.37,0,0,1-.23-.54,1.3,1.3,0,0,1-.07-.22c0-.13-.07-.27-.1-.42l-.06-.37c0-.09,0-.18,0-.3a.54.54,0,0,1,0-.19h0c0-.18,0-.37,0-.56,0-.39.08-.89.08-.9"/><path d="M35.67,55.23a7.58,7.58,0,0,1,.69-1.1l0,0c-.15.16-.29.34-.4.47a4.73,4.73,0,0,0-.45.71h0a2.07,2.07,0,0,0-.16.52,2.1,2.1,0,0,0,0,.56,1.5,1.5,0,0,0,.2.57,1.29,1.29,0,0,0,.36.41l.14.08.06,0a1.21,1.21,0,0,0,.32.11,1.75,1.75,0,0,0,.61,0,3.1,3.1,0,0,0,.53-.1l.25-.09a3,3,0,0,0,.3-.14l.25-.14.11-.08.12-.09h0a3.78,3.78,0,0,0,.44-.45,5.33,5.33,0,0,0,.32-.46l0-.05a1.59,1.59,0,0,0,.15-.25c.12-.23.22-.46.34-.75a5.25,5.25,0,0,0,.25-.84c0-.13.05-.25.07-.37s.05-.37.07-.63V53a6.77,6.77,0,0,0,0-.78c0-.24-.13-.82-.13-.85a10,10,0,0,0-.37-1.13,7.5,7.5,0,0,0-.6-1.07L39,48.91a1.9,1.9,0,0,0-.19-.21,2.59,2.59,0,0,0-.44-.35,1.6,1.6,0,0,0-.51-.18,2.09,2.09,0,0,0-.56,0l-.16,0h0a3.71,3.71,0,0,0-1,.3l-.19.08.19.06a5.21,5.21,0,0,1,.52.28l0,0a1.78,1.78,0,0,1,.31.23,5.14,5.14,0,0,1,.87,1l0,0c.14.24.25.42.32.56s.12.27.18.42a5.88,5.88,0,0,1,.25.75v0s.11.51.14.67.06.51.08.9c0,.19,0,.38,0,.56h0a.66.66,0,0,1,0,.2c0,.11,0,.2,0,.29l-.06.37c0,.15-.06.29-.1.42a1.3,1.3,0,0,1-.07.22,3,3,0,0,1-.23.55,1.06,1.06,0,0,1-.1.17.83.83,0,0,1-.08.12,1.53,1.53,0,0,1-.29.33h0l-.15.13a1.44,1.44,0,0,1-.37.19,1,1,0,0,1-.23.06h-.3l-.23,0-.28-.09a2.76,2.76,0,0,1-.44-.24.9.9,0,0,1-.36-.42.92.92,0,0,1,0-.55,1.8,1.8,0,0,1,.15-.49"/><path d="M41.14,49.11a8.42,8.42,0,0,0-.68-1.21l-.27-.35a8.54,8.54,0,0,0-1.5-1.39,9.71,9.71,0,0,0-1.4-.85,6.34,6.34,0,0,0-.72-.3,4.15,4.15,0,0,0-1-.22h0a3.48,3.48,0,0,0-1,0,4.46,4.46,0,0,0-.7.17c-.14,0-1.33.55-1.68.75l-.31.18-.18.11c-.34.21-.7.44-1.09.72l-.34.24-.48.36h0l-.6.44,0,.35c0,.14,0,.29.07.44a4.68,4.68,0,0,0,.28.87,3.36,3.36,0,0,0,.47.77,2.6,2.6,0,0,0,.67.57,2.56,2.56,0,0,0,.83.29,3.42,3.42,0,0,0,.44,0,2,2,0,0,0,.43-.05,2.58,2.58,0,0,0,.88-.51,5.84,5.84,0,0,0,.52-.55l.27-.34.34-.39a2.88,2.88,0,0,1,.35-.35,3.29,3.29,0,0,1,.37-.27,3.37,3.37,0,0,1,.38-.3,4,4,0,0,1,1.91-.7,2.61,2.61,0,0,1,.63,0,2.41,2.41,0,0,1,.65.24,1.73,1.73,0,0,1,.28.19l.16.13.11.11a4.66,4.66,0,0,1,.41.52A7.11,7.11,0,0,1,40.21,50s.31.85.39,1.24c0,0,.12.73.14,1a7.3,7.3,0,0,1,0,.81s-.05.52-.09.74a6.84,6.84,0,0,1-.82,2.22l-.09.16,0,0c-.12.18-.43.57-.48.62a3.19,3.19,0,0,1-.38.36l-.27.2-.29.16a1.73,1.73,0,0,1-.31.14l-.06,0-.25.08a4,4,0,0,1-.58.11h0a2.31,2.31,0,0,1-.73,0,1.58,1.58,0,0,1-.48-.2.42.42,0,0,1-.14-.09,1.53,1.53,0,0,1-.46-.52,2,2,0,0,1-.22-.7,2.42,2.42,0,0,1,0-.6,2.69,2.69,0,0,1,.58-1.28h0c.11-.16.39-.49.62-.75l0,0a3.51,3.51,0,0,0-.5.47,5.81,5.81,0,0,0-.55.73,4.68,4.68,0,0,0-.38.83,2.45,2.45,0,0,0-.11.87,1.7,1.7,0,0,0,.27.79,2.28,2.28,0,0,0,.37.41l.25.2.38.22,0,0,.39.17a2.94,2.94,0,0,0,.89.2,2.66,2.66,0,0,0,.84-.07l.17,0,.16,0a4.06,4.06,0,0,0,1.2-.75v0a4.79,4.79,0,0,0,.65-.74,6.79,6.79,0,0,0,.47-.74,10.27,10.27,0,0,0,.5-1.18c.06-.17.11-.33.15-.49l0-.09a4.66,4.66,0,0,0,.14-.65,9.91,9.91,0,0,0,.12-1.08c0-.05,0-.23,0-.39s0-.68,0-.86,0-.07,0-.11h0a7,7,0,0,0-.6-2.24"/><path d="M10.47,13.77a.29.29,0,0,1,0,.41.29.29,0,0,1-.43-.4.29.29,0,0,1,.41,0"/><path d="M14.08,9.59a.62.62,0,0,1,0,.75.64.64,0,0,1,.84.22c.27.37.12.82-.38,1.19l-1,.74-1.56-2.17,1-.71c.48-.35.93-.35,1.17,0m-.44.45c-.11-.15-.28-.15-.46,0l-.49.35.35.47.48-.34c.18-.14.23-.31.12-.46m.7.82c-.11-.16-.32-.15-.55,0l-.48.34.37.52.48-.35c.23-.17.3-.36.18-.53"/><polygon points="16.85 7.28 17.08 7.72 15.81 8.38 16.08 8.9 17.22 8.3 17.45 8.74 16.31 9.34 16.59 9.86 17.89 9.18 18.12 9.63 16.28 10.59 15.05 8.22 16.85 7.28"/><polygon points="20.21 5.97 20.37 6.45 19.02 6.92 19.22 7.47 20.43 7.04 20.6 7.51 19.39 7.94 19.59 8.5 20.97 8.01 21.14 8.48 19.18 9.17 18.29 6.65 20.21 5.97"/><path d="M23.85,7.85l-.56-.67h-.06l-.54.11.15.75-.59.12-.53-2.62,1.14-.23c.68-.13,1.14.12,1.25.7a.87.87,0,0,1-.32.94l.73.75Zm-1.26-1,.54-.11c.33-.07.49-.25.43-.55s-.28-.4-.61-.34l-.54.11Z"/><polygon points="28.18 4.82 28.14 5.94 29.35 5.98 29.39 4.87 29.99 4.89 29.9 7.56 29.3 7.54 29.33 6.48 28.12 6.44 28.09 7.49 27.48 7.47 27.58 4.8 28.18 4.82"/><path d="M34,6.92a1.43,1.43,0,0,1-2.81-.56A1.43,1.43,0,0,1,34,6.92m-2.21-.44a.83.83,0,0,0,.65,1,.81.81,0,0,0,1-.66.8.8,0,0,0-.63-1,.82.82,0,0,0-1,.65"/><path d="M36.05,8.48a.57.57,0,0,0,.78-.38l.54-1.45.56.21-.54,1.45A1.08,1.08,0,0,1,35.87,9a1.11,1.11,0,0,1-.74-1.5L35.67,6l.57.21L35.7,7.68a.58.58,0,0,0,.35.8"/><path d="M40,8.41c-.18-.09-.34-.1-.41,0-.23.43,1.15.87.69,1.72-.25.45-.79.49-1.31.2a1.91,1.91,0,0,1-.83-.93l.45-.32a1.54,1.54,0,0,0,.64.8c.21.12.39.11.47,0,.24-.44-1.15-.87-.7-1.7.23-.42.74-.49,1.29-.2a1.91,1.91,0,0,1,.75.74l-.44.33a2,2,0,0,0-.6-.64"/><polygon points="44.01 10.51 43.71 10.91 42.56 10.06 42.22 10.53 43.25 11.29 42.95 11.69 41.92 10.93 41.57 11.4 42.75 12.28 42.45 12.68 40.78 11.45 42.37 9.3 44.01 10.51"/><path d="M45.75,14.33a.29.29,0,0,1-.41,0,.3.3,0,1,1,.41,0"/></g></g></svg>