<svg xmlns="http://www.w3.org/2000/svg" viewBox="0 0 88.14 47.27"><g id="Capa_2" data-name="Capa 2"><g id="Capa_1-2" data-name="Capa 1"><path d="M19.31,16.55c-3.37.61-6.75,1.2-10.12,1.77-.49.08-.62.26-.46.7A5.75,5.75,0,0,1,9,21.59c-.17,1.92-.32,3.85-.51,5.77-.18,1.76-.08,3.59-1.24,5.13a.84.84,0,0,0,0,1,3.19,3.19,0,0,1,.46,2.17c-.2,2.34-.41,4.68-.6,7a11,11,0,0,1-.88,4.15,1.42,1.42,0,0,0-.05.42h.11a.76.76,0,0,1,.18-.09c3.52-.62,7-1.26,10.55-1.85a3.41,3.41,0,0,0,2.63-2.9c.14-2.7.45-5.39.69-8.09.09-1.08.18-2.16.23-3.24a1.78,1.78,0,0,0-1-1.9c-.29-.13-.12-.28-.05-.42.37-.76.74-1.52,1.12-2.28A4.27,4.27,0,0,0,21.14,25q.28-3.19.56-6.37C21.83,17,21,16.26,19.31,16.55ZM15.7,36.36c-.13,1.46-.28,2.91-.39,4.37,0,.35-.14.44-.47.49-.92.14-1.84.32-2.77.5-.28.05-.42,0-.38-.33q.38-4.17.72-8.36c0-.28.11-.39.4-.44,1.07-.17,2.13-.37,3.26-.57C15.94,33.52,15.82,34.94,15.7,36.36ZM17,21.78c-.12,1.08-.17,2.16-.3,3.23A9.88,9.88,0,0,1,16,26.69a1.5,1.5,0,0,1-1.56,1.17,3.78,3.78,0,0,0-1,.16c-.48.14-.7.05-.56-.42.16-1.77.31-3.48.44-5.18,0-.24.1-.35.34-.39l3-.53C16.9,21.46,17,21.47,17,21.78Z"/><path d="M4.33,33.27c-.33.1-.68.1-1,.2s-.4,0-.42-.33a4.71,4.71,0,0,1,.62-2.43.34.34,0,0,0-.09-.5c-.17-.14-.3-.17-.46,0A7,7,0,0,0,.3,34.72,8.18,8.18,0,0,1,0,37.08v1.41l4.1-.71c.29-.05.43-.15.46-.47.08-1.17.19-2.34.31-3.51C4.92,33.36,4.88,33.1,4.33,33.27Z"/><path d="M87.75,14c-1.29.25-2.58.48-3.88.7a.38.38,0,0,0-.36.39c-.11,1.28-.23,2.56-.34,3.83,0,.26,0,.37.33.31.43-.09.86-.14,1.28-.24.27-.06.35,0,.37.28a4.45,4.45,0,0,1-.51,2.29c-.12.26-.32.47,0,.73s.51-.08.66-.22a6.81,6.81,0,0,0,2.5-5,8.42,8.42,0,0,1,.31-2.64v-.22C88,14.15,88,14,87.75,14Z"/><path d="M37.87,22c.2-2.2.41-4.39.59-6.58a1.67,1.67,0,0,0-1.76-1.88,2.09,2.09,0,0,0-.31,0c-2.68.47-5.36.93-8,1.42a3.19,3.19,0,0,0-2.56,2.84c-.22,2.48-.45,5-.65,7.44A7.76,7.76,0,0,1,24,29.5.93.93,0,0,0,24,30.61a3.19,3.19,0,0,1,.45,2.13c-.27,3-.53,6-.8,9a1.76,1.76,0,0,0,2.18,2l7.83-1.38a3.16,3.16,0,0,0,2.65-2.87q.33-3.65.64-7.28c.13-1.51.17-3,1.14-4.33a1.08,1.08,0,0,0,0-1.27,3,3,0,0,1-.44-1.92C37.71,23.81,37.79,22.91,37.87,22ZM33.7,18.89q-.41,4.47-.79,9c-.27,3.11-.55,6.22-.82,9.32a1.22,1.22,0,0,0,0,.27c0,.54-.14.84-.77.89a20.45,20.45,0,0,0-2.56.44c-.32.07-.38,0-.32-.31.34-3.84.69-7.69,1-11.53q.3-3.45.59-6.9c.07-.87.06-.87.87-1s1.64-.28,2.45-.44C33.66,18.51,33.73,18.59,33.7,18.89Z"/><path d="M53.22,10.56q-5.09.91-10.17,1.79c-.44.08-.5.24-.37.61a6,6,0,0,1,.21,2.62c-.17,1.87-.32,3.75-.5,5.61s-.07,3.7-1.26,5.29a.86.86,0,0,0,.06,1,3.14,3.14,0,0,1,.46,2.07c-.12,1.44-.19,2.89-.37,4.32-.3,2.33-.07,4.74-1.11,7-.11.24-.06.36.26.3,1.58-.3,3.16-.56,4.74-.83.3-.05.38-.16.33-.47a12.11,12.11,0,0,1-.1-1.3c0-.45,0-.84.07-1.24.28-3.16.56-6.33.82-9.49.1-1.17.08-1.17,1.21-1.39a1.1,1.1,0,0,0,.26-.06c.35-.09.49,0,.5.39.07,2.29.23,4.58.27,6.88,0,1.91.45,3.85-.27,5.74-.13.36.11.32.35.28,1.62-.28,3.23-.58,4.85-.84.41-.06.48-.23.31-.57a5.56,5.56,0,0,1-.53-2.08c-.18-3.77-.35-7.54-.53-11.31a1.52,1.52,0,0,1,.16-.78c.62-1.28,1.22-2.56,1.83-3.85a3.61,3.61,0,0,0,.4-1.28c.18-2.05.35-4.1.54-6.15C55.81,11.05,54.94,10.25,53.22,10.56ZM50.87,16a2.28,2.28,0,0,0,0,.27h0c-.07.9-.1,1.8-.24,2.69a10.94,10.94,0,0,1-.88,2,1,1,0,0,1-1,.76,8.48,8.48,0,0,0-1.49.27c-.4.09-.47,0-.44-.42.17-1.73.32-3.46.46-5.18,0-.26.1-.37.37-.41.91-.15,1.82-.31,2.72-.49C50.84,15.42,51,15.54,50.87,16Z"/><path d="M81,8.15a1.72,1.72,0,0,0-2.26-2L71.07,7.48a3.24,3.24,0,0,0-2.78,3.12c-.13,1.82-.24,3.64-.49,5.45A2.63,2.63,0,0,0,69,19a2.66,2.66,0,0,1,1.25,1.59,1.41,1.41,0,0,0,.93,1,11.29,11.29,0,0,1,3.73,2.45.63.63,0,0,1,.25.6q-.27,2.82-.5,5.66c0,.29-.15.36-.38.4-.94.15-1.89.3-2.82.5-.39.08-.46,0-.42-.38.13-1.24.22-2.49.34-3.73,0-.25,0-.39-.33-.32-1.42.26-2.84.52-4.26.74-.51.08-.58.28-.42.71a6.27,6.27,0,0,1,.19,2.79c-.11,1.09-.21,2.19-.27,3.29a1.64,1.64,0,0,0,2.06,1.88c2.69-.44,5.37-.92,8-1.41a3.1,3.1,0,0,0,2.58-2.92c.11-1.46.26-2.92.39-4.37s.24-2.63.34-3.94a2,2,0,0,0-.76-1.92,1.53,1.53,0,0,1-.62-1,1.06,1.06,0,0,0-.77-.89A10,10,0,0,1,75,18.36c-.84-.68-1.67-1.39-2.51-2.07a.56.56,0,0,1-.2-.57L72.64,12c0-.18,0-.3.26-.34L76,11.07c.24,0,.31,0,.28.28-.09.85-.16,1.69-.23,2.54-.09,1-.18,2.08-.27,3.15,1.58-.28,3.1-.56,4.63-.8.46-.07.57-.26.41-.67A6,6,0,0,1,80.58,13C80.72,11.35,80.87,9.75,81,8.15Z"/><path d="M64.47,8.59c-1.58.28-3.16.59-4.74.84-.45.07-.51.25-.38.6a5.55,5.55,0,0,1,.25,2.46c-.21,2.44-.44,4.88-.64,7.33a6.47,6.47,0,0,1-1,3.52,1,1,0,0,0,0,1.27,3,3,0,0,1,.45,1.91c-.08,1-.12,2-.26,3-.39,2.8-.07,5.71-1.24,8.4-.11.25-.11.4.27.32,1.59-.3,3.19-.58,4.79-.83.51-.08.63-.28.46-.74a5.47,5.47,0,0,1-.22-2.51c.17-2,.32-3.92.52-5.87.17-1.73.08-3.52,1.21-5a.87.87,0,0,0,0-1A3.22,3.22,0,0,1,63.41,20q.29-3.42.58-6.85A11,11,0,0,1,64.84,9C65.09,8.49,64.79,8.53,64.47,8.59Z"/><path d="M51.85,8a.74.74,0,0,0,.54-.73c.07-.83.15-1.65.21-2.48,0-.43.25-.9-.19-1.26,0,0,0-.14,0-.19A5.4,5.4,0,0,0,53,.79c.08-.65-.1-.86-.73-.77-.89.13-1.77.3-2.66.45-.19,0-.29.11-.21.33a2.78,2.78,0,0,1,0,.91C49.44,3,49,4.13,49,5.39a9,9,0,0,1-.38,3.22C49.74,8.41,50.8,8.24,51.85,8Zm-1.2-6.26c.09-.41.52-.28.8-.32s.13.25.15.39a1.54,1.54,0,0,1,0,.48c-.13.52-.32,1-1.06.91A11.48,11.48,0,0,1,50.65,1.75Zm-.27,3a.28.28,0,0,1,.28-.26l.73-.11-.21,2.37c0,.2-.17.19-.31.21l-.7.12C50.25,6.27,50.32,5.51,50.38,4.74Z"/><path d="M44.63,9.21c.71-.11,1.42-.25,2.13-.38a.86.86,0,0,0,.79-.89c0-1.39.43-2.72.4-4.12A10.12,10.12,0,0,1,48.32.66L47.7.77c-.28,0-.62,0-.83.17s0,.52,0,.8a2,2,0,0,0,0,.43c-.14,1.49-.28,3-.4,4.47-.08,1-.06,1-1,1.14,0,0-.06,0-.14-.06.27-2.18.31-4.39.68-6.65-.44.08-.87.17-1.29.23-.19,0-.2.1-.2.28a9.38,9.38,0,0,1-.41,3.61.4.4,0,0,0,0,.37,1.43,1.43,0,0,1,.09.89c-.07.7-.12,1.41-.17,2.11C43.94,9.1,44.12,9.29,44.63,9.21Z"/><path d="M38.11,2.42l-2.45.43c-.29,0-.51.11-.35.51a2,2,0,0,1,0,.64c.05,1.28-.42,2.49-.37,3.79a9.89,9.89,0,0,1-.37,3.2c1.07-.2,2.1-.37,3.12-.58a.8.8,0,0,0,.62-.74,7,7,0,0,1,.31-1.88l-.26,0c-.3.05-.61.11-.91.14s-.4.15-.35.49c.11.8,0,.83-.66,1-.34.07-.35-.07-.32-.33.14-1.62.29-3.23.42-4.85,0-.2.08-.32.29-.31s.51-.22.66,0,0,.47-.07.71l-.11.32,1.35-.23c.15,0,.28,0,.22-.27a3,3,0,0,1,0-1.23C39,2.54,38.72,2.32,38.11,2.42Z"/><path d="M42.15,9.72c.57-.08,1.06-.14.8-.91a.29.29,0,0,1,0-.16c.08-.3-.07-.34-.31-.29-.52.1-1,.17-1.54.28-.28.07-.41,0-.36-.29A5.92,5.92,0,0,1,41.16,6a.29.29,0,0,0,0-.31,1.36,1.36,0,0,1-.09-.89,15.77,15.77,0,0,1,.37-2.92l-1.33.24c-.19,0-.2.11-.2.28a9.44,9.44,0,0,1-.42,3.66.49.49,0,0,0,0,.27,12.34,12.34,0,0,1-.21,3.86C40.2,10.05,41.17,9.86,42.15,9.72Z"/></g></g></svg>