<svg xmlns="http://www.w3.org/2000/svg" viewBox="0 0 51.2 51.3"><g id="Capa_2" data-name="Capa 2"><g id="Capa_1-2" data-name="Capa 1"><path d="M27.8,0a18.46,18.46,0,0,1,2.3.4,23.07,23.07,0,0,1,8.7,3.3A25.5,25.5,0,0,1,49.7,17a25.81,25.81,0,0,1,1.4,6.7.6.6,0,0,0,.1.4v3c-.1.4-.1.9-.2,1.3a25.16,25.16,0,0,1-8,15.9,25.36,25.36,0,0,1-11.5,6.2,30.74,30.74,0,0,1-5.3.7.6.6,0,0,0-.4.1h-.5c-.9-.1-1.9-.1-2.8-.2A24.92,24.92,0,0,1,6.7,42.9a25,25,0,0,1-6-11.5C.4,30.1.3,28.7.1,27.3a.9.9,0,0,0-.1-.5V24.5c.1-.7.1-1.4.2-2.1a26.09,26.09,0,0,1,2.2-7.7A24.46,24.46,0,0,1,9.1,6.1,25.62,25.62,0,0,1,20.2.7,25.35,25.35,0,0,1,23.1.3a.37.37,0,0,0,.3-.1A33.14,33.14,0,0,1,27.8,0ZM25.7.8A24.7,24.7,0,1,0,50.4,25.6,24.67,24.67,0,0,0,25.7.8Z"/><path d="M25.6,1A24.45,24.45,0,1,1,1.1,25.4,24.45,24.45,0,0,1,25.6,1Zm0,48.6a24,24,0,0,0,24.1-24A23.9,23.9,0,0,0,26.1,1.4a24.1,24.1,0,1,0-.5,48.2Z"/><path d="M34.6,24.3A4.38,4.38,0,0,1,32.3,26a2.15,2.15,0,0,0-1.2.9,3.09,3.09,0,0,1-3.5,1.3c-.1,0-.2-.1-.3-.1s-.1-.1-.2-.2c.3.1.5.1.8.2a3.4,3.4,0,0,0,3.3-1.6,3.11,3.11,0,0,1,.9-.7,4.63,4.63,0,0,0,2.4-1.7.6.6,0,0,0,.1-.4,5,5,0,0,1-2.1,1.7,3.81,3.81,0,0,0-1.9,1.4,3.1,3.1,0,0,1-3.4,1,1.08,1.08,0,0,1-.9-.8,1.31,1.31,0,0,1,.6-1.2l.6-.3a1.38,1.38,0,0,1-.4-.3,2.39,2.39,0,0,0,2.3-.5c.6-.5,1.5-.7,1.9-1.4a.1.1,0,0,0-.1-.1c-.1.1-.3.1-.4.2a19.92,19.92,0,0,1-1.9,1.2,2.84,2.84,0,0,1-1.3.4c-.9.1-1.3-.5-1.5-1.3-.8.5-1.5.9-2.2,1.4a1.8,1.8,0,0,1-1.6.2,3.6,3.6,0,0,0,2.2-.7,11.8,11.8,0,0,0,1.8-1.3l-.1-.1c-.6.4-1.3.8-1.9,1.2a3.7,3.7,0,0,1-1.1.5c-.7.2-1.4.2-1.6-.8-1.1.4-1.9,1.6-3.3,1.2a3.29,3.29,0,0,0,1.9-.6,4.81,4.81,0,0,0,1.6-1.2l-.1-.1a4.35,4.35,0,0,1-.7.4,19.83,19.83,0,0,1-2,1.1,1.06,1.06,0,0,1-1.5-.5c-.7.4-1.3,1-2.1,1h-.3c.5-.2,1-.3,1.4-.5a1.59,1.59,0,0,0,1-1.1,5,5,0,0,1-1.2.8c-.4.2-.9.5-1.3.4a1.91,1.91,0,0,0-1.3.2,2.19,2.19,0,0,1-1.6.1v-.1a2.15,2.15,0,0,0,.8,0,6.12,6.12,0,0,0,1.2-.5c.1-.1.1-.2.2-.4a.1.1,0,0,1-.1-.1c-.1.1-.3.2-.4.3a2.32,2.32,0,0,1-1.8.4,1,1,0,0,1-.7-1.1A4.8,4.8,0,0,1,15,19.9a1.49,1.49,0,0,1,1.4.4,1.06,1.06,0,0,1,1.4-.2,4.35,4.35,0,0,0-.4.7c-.5.8-1,1.5-1.5,2.3a1.48,1.48,0,0,0-.1.7c.3-.6.7-1.1,1-1.7s.7-1.1,1.1-1.6l.1.1c-.7,1.1-1.4,2.1-2.1,3.2l.1.1c.3-.2.6-.3.9-.5a5.2,5.2,0,0,0,2-2.4c.8-1.3,1.5-2.6,2.3-3.8a3.94,3.94,0,0,1,1.9-1.7c.1,0,.3-.1.4-.1.4,0,.7.3.6.6s-.3.5-.7.5a.57.57,0,0,0-.6.4c-1.2,2-2.3,4-3.5,6a4.35,4.35,0,0,0-.4.7l.1.1c.1-.1.2-.1.3-.3.8-1.4,1.7-2.7,2.5-4.1.5-.8.9-1.5,1.3-2.3.1-.1.3-.3.4-.2a1,1,0,0,0,.9-.4c.1.4-.1.6-.5.6a.89.89,0,0,0-.8.5c-1.2,2-2.3,4-3.5,6a.31.31,0,0,1-.1.2c.2-.1.4-.1.6-.2.7-.3,1.3-.7,2-1a1.38,1.38,0,0,0,.3-.4c1-1.7,2-3.3,3-5a3.05,3.05,0,0,1,1.9-1.6,1.7,1.7,0,0,1,.7.1.68.68,0,0,1,.3.5c0,.2-.3.4-.5.4-.5-.1-.7.3-.9.6-1.2,2.1-2.4,4.1-3.6,6.2a.37.37,0,0,0-.1.3l.1.1c.1-.1.2-.1.2-.2.5-.9,1.1-1.7,1.6-2.6.7-1.2,1.4-2.5,2.1-3.8a.6.6,0,0,1,.6-.3c.3,0,.5-.2.8-.3,0,.3-.1.5-.5.4a.89.89,0,0,0-.8.5c-1.1,2-2.3,4-3.5,6,0,.1-.1.2-.1.3a6.94,6.94,0,0,1,1.3-.5c.2-.1.3-.2.5-.3a3.48,3.48,0,0,0,1.3-1.1A4,4,0,0,1,29.4,20a1.74,1.74,0,0,1,1.4.3c.4.3.5.6.2,1a2.79,2.79,0,0,1-2.4,1.5.73.73,0,0,0-.6.2,1.09,1.09,0,0,0-.2,1.1,4.88,4.88,0,0,1,.3-.7c.1-.1.2-.3.4-.3a3,3,0,0,0,2.9-1.8c-.1.2-.2.5-.3.7a2.75,2.75,0,0,1-2.2,1.2c-.6,0-.8.2-.8.9.2-.1.4-.1.6-.2.9-.4,1.9-.9,2.8-1.3.2-.1.3-.3.4-.4a10.93,10.93,0,0,0,.8-1.5,1.29,1.29,0,0,1,1.4-.8.89.89,0,0,0,1-.6c.1.4,0,.6-.6.8-.5.8-.9,1.6-1.4,2.5s-.9,1.6-1.3,2.4l.1.1c.1-.1.3-.3.3-.4.7-1.2,1.4-2.5,2.1-3.7.1-.1.1-.2.2-.3a.1.1,0,0,1,.1.1c-.8,1.3-1.5,2.7-2.3,4l.1.1a6.07,6.07,0,0,0,1-.7,10.92,10.92,0,0,0,1.3-1.7,3.75,3.75,0,0,1,2.7-2c1.5-.2,2.6.6,2.1,2.3-.1.3-.3.6-.4.9.4,0,.5-.3.8-1.6v.7a1.85,1.85,0,0,1-.2.7.75.75,0,0,0,.7-.6c.3-.7.7-1.4,1-2.1.2-.3.4-.5.7-.5.5,0,.7.1.5.6l1.5-.6a3.35,3.35,0,0,1,1,0,.68.68,0,0,1,.5,1.1c-.4.6-.8,1.1-1.1,1.6a1.49,1.49,0,0,0-.2.9c0,.1.1.1.1.3.1-1.3,1.1-2,1.6-3h.1l-.3.6c-.3.5-.7.9-1,1.4-.2.2-.2.5-.4.9,1.2-.2,1.8-1.2,2.6-1.6a.1.1,0,0,1,.1.1.37.37,0,0,1-.1.3,17,17,0,0,1-1.9,1.9,2.19,2.19,0,0,1-.5.3,1.23,1.23,0,0,1-1.8-1.3,4.55,4.55,0,0,1,.8-1.9l.3-.3a.1.1,0,0,0-.1-.1l-.6.3a6.21,6.21,0,0,0-2.1,2.7c-.1.2-.1.3-.2.5-.3.7-.5.8-1.3.5h.5a.55.55,0,0,0,.6-.4,12.68,12.68,0,0,1,1.8-2.9,3.66,3.66,0,0,1,1.6-1v-.1h-.5a4.57,4.57,0,0,0-1.7,1.4,17.1,17.1,0,0,0-1.3,2.3,1.1,1.1,0,0,1-1.2.3c-.1,0-.1-.2-.1-.2s.1-.2.2-.5a5.17,5.17,0,0,0-1.3.6,3.17,3.17,0,0,1-3,.2h1.9a.37.37,0,0,0,.3-.1,14.17,14.17,0,0,1,1.8-.8c.2,0,.3-.2.5-.3a.1.1,0,0,0-.1-.1c-.1,0-.2,0-.2.1a18.94,18.94,0,0,0-2.1.9,2.33,2.33,0,0,1-2,.2C35.3,24.8,35,24.6,34.6,24.3ZM38.9,21c-.1-.1-.2-.3-.4-.3a1.24,1.24,0,0,0-1.4.3,2.75,2.75,0,0,0-1,1.9c0,.2.1.4.1.6h.1a2.65,2.65,0,0,1,.8-2.1,1.27,1.27,0,0,1,1.6-.3,2.33,2.33,0,0,0-2.4,2.2c0,.4.1.6.5.6a1.27,1.27,0,0,0,.6-.1,1.22,1.22,0,0,1,.1-1.6,1.5,1.5,0,0,1,1.5-.6C39,21.3,38.9,21.2,38.9,21Zm-23.5.5a4.31,4.31,0,0,0-2,2.4A7.55,7.55,0,0,0,15.4,21.5Zm.2-.4c-.5-.2-1.1.2-1.8,1.1s-.9,1.4-.6,1.7A4.73,4.73,0,0,1,15.6,21.1Zm13.4,4c1.1.1,1.5-.2,1.6-1C30.1,24.4,29.6,24.7,29,25.1Zm.6.9v-.2a9,9,0,0,0-1.6.3c-.3.1-.5.3-.2.6C28.2,26,29,26.4,29.6,26Zm-1.7.8a1.05,1.05,0,0,0,1.4-.5C28.8,26.4,28.2,26.3,27.9,26.8Zm2-6.1A2.1,2.1,0,0,0,28.6,22a6.42,6.42,0,0,0,1.3-1C30,20.9,29.9,20.8,29.9,20.7Zm9,1.5c-.7.1-1,.4-.8.8Z"/><path d="M5.9,22.7c-.3-1.7.6-2.8,1.9-3.8a5.6,5.6,0,0,1,2.4-1c.1,0,.2-.1.3-.2a5,5,0,0,0-2.6.8,4.56,4.56,0,0,0-2.2,2.7A2.24,2.24,0,0,0,5.8,23c.4.7,1.2.7,1.9.6.5-.1,1-.3,1.5-.4.1,0,.2-.2.2-.3,0-.4.2-.5.6-.5s.7.2.6.6a2.12,2.12,0,0,1-.3.7A5,5,0,0,1,5.1,25a2,2,0,0,1-1.2-1.9,5.39,5.39,0,0,1,1.3-3.5A7.63,7.63,0,0,1,9.9,17a4.82,4.82,0,0,1,1.2,0c.2,0,.3.1.5.2s.6.4.5.8a.66.66,0,0,1-.4.5.77.77,0,0,1-1-.1c-.2-.3-.5-.2-.7-.2a6.25,6.25,0,0,0-3.2,1.9A3.2,3.2,0,0,0,5.9,22.7Z"/><path d="M19.7,35.9a14.63,14.63,0,0,1,.9,1.3c-.4.2-.6.1-.9-.3l-.6-.9v-.1c.4-.1.7-.3.6-.7s-.4-.4-.7-.3v2c0,.1.2.2.3.3H18.2c.5-.3.3-.8.3-1.3a1.59,1.59,0,0,0-.3-1.3,10.82,10.82,0,0,1,1.8,0,.53.53,0,0,1,.2.9A1.76,1.76,0,0,1,19.7,35.9Z"/><path d="M32.3,35.9c.5-.2.7-.4.6-.8s-.2-.3-.7-.3v2c0,.1.2.2.3.4H31.4a2.75,2.75,0,0,0,0-2.5,10.82,10.82,0,0,1,1.8,0c.4,0,.5.6.1,1a1.38,1.38,0,0,1-.4.3c.3.4.6.9.9,1.3-.5.1-.6.1-.9-.3A6.4,6.4,0,0,1,32.3,35.9Z"/><path d="M29.8,37.1c.4-.1.9.2,1.2-.4v.6H29.3a5.65,5.65,0,0,0,0-1.3c0-.4.2-.9-.4-1.3h2a1.49,1.49,0,0,1-.1.6c-.3-.7-.7-.4-1.1-.4v1c.3-.1.6-.1.8-.2v.6c-.2-.4-.5-.3-.8-.3A4.1,4.1,0,0,1,29.8,37.1Z"/><path d="M38.2,37.2h-1a4.33,4.33,0,0,1,.1-.5c-.2-.5-.6-.2-.9-.3s-.3.2-.3.4.1.2.1.4h-.7c.5-.4.5-1,.8-1.5.1-.3.2-.5.3-.8a.22.22,0,0,1,.2-.2l.3.3c.3.6.5,1.2.8,1.8C37.9,36.9,38.1,37,38.2,37.2Zm-1.1-1a3.55,3.55,0,0,0-.4-.9c-.1.3-.3.6-.4.9Z"/><path d="M17.8,36.7v.6H16c.3-.6.2-2.3-.2-2.5h2v.5c-.3-.5-.7-.2-1.1-.4a2,2,0,0,0,.1.9.55.55,0,0,0,.8-.2v.9c-.2-.5-.5-.4-.9-.4v1C17.4,37.1,17.6,37.1,17.8,36.7Z"/><path d="M25.6,35.5v.7c-.2-.4-.5-.3-.8-.3v1c.8.1.9.1,1.1-.4v.7H24.1a4.27,4.27,0,0,0-.1-2.5h1.9c0,.2-.1.3-.1.5-.3-.3-.4-.4-1.1-.3a1.49,1.49,0,0,0,.2.9C24.9,35.9,25.4,35.8,25.6,35.5Z"/><path d="M22.3,36.6c.1-.3.2-.5.3-.8a3.55,3.55,0,0,1,.4-.9c-.1-.1-.2-.1-.4-.2h.8c-.3.7-.6,1.4-.9,2a2.09,2.09,0,0,1-.4.6c-.1-.2-.3-.4-.3-.5l-.6-1.5a2.09,2.09,0,0,0-.4-.6h1.1c-.3.1-.2.4-.1.6C22,35.7,22.1,36.1,22.3,36.6Z"/><path d="M15.5,34.8c0,.2-.1.4-.1.6a.91.91,0,0,0-1.2-.5,1,1,0,0,0-.6,1.1c.1.6.4,1,.9,1,.3,0,.6-.1.9-.1-.2.4-1.1.5-1.7.2a1.32,1.32,0,0,1-.6-1.7C13.4,34.7,14.4,34.4,15.5,34.8Z"/><path d="M28.7,34.8a4.33,4.33,0,0,1-.1.5c-.2-.1-.3-.4-.5-.4s-.5,0-.7,0a1,1,0,0,0-.6,1.2,1.17,1.17,0,0,0,1,1c.3,0,.6-.1.8-.1-.1.3-.9.5-1.5.3a1.26,1.26,0,0,1-.8-1.7C26.5,34.7,27.5,34.4,28.7,34.8Z"/><path d="M33.9,34.7h1.2a1.45,1.45,0,0,0-.2.7v1.4a.76.76,0,0,0,.2.5H34C34.5,36.9,34.5,35,33.9,34.7Z"/><path d="M35,18.9c0,.3-.4.6-.8.6a.68.68,0,0,1-.7-.7c0-.3.4-.6.8-.6A.84.84,0,0,1,35,18.9Z"/><path d="M5.3,25.1c2.2.8,5.1-.5,5.6-2H11c-.1.2-.2.5-.3.7a4.7,4.7,0,0,1-3.1,1.6A3.79,3.79,0,0,1,5.3,25.1Z"/><path d="M39.4,18.1c-.2.5-.4,1-.6,1.4a1.06,1.06,0,0,1-.5.2l-.1-.1c.2-.4.3-.9.5-1.3C38.7,18.2,39,18.2,39.4,18.1Z"/><path d="M43.9,25.3a2.62,2.62,0,0,0,2.5-1.1,10.63,10.63,0,0,0,.9-1.1.77.77,0,0,1,.3-.2.37.37,0,0,1-.1.3,9,9,0,0,1-1.9,2A1.71,1.71,0,0,1,43.9,25.3Z"/><path d="M40.1,36.2c-.2.2-.3.3-.5.3s-.2-.2-.4-.3c.1-.1.2-.3.3-.3C39.8,35.9,39.9,36.1,40.1,36.2Z"/><path d="M12,36.2a.91.91,0,0,1-.5.3.3.3,0,1,1,0-.6C11.6,35.9,11.7,36,12,36.2Z"/><path d="M38.4,19.9c.8-.1.6-1,1.2-1.3-.2.4-.4.9-.6,1.3a.75.75,0,0,1-.5.1C38.4,20,38.4,20,38.4,19.9Z"/><path d="M11.2,18.7a1.07,1.07,0,0,0,1.2-.6.1.1,0,0,1,.1.1,2.19,2.19,0,0,1-.3.5A.9.9,0,0,1,11.2,18.7Z"/><path d="M34.2,34.4c.2-.2.4-.3.5-.5H35a.35.35,0,0,1-.1.2.91.91,0,0,1-.7.3Z"/><path d="M29.9,20.7V21"/></g></g></svg>