<svg xmlns="http://www.w3.org/2000/svg" viewBox="0 0 67.97 52.81"><g id="Capa_2" data-name="Capa 2"><g id="Capa_1-2" data-name="Capa 1"><path d="M3.06,39.16c.9-1.7,1.9-3.3,2.8-5s2-3.5,3-5.2c.2-.4.5-.4.9-.2a49.24,49.24,0,0,0,14.9,4.9,53.29,53.29,0,0,0,12.6.6,48.84,48.84,0,0,0,16-3.5c1.4-.6,2.8-1.3,4.2-1.9.2-.1.4-.1.6-.2.4-.2.6-.1.7.3,1,1.8,2,3.5,3,5.2.8,1.5,1.7,3,2.5,4.5q.45.6-.3.9c-2.5,1.1-4.9,2.2-7.4,3.3a46.17,46.17,0,0,1-9.8,2.9A69.28,69.28,0,0,1,29.16,47,62.87,62.87,0,0,1,10,42.76c-2.3-.9-4.4-2.1-6.7-3.2C3.26,39.26,3.16,39.26,3.06,39.16Zm53.5-4.4a2.18,2.18,0,0,0-2.3,2.2,2.22,2.22,0,0,0,2.2,2.2,2.31,2.31,0,0,0,2.3-2.2A2.16,2.16,0,0,0,56.56,34.76Zm-27.9,5.4h.1c.5.8,1,1.7,1.6,2.5h.1c.1-1.4.2-2.8.3-4.3a1.27,1.27,0,0,1-.6-.1c-.1.8-.1,1.6-.2,2.5-.6-1-1.2-1.8-1.8-2.8-.1,1.6-.2,3-.4,4.5h.6A9.08,9.08,0,0,0,28.66,40.16Zm-15.2-3.3c.4,1.1.7,2.1,1.1,3.2.5-1.5.9-2.9,1.4-4.3-.2-.1-.4-.1-.6-.2-.3.8-.5,1.5-.8,2.4-.4-1.1-.7-2-1-3h-.1c-.4,1.4-.9,2.7-1.3,4.1.2.1.4.1.6.2A9.51,9.51,0,0,1,13.46,36.86Zm28.4,5.5a4.05,4.05,0,0,1-.5-.9.45.45,0,0,1,0-.5,2,2,0,0,0,0-2.1,1.93,1.93,0,0,0-2.2-.5c.1,1.4.3,2.8.4,4.3.3,0,.4-.1.6-.1v-.8c.4-.2.6-.1.8.3S41.36,42.56,41.86,42.36Zm-31.6-8.6c-.4,1-.8,2-1.1,3a1.36,1.36,0,0,0,.8,1.6,1.33,1.33,0,0,0,1.7-.7c.4-.9.7-1.9,1.1-2.9-.2-.1-.4-.1-.6-.2a1.42,1.42,0,0,0-.2.6c-.3.7-.5,1.4-.8,2s-.5.7-.9.5-.5-.5-.3-1c0-.1.1-.2.1-.3.3-.8.6-1.5.9-2.3A2.12,2.12,0,0,0,10.26,33.76Zm15.6,3.9c-.8,1.5-1.6,2.8-2.3,4.2.4.2.7.3.9-.2,0-.1.2-.2.4-.1a4.25,4.25,0,0,1,1.1.2.45.45,0,0,1,.3.3c.1.5.4.5.8.4C26.56,40.76,26.26,39.36,25.86,37.66Zm7.6.9v4.2h.6V42c1.4-.4,1.9-1.2,1.7-2.2S34.76,38.26,33.46,38.56Zm-15.1-2.1c-.3,1.4-.7,2.8-1,4.2.2.1.4.1.6.2a3.09,3.09,0,0,0,.2-.8c1.5-.2,2.1-.7,2.2-1.7S19.66,36.56,18.36,36.46Zm18.3,6.3c.7,0,1.3-.1,2-.1a1.08,1.08,0,0,0-.1-.6h-1.3v-.7c.5,0,.9-.1,1.3-.1v-.6h-1.3c0-.4-.1-.8-.1-1.2,0-.1.2-.3.3-.4a3.4,3.4,0,0,1,1-.1,1.27,1.27,0,0,0-.1-.6c-.7,0-1.3.1-2,.1A30,30,0,0,1,36.66,42.76ZM47.36,41c-.5.1-.9.1-1.3.2a2,2,0,0,1-.1-.7c.5-.1.9-.2,1.3-.3,0-.2-.1-.4-.1-.6-.5.1-.9.1-1.3.2-.1-.5-.2-1-.3-1.6.5-.1.9-.2,1.3-.3,0-.2-.1-.4-.1-.6a14.16,14.16,0,0,0-2,.4c.3,1.4.5,2.8.8,4.3.4-.1.7-.1,1-.2s.6-.1,1-.2C47.46,41.36,47.46,41.16,47.36,41Zm3.1-3.7c0-.7-.1-.7-.6-.7A2.32,2.32,0,0,0,48,38a2,2,0,0,0,.4,2.2,2.17,2.17,0,0,0,2.3.6c.6-.2.7-.3.4-.9-.9.4-1.5.4-2,0a1.42,1.42,0,0,1-.5-1.6C48.86,37.46,49.56,37.26,50.46,37.26Zm-8.3.8c.2,1.5.4,2.9.6,4.3a1.27,1.27,0,0,1,.6-.1c0-.5-.1-.9-.1-1.3.5-.1.9-.1,1.3-.2,0-.2-.1-.4-.1-.6-.4,0-.8.1-1.3.1-.1-.5-.1-1-.2-1.5.5-.1.9-.1,1.3-.2,0-.2-.1-.4-.1-.6A6.73,6.73,0,0,0,42.16,38.06Zm11.5-2.5c-.9.3-1.8.5-2.7.8a4.17,4.17,0,0,0,.2.6c.4-.1.7-.2,1-.3.3,1.2.7,2.3,1,3.5.2-.1.4-.1.6-.2-.3-1.2-.7-2.3-1-3.5.4-.1.7-.2,1-.3C53.76,36,53.66,35.76,53.66,35.56Zm-32.3,1.5c-.3,1.4-.5,2.8-.8,4.2.7.1,1.4.3,2.1.4,0-.3.1-.4.1-.6l-1.5-.3c.2-1.2.4-2.4.7-3.6A1.76,1.76,0,0,1,21.36,37.06Z"/><path d="M60.56,50.26l.3-.6a.61.61,0,0,0-.8.1.61.61,0,0,0,.1.6,1.05,1.05,0,0,0,1.4.1,1.31,1.31,0,0,0,.7-1.2,1.8,1.8,0,0,0-2-1.5c-1.1.1-2.1.3-3.2.5-.9.2-1.7.6-2.6.8a22.11,22.11,0,0,1-2.5.5.1.1,0,0,0-.1.1c-.1,2.6-3.3,3.5-5.1,2.4a1.64,1.64,0,0,0-1.2-.2c-3.3.3-6.6.7-9.9.9a70.43,70.43,0,0,1-13-.8,3.06,3.06,0,0,0-1.9.2,3.41,3.41,0,0,1-4.4-1.2c-.2-.4-.3-.9-.5-1.4-1.8-.1-3.4-.9-5.1-1.3a16.68,16.68,0,0,0-3.1-.5A1.76,1.76,0,0,0,5.76,49a1.06,1.06,0,0,0,.2,1.3,1.43,1.43,0,0,0,1.5.3c.2-.2.3-.5.5-.7-.2-.2-.5-.3-.7-.5l-.1.1c.1.2.1.4.2.6-.4.1-.7,0-.7-.4a.69.69,0,0,1,.8-.8,1,1,0,0,1,1,.8c.2.5-.1.9-.5,1.2a1.7,1.7,0,0,1-2.3-.3,1.83,1.83,0,0,1,0-2.4,3.26,3.26,0,0,1,2.3-1,8.81,8.81,0,0,1,3.9.8,10.71,10.71,0,0,0,3.9,1,.67.67,0,0,0,.7-.4,2.7,2.7,0,0,1,2.1-1.6.72.72,0,0,1,.8.2,1.13,1.13,0,0,1,.1.8,2.65,2.65,0,0,1-2.2,1.6c-.5.1-.6.3-.5.7.1.2.1.5.3.7a2.91,2.91,0,0,0,3.9.5c-1.4-.9-1.7-1.5-1.2-2.3a1.5,1.5,0,0,1,1.9-.5c.9.5,1.1,1.3.6,2.7a73.72,73.72,0,0,0,23.9,0c-.1-.4-.2-.8-.3-1.1a1.48,1.48,0,0,1,.8-1.5,1.37,1.37,0,0,1,1.5-.1,1.28,1.28,0,0,1,.6,1.4,1.55,1.55,0,0,1-.8,1.1l-.6.3a3.15,3.15,0,0,0,3.7-.3,1.75,1.75,0,0,0,.5-1.6l-1.3-.3a2.54,2.54,0,0,1-1.4-1.3c-.1-.3-.3-.7.1-.9a1,1,0,0,1,.9-.2,3.2,3.2,0,0,1,2.1,1.7.75.75,0,0,0,.7.4,13.18,13.18,0,0,0,3.9-1c1-.3,1.9-.6,2.9-.8a3.79,3.79,0,0,1,2.9.6,2,2,0,0,1,.6,2.7,1.75,1.75,0,0,1-2.7.1.68.68,0,0,1-.1-1,1.7,1.7,0,0,1,1-.6c.4-.1.7.4.7.8C61.26,50.06,61.06,50.26,60.56,50.26Zm-14.7,0c0,1,.5,1.3,1.3.8.2-.1.4-.3.6-.4A1.85,1.85,0,0,0,48,50c-.1-.6-.5-.9-1-.8A1,1,0,0,0,45.86,50.26Zm-24,0a4.88,4.88,0,0,0-.3-.7c-.3-.4-.7-.7-1.1-.5s-.5.5-.7.8.2.7.5,1a3.55,3.55,0,0,0,.9.4.6.6,0,0,0,.4-.1ZM51,49.16a3.22,3.22,0,0,0-2.2-1.7A2.15,2.15,0,0,0,51,49.16Zm-34.3,0a2.15,2.15,0,0,0,2.2-1.7A3.16,3.16,0,0,0,16.66,49.16Z"/><path d="M27.36,30.66c.1-.6-.3-.6-.6-.6-1.5-.2-3-.4-4.5-.7a21,21,0,0,1-2.4-.6c-.2-.1-.3-.2-.5-.3v-.2a3.75,3.75,0,0,1,1,.1l6.5,1.2c.3.1.7.2.8-.4a4.88,4.88,0,0,0,.3.7c.3-.4.6-.6.9,0a.78.78,0,0,0,.4-.4c.1.2.2.3.3.5.1-.1.2-.3.4-.4.1.2.2.3.3.5a2.09,2.09,0,0,0,.6-.4,1.63,1.63,0,0,1,.3.6,1.69,1.69,0,0,0,.2-.5c0,.1,0,.1.1.2.4,0,.8.1,1.3.1l.3-.3c.1.2.2.3.3.5.3-.3.6-.6.8.1.1-.2.2-.3.3-.5l.3.3c.5,0,.9-.1,1.4-.1l.2.2c.1-.2.2-.3.3-.5.2.1.4.3.6.4.1-.2.2-.3.3-.5a1.38,1.38,0,0,0,.3.4c.1-.2.2-.3.3-.5a1.38,1.38,0,0,0,.4.3c.5-.4.5-.4.9,0,.1-.2.1-.3.2-.4a1.8,1.8,0,0,0,1,.1l6.5-1.2c.3-.1.6,0,.9-.1,0,.1,0,.1.1.2-.2.1-.3.3-.5.3-1.2.3-2.4.6-3.6.8s-2.3.3-3.4.5c-.3,0-.6.1-.4.7a24.77,24.77,0,0,0,2.7-.3c2-.4,3.9-.8,5.9-1.3a2.62,2.62,0,0,0,.9-.5c.1-.1.3-.5.2-.6a1.06,1.06,0,0,0-.7-.6c-.1-.1-.4.1-.5.2v.1c.1,0,.1,0,.2.1s.3.1.4.2c-.2.1-.3.3-.5.3a.71.71,0,0,1-.7-.8.91.91,0,0,1,1.2-.7,1.51,1.51,0,0,1,1.1,1.2,1.1,1.1,0,0,1-.7,1.3c-1.2.4-2.4.8-3.6,1.1-1.8.4-3.6.6-5.4.9-.2,0-.4.3-.6.5-.2-.2-.6-.6-.7.3-.2-.2-.3-.4-.5-.6a6.37,6.37,0,0,0-.2.7c-.2-.2-.4-.3-.6-.5-.1.2-.1.3-.2.5l-.5-.5c-.1.1-.2.3-.4.4-.4-.7-.6-.2-.9.1a6.13,6.13,0,0,0-.4-.6l-.3.6c-.4-.5-.4-.5-.9,0a1.38,1.38,0,0,0-.3-.4l-.5.5c-.1-.2-.3-.3-.4-.6a2.19,2.19,0,0,0-.3.5c-.3-.1-.6-1-.9.1a2.51,2.51,0,0,1-.4-.7,2.19,2.19,0,0,1-.3.5c-.3,0-.5-1.1-.9,0-.1-.2-.2-.3-.3-.5l-.5.5c-.1-.2-.1-.4-.2-.5-.2.2-.4.3-.6.5a6.37,6.37,0,0,1-.2-.7c-.2.2-.3.4-.5.6-.2-.7-.5-.6-.7-.3-.4-.2-.6-.4-.9-.4a43.61,43.61,0,0,1-8-1.6,3.13,3.13,0,0,1-1-.5,1.15,1.15,0,0,1-.2-1.7,1.1,1.1,0,0,1,1.6-.4,1.52,1.52,0,0,1,.4.8c0,.4-.4.6-.8.6-.1,0-.3-.2-.4-.3l.1-.1h.5a.1.1,0,0,1,.1-.1,1.87,1.87,0,0,1-.4-.3,1.28,1.28,0,0,0-.7.5c-.1.1,0,.5.1.7a2.07,2.07,0,0,0,1,.6c1.5.4,3,.8,4.5,1.1,1.1.2,2.3.3,3.4.5C27,30.66,27.16,30.66,27.36,30.66Z"/><path d="M51.06,21.26c.5-1.9,1-3.7,1.4-5.5.2-.6.4-.7.9-.6s.6.3.6.8l-.3,4.2-.3,4.2c0,.7-.2.9-.8.8s-.8-.3-.7-.9A17.7,17.7,0,0,0,52,22a20.48,20.48,0,0,0-.5,2.4.77.77,0,0,1-.8.7c-.5,0-.6-.3-.7-.7a11.53,11.53,0,0,0-.3-2.6c-.1.8-.1,1.7-.2,2.5,0,.5-.3.7-.8.7s-.7-.2-.7-.8c.2-2.8.4-5.7.5-8.5,0-.4.2-.6.7-.6s.8.1.8.6c.2,1.7.4,3.4.6,5C50.86,20.76,51,21,51.06,21.26Z"/><path d="M59.46,23c.2-1.4.4-3.2.8-5,.3-1.6,1.6-2.2,3.2-1.7a2.1,2.1,0,0,1,1.5,2.3c-.2,1.8-.4,3.6-.7,5.4a2.19,2.19,0,0,1-3,1.8C60.06,25.56,59.46,24.66,59.46,23ZM61,23c0,1.2.3,1.6.9,1.6s.8-.4.9-1,.2-1.3.3-2a28.5,28.5,0,0,0,.3-2.9.89.89,0,0,0-1-1.1.88.88,0,0,0-.8.9C61.36,20.06,61.06,21.66,61,23Z"/><path d="M37.06,19.46c.1-1,0-2,.2-3a2.19,2.19,0,0,1,2.5-1.9,2,2,0,0,1,2.1,2c0,.3.1.5.1.8,0,1.5,0,3-.1,4.5a2.37,2.37,0,0,1-2.7,2.5,2.15,2.15,0,0,1-2-2,7.57,7.57,0,0,1-.1-1.5Zm3.3,0h0a9.7,9.7,0,0,0,.1-1.7,3.75,3.75,0,0,0-.1-1.1.8.8,0,0,0-1.3-.5c-.2.2-.5.5-.5.8-.1,1.7-.1,3.3-.1,5a.75.75,0,0,0,.1.5,2.41,2.41,0,0,0,.8.6.62.62,0,0,0,.8-.5,2,2,0,0,0,.1-.8A8.88,8.88,0,0,0,40.36,19.46Z"/><path d="M42.86,3.86c2.6-.2,4.6,1.1,6.9,1.8a9.39,9.39,0,0,0,4.7.5,2.35,2.35,0,0,0,2-1.8,1.48,1.48,0,0,0-.7-1.6,1.51,1.51,0,0,0-1.7-.1,2.18,2.18,0,0,0-.5.8c-.1.2.1.6.2.7a1.1,1.1,0,0,0,.8,0c.1-.1,0-.5,0-.7s-.1-.1-.1-.3a.63.63,0,0,1,.7.7.8.8,0,0,1-.7.9,1.47,1.47,0,0,1-1.4-.5,1.21,1.21,0,0,1,.1-1.4,2,2,0,0,1,2.6-.6A2.21,2.21,0,0,1,57,4.66a3.08,3.08,0,0,1-3.2,2.4,10.08,10.08,0,0,1-3.8-.6c-1.7-.6-3.4-1.1-5.1-1.7a2.77,2.77,0,0,0-.9-.1,1.39,1.39,0,0,0-1.7.9,3.82,3.82,0,0,1-2.7,1.9.67.67,0,0,1-.7-.3,1.38,1.38,0,0,1,0-.9,4.92,4.92,0,0,1,3-2.1.57.57,0,0,0,.5-.8A2.65,2.65,0,0,0,40,1a4.16,4.16,0,0,0-3.7.8,2.22,2.22,0,0,0-.8,1.3A1.41,1.41,0,0,0,36.76,5a.89.89,0,0,0,1-.6c.2-.4.3-.9-.1-1.2a.52.52,0,0,0-.4-.2.35.35,0,0,1,.1-.2c.3.1.7,0,.9.2a1.4,1.4,0,0,1,.3.9,1.94,1.94,0,0,1-1.4,1.6,1.87,1.87,0,0,1-2-.9,2,2,0,0,1-.1-2.3,4.3,4.3,0,0,1,2.4-1.8,5.37,5.37,0,0,1,4.1.7A2.62,2.62,0,0,1,42.86,3.86Zm-.9.8c-.2,0-.4-.1-.6,0-.7.5-1.5,1-2.2,1.5a.6.6,0,0,0-.1.4.76.76,0,0,0,.5.2A3.36,3.36,0,0,0,42,4.66Z"/><path d="M30.46,2.66c-.7.7-.7,1.1-.4,1.6a.82.82,0,0,0,1,.4,1.49,1.49,0,0,0,1.3-1.2,2.22,2.22,0,0,0-1.2-2.3,4.29,4.29,0,0,0-4.5-.1,2.45,2.45,0,0,0-1.3,2.1c0,.3.1.5.5.6a5.2,5.2,0,0,1,3,2c.2.3.4.6.1,1a.81.81,0,0,1-1,.3,3.89,3.89,0,0,1-2.7-2.3.75.75,0,0,0-.8-.5,6.61,6.61,0,0,0-3.1.6c-1.7.6-3.3,1.2-5,1.7a6.92,6.92,0,0,1-3.5,0,2.78,2.78,0,0,1-2-3.4,2,2,0,0,1,1.9-1.4,1.68,1.68,0,0,1,1.8.9,1.2,1.2,0,0,1,0,1.4,1.28,1.28,0,0,1-1.4.4,1,1,0,0,1-.6-.9.57.57,0,0,1,.7-.6.37.37,0,0,0-.1.3c0,.2,0,.6.1.6A.88.88,0,0,0,14,4a.71.71,0,0,0,.3-.6c0-.8-1-1.3-1.9-1a1.73,1.73,0,0,0-.8,2.5A2.81,2.81,0,0,0,14,6.16a12.2,12.2,0,0,0,5.3-1A34,34,0,0,1,22.66,4a16.6,16.6,0,0,1,2.2-.3c.3-2,1.2-3.1,3-3.5a4.31,4.31,0,0,1,4.8,1.7,2,2,0,0,1,0,2.3,1.94,1.94,0,0,1-2,.9,2,2,0,0,1-1.5-1.7C29.06,2.66,29.66,2.36,30.46,2.66Zm-4.8,2a3.81,3.81,0,0,0,2.4,2.1h.3c.3-.1.4-.3.2-.5a4.61,4.61,0,0,0-2.3-1.6C26.06,4.56,26,4.66,25.66,4.66Z"/><path d="M8.76,24.26a2.27,2.27,0,0,1-1.7,2.5c-1.3.3-2.3,0-2.7-1.2a20.25,20.25,0,0,1-.9-3.3,17.42,17.42,0,0,1-.5-2.2,2.36,2.36,0,0,1,3-2.8,2,2,0,0,1,1.5,1.2,1.93,1.93,0,0,1,.3,1c.2.6,0,.8-.5.9s-.7,0-.9-.6c-.1-.3-.1-.6-.3-.8a1.49,1.49,0,0,0-.9-.4.68.68,0,0,0-.7.7,3.4,3.4,0,0,0,.1,1l.9,3.9a.37.37,0,0,0,.1.3q.3,1,1.2.9c.6-.1.7-.5.6-1.3s-.1-1,.7-1.2a.53.53,0,0,1,.7.4A1.67,1.67,0,0,0,8.76,24.26Z"/><path d="M15.06,17l.3,2.7c.6,0,1.1-.1,1.6-.1s.8.1.8.6-.1.8-.7.8-1,.1-1.6.2c.1.9.2,1.8.3,2.8.7-.1,1.3-.1,1.9-.2s.8.1.9.7-.1.7-.8.8a22.75,22.75,0,0,1-2.6.2c-.7.1-.8-.1-.9-.7-.2-2.3-.4-4.6-.7-6.9,0-.5-.1-1-.1-1.5s.2-.7.6-.7l2.9-.3c.5,0,.7.2.7.6,0,.6-.1.8-.6.8S15.86,16.86,15.06,17Z"/><path d="M4.16,10.16c1.3-.7,2.6-1.5,4-2.2a9,9,0,0,1,2.3-.8,1.65,1.65,0,0,1,2,2,1.06,1.06,0,0,1-1,.9,1.25,1.25,0,0,1-1.3-.4A1.85,1.85,0,0,1,10,9c0-.3.3-.5.5-.4a1.07,1.07,0,0,1,.2.6c0,.2-.1.4,0,.5a.75.75,0,0,0,.5.1,1,1,0,0,0,.8-.9,1.18,1.18,0,0,0-1.1-1.1,6.46,6.46,0,0,0-1.9.4,2.8,2.8,0,0,0-1.2.8l1,.3a2.63,2.63,0,0,1,2,2.4,2.76,2.76,0,0,1-2.2,2.4,2.14,2.14,0,0,1-2.5-1.7,1.24,1.24,0,0,1,.4-1.5,1.38,1.38,0,0,1,1.6-.2.81.81,0,0,1,.2,1.4c-.1.1-.4.2-.5.1s-.2-.3-.2-.3l.4-.4c0-.3-.2-.4-.5-.4a1,1,0,0,0-.8,1.3,1.7,1.7,0,0,0,2.3,1,2.33,2.33,0,0,0,1.4-2.2,2.14,2.14,0,0,0-1.9-1.7,4.22,4.22,0,0,0-1.9.3,9.29,9.29,0,0,0-1,.5c-.5.2-1,.5-.8,1.2v.3a2.49,2.49,0,0,1-2.1,1.7,2.3,2.3,0,0,1-2.4-.8,1.2,1.2,0,0,1,0-1.5,1.05,1.05,0,0,1,1.4-.4,1.56,1.56,0,0,1,.6.8c.1.4-.2.6-.6.6v-.1c0-.2.5-.4.1-.6a.94.94,0,0,0-.9.1.62.62,0,0,0-.2.7,1.42,1.42,0,0,0,1.4.9,2.51,2.51,0,0,0,2.1-1,1.4,1.4,0,0,0,.3-.9c0-.3-.2-.4-.6-.5a4.8,4.8,0,0,1-1.7-.5c-.2-.1-.4-.5-.3-.6a.82.82,0,0,1,.6-.4,2.09,2.09,0,0,1,1.8.7C4,9.86,4.06,10.06,4.16,10.16ZM2,9.56c.5.6.9.7,1.4.5C3.06,9.56,2.56,9.56,2,9.56Z"/><path d="M63.46,10.16c.1-.2.3-.3.4-.4a2.09,2.09,0,0,1,1.8-.7.66.66,0,0,1,.5.4,1.42,1.42,0,0,1-.2.6,8.45,8.45,0,0,1-1.7.5c-.5.1-.8.3-.7.9a2.36,2.36,0,0,0,1.7,1.5,1.91,1.91,0,0,0,1.9-.4.73.73,0,0,0,.2-.9c-.2-.4-.6-.4-1-.3-.6.2-.1.5,0,.7-.4.2-.7,0-.7-.4a1.08,1.08,0,0,1,1-1,1.41,1.41,0,0,1,1.2.8,1.23,1.23,0,0,1-.2,1.3,2.67,2.67,0,0,1-3.2.4,2,2,0,0,1-1.2-2.2.76.76,0,0,0-.2-.4,24,24,0,0,0-2.3-1.1,2.76,2.76,0,0,0-2.6.5,1.57,1.57,0,0,0-.5,1.9,2.26,2.26,0,0,0,1.8,1.5,1.5,1.5,0,0,0,1.6-1,1.05,1.05,0,0,0-.7-1.5c-.4-.1-.5,0-.6.4a.78.78,0,0,1,.4.4s-.2.3-.3.3a.71.71,0,0,1-.6-.3,1.48,1.48,0,0,1-.1-.9,1,1,0,0,1,1.2-.5,1.44,1.44,0,0,1,1.2,1.9,2.25,2.25,0,0,1-2.7,1.6,2.5,2.5,0,0,1-2-2.8,2.71,2.71,0,0,1,2-2,8.11,8.11,0,0,1,1.1-.3,4.81,4.81,0,0,0-3.4-1.1,1.18,1.18,0,0,0-.9,1.2c0,.5.4.7.8.8s.6-.1.5-.5a.75.75,0,0,1,.1-.5.6.6,0,0,1,.4-.1,1.33,1.33,0,0,1,.3.5,2,2,0,0,1-.4.8,1.22,1.22,0,0,1-1.6-.1,1.36,1.36,0,0,1-.3-1.5,1.71,1.71,0,0,1,2-1.1,12.78,12.78,0,0,1,3.8,1.6C62,9.16,62.66,9.66,63.46,10.16Zm.9-.1a1,1,0,0,0,1.3-.5C65.06,9.56,64.66,9.56,64.36,10.06Z"/><path d="M33.16,16v3.1c0,1.6,0,3.1.1,4.7,0,.5-.2.7-.7.7s-.8-.1-.8-.7v-6.9c0-.8,0-.8-.8-.8s-1-.3-.9-.9c.1-.3.2-.5.6-.5h3.7c.5,0,.6.3.6.8s-.2.7-.7.7A2.15,2.15,0,0,0,33.16,16Z"/><path d="M22,23.36c.7,0,1.3-.1,1.9-.1s.8.1.8.8a.63.63,0,0,1-.7.7c-.9,0-1.8.1-2.7.1-.6,0-.8-.1-.8-.7-.1-2.1-.2-4.2-.4-6.4,0-.7-.1-1.4-.1-2s.1-.8.7-.8.7.2.7.7c.1,1.5.2,2.9.2,4.4A18.59,18.59,0,0,1,22,23.36Z"/><path d="M9.76,16.86c-.1-.5.1-.7.6-.8s.8,0,.8.5l.9,6.3c.1.7.2,1.5.3,2.2.1.5-.1.7-.7.8-.4.1-.7-.1-.7-.6C10.56,22.56,10.16,19.66,9.76,16.86Z"/><path d="M58,16.36c-.3,2.8-.5,5.6-.8,8.3,0,.5-.3.7-.8.7s-.8-.2-.7-.8c.2-2.4.5-4.9.7-7.3,0-.4.1-.7.1-1.1s.2-.7.8-.7.8.3.7.8Z"/><path d="M28,19.66v4.1c0,.6-.1.8-.7.8s-.7-.1-.8-.7c-.1-2.8-.2-5.5-.3-8.3,0-.7.2-.9.9-.9.5,0,.6.3.6.7v4.2A.77.77,0,0,0,28,19.66Z"/><path d="M7.46,44.86c-1.4-1.6-2.7-3.2-4-4.7a.1.1,0,0,1,.1-.1c1.8.8,3.6,1.7,5.5,2.6A17.68,17.68,0,0,0,7.46,44.86Z"/><path d="M60.26,45c-.5-.8-1-1.5-1.5-2.2,1.9-.9,3.7-1.8,5.6-2.6l.1.1C63,41.76,61.66,43.36,60.26,45Z"/><path d="M1.86,44.26c.7-.9,1.4-1.8,2.2-2.7.8,1,1.6,1.9,2.4,2.9H2C1.86,44.46,1.86,44.36,1.86,44.26Z"/><path d="M66,44.56h-4.6c.8-.9,1.5-1.9,2.4-2.9C64.46,42.66,65.16,43.56,66,44.56Z"/><path d="M22.56,12.36a27.41,27.41,0,0,1-.5-2.8c1-.4,1.5-.2,1.4.8a1,1,0,0,1,.7,1.2C24,12.06,23.56,12.26,22.56,12.36Zm.2-1.6c0,.1-.1.1-.1.2.1.3.1.6.2,1a5.74,5.74,0,0,1,.7-.4c.1-.1,0-.4,0-.5A6.89,6.89,0,0,0,22.76,10.76Z"/><path d="M33,10.16a3.33,3.33,0,0,1,.6-.3c-.1.5-.4,1,.2,1.4-.1,0-.1.1-.2.1a6.37,6.37,0,0,0-.7-.2.35.35,0,0,1-.2.1.65.65,0,0,1-.9-.2.63.63,0,0,1,.1-.9.59.59,0,0,0,.1-.7.62.62,0,0,1,.2-.7,1.1,1.1,0,0,1,.8,0c.1.1.1.5.1.7S32.56,9.86,33,10.16Zm-.2.6v-.2c-.1-.2-.2-.3-.3-.5h-.2c0,.2-.1.4-.1.6A1.27,1.27,0,0,0,32.76,10.76Z"/><path d="M27.46,8.66A1.36,1.36,0,0,1,29,9a1.2,1.2,0,0,1,0,1.5c-.1.2.1.6.2.9-.2.2-.4,0-.5-.2a1.38,1.38,0,0,0-.4-.3c-.1.1-.1.3-.2.4l-.3.3c-.1,0-.1-.1-.2-.1A13.36,13.36,0,0,0,27.46,8.66Zm.5.4c0,.5.1.9.1,1.4a.76.76,0,0,0,.7-.8A.61.61,0,0,0,28,9.06Z"/><path d="M27.16,11.66a3.18,3.18,0,0,0-1.3-.2c-.4,0-.7.3-1.1.6.2-1.1.5-2.1.7-3.1h.1C26.06,9.76,26.56,10.66,27.16,11.66Zm-1-.7-.6-.9c-.1.4-.1.6-.2.9Z"/><path d="M40.36,8.76a32,32,0,0,1,.7,3.3,6,6,0,0,0-1.1-.6,3.18,3.18,0,0,0-1.3.2C39.26,10.66,39.76,9.76,40.36,8.76Zm-.2,1.2a7.26,7.26,0,0,1-.5.9,1.48,1.48,0,0,1,.7.1C40.26,10.66,40.26,10.36,40.16,10Z"/><path d="M44.36,9.66c.5.1.9.2,1.3.3a.76.76,0,0,0-.1.4c-.3-.1-.5-.1-.8-.2l-.3.9c.2.4.9,0,.8.8-.3-.1-.6-.1-.9-.2-.1.1-.1.3-.2.5a3.09,3.09,0,0,0,.8.2c0,.5-.1.5-1.3.1A22.91,22.91,0,0,0,44.36,9.66Z"/><path d="M38.16,9.06a1,1,0,0,0-1.4,1.4c.2.5.8.6,1.4.6-.1.1-.2.3-.4.4a1.57,1.57,0,0,1-1.5-.7,1.35,1.35,0,0,1,.1-1.6,1.32,1.32,0,0,1,1.5-.5.78.78,0,0,1,.4.4C38.26,9,38.26,9.06,38.16,9.06Z"/><path d="M4.66,34a1,1,0,0,0-.4,1.4,1.06,1.06,0,0,0-1.4,0,1.09,1.09,0,0,0-.5-1.3,1.21,1.21,0,0,0,1.2-.8C3.66,33.66,4,34,4.66,34Z"/><path d="M64.46,33.16c.2.6.5.8,1.2.7-.5.4-.8.8-.5,1.4a1.2,1.2,0,0,0-1.5,0,1,1,0,0,0-.4-1.3A1.21,1.21,0,0,0,64.46,33.16Z"/><path d="M42.26,9.26c1,0,1.3.2,1.2.6-.3,0-.5-.1-.8-.1a.9.9,0,0,0-.1.5c0,.2-.1.3-.1.5.2.3.9,0,.8.7-.3,0-.6-.1-.8-.1-.4.2,0,.9-.8.8C41.86,11.16,42.06,10.26,42.26,9.26Z"/><path d="M56.56,38.36a1.42,1.42,0,0,1-1.5-1.5,1.47,1.47,0,0,1,1.5-1.5,1.54,1.54,0,0,1,1.5,1.5A1.47,1.47,0,0,1,56.56,38.36Z"/><path d="M40.06,41c-.1-.7-.1-1.3-.2-2a1,1,0,0,1,1.2.8A1,1,0,0,1,40.06,41Z"/><path d="M26,41c-.4-.1-.7-.1-1.1-.2.2-.4.4-.8.7-1.3A11.31,11.31,0,0,1,26,41Z"/><path d="M34.16,41.16v-2a1,1,0,0,1,1.1,1A1.09,1.09,0,0,1,34.16,41.16Z"/><path d="M18.46,39.16c.2-.7.3-1.3.5-1.9.6,0,.9.5.9,1.1A1.1,1.1,0,0,1,18.46,39.16Z"/></g></g></svg>