<svg xmlns="http://www.w3.org/2000/svg" viewBox="0 0 108.88 25.69"><g id="Capa_2" data-name="Capa 2"><g id="Capa_1-2" data-name="Capa 1"><path d="M16.78,9.91c-.07.09-.14.17-.19.25-.22.29-.43.57-.64.87a1.14,1.14,0,0,1-1.16.58,6.76,6.76,0,0,0-.9,0,1.28,1.28,0,0,0-1.09,1.29c0,.07,0,.13,0,.21s.1-.08.14-.12A2,2,0,0,1,14,12.33a2.2,2.2,0,0,1,1,0l.4.11-.14.2c-.14.21-.28.43-.43.64a1.78,1.78,0,0,1-1,.7l-.82.26-.17.05c0,.05,0,.08,0,.12A5.4,5.4,0,0,0,13.61,16a4.37,4.37,0,0,0,2.54,1.87,6.64,6.64,0,0,0,2.08.31,4.27,4.27,0,0,0,2.53-.84,2.11,2.11,0,0,0,.52-.59,1.13,1.13,0,0,0,.17-.6c0-.74,0-1.47,0-2.21,0-.46-.05-.92-.09-1.38a1.88,1.88,0,0,0-.12-.48,1,1,0,0,0-.62-.65,3.13,3.13,0,0,0-.95-.18,2.06,2.06,0,0,0-.26,0,.42.42,0,0,1-.39-.26.57.57,0,0,1,.37-.14l1.16,0,1.15,0h3c.08,0,.18,0,.19.12a1,1,0,0,1-.44.28.91.91,0,0,0-.72.88c-.06.83-.06,1.66-.06,2.49,0,1,0,2,0,3a.93.93,0,0,1-.17.54,1.34,1.34,0,0,1-.32-.49,2.51,2.51,0,0,0-.21-.6.49.49,0,0,0-.72-.23,1.92,1.92,0,0,0-.42.28,5.78,5.78,0,0,1-3.08,1.33,8.31,8.31,0,0,1-5.17-1,5.28,5.28,0,0,1-1.52-1.22A12.57,12.57,0,0,1,11,14.81a3,3,0,0,0-.34-.46,1.65,1.65,0,0,0-1.87-.42l-.26.1a.62.62,0,0,1-.56-.11l-.17-.15a3.27,3.27,0,0,0-.37-.28,1.07,1.07,0,0,0-.92-.11,2,2,0,0,0-.72.38,1.06,1.06,0,0,0-.41.84V15a1,1,0,0,1-.3-.38,1.24,1.24,0,0,1,0-.89,1.83,1.83,0,0,1,1.68-1.31A4.66,4.66,0,0,1,8,12.53l.15,0a3.7,3.7,0,0,1,.07-.38,4.84,4.84,0,0,1,.17-.54A1.17,1.17,0,0,1,9.05,11a2.16,2.16,0,0,0,.26,1.54,3,3,0,0,0,1,.93.33.33,0,0,0,0-.1l-.39-2.29s0,0,0-.05a1.15,1.15,0,0,0-1.5-.95,5.52,5.52,0,0,0-.53.18.05.05,0,0,0,0,0A2.3,2.3,0,0,1,6,10.5l-.41-.1a.06.06,0,0,0,0,0,2.16,2.16,0,0,0,.72-.72c.12-.17.23-.34.35-.5a3.42,3.42,0,0,1,.36-.4,1.32,1.32,0,0,1,.81-.32H8l0,0S8,8.34,8,8.31A1.88,1.88,0,0,0,6.8,7.77c-.32,0-.65,0-1,0s-.92,0-1.39.06a4.29,4.29,0,0,1-2.95-1c-.39-.33-.74-.69-1.11-1L0,5.36l.08,0A2.52,2.52,0,0,0,1.2,4.89c.25-.17.5-.37.75-.55s.22-.18.34-.26a2.76,2.76,0,0,1,2.56-.42A4.67,4.67,0,0,1,7,5c.3.33.57.69.84,1s.37.48.55.73a.43.43,0,0,0,.12.11,3.78,3.78,0,0,1,.59-3.12l1.07,2.49a.12.12,0,0,0,.19-.09c.07-.19.15-.37.22-.56A7.69,7.69,0,0,1,13.23,2,7.24,7.24,0,0,1,16.56.6a7.6,7.6,0,0,1,2,0A6.09,6.09,0,0,1,21.43,1.6l.9.61.2.1A.36.36,0,0,0,23,2.14a2.24,2.24,0,0,0,.14-.36c.05-.15.08-.31.12-.46A.7.7,0,0,1,23.6.86a.57.57,0,0,1,.19.43c0,1.55-.07,3.1-.09,4.64a.61.61,0,0,1-.24.5A.77.77,0,0,1,23.18,6c-.1-.46-.19-.92-.3-1.37a4.66,4.66,0,0,0-2.66-3.21A5.76,5.76,0,0,0,17.45.87a4.28,4.28,0,0,0-3,1.39,6.93,6.93,0,0,0-1.39,2.22,10.5,10.5,0,0,0-.69,2.6A15.7,15.7,0,0,0,12.22,9c0,.1,0,.2,0,.3h0c0-.05.05-.09.07-.14l.61-1.32c0-.05.05-.11.08-.16a.36.36,0,0,1,.44-.2,1.55,1.55,0,0,0,.95-.08,2,2,0,0,1,.8-.11,1.07,1.07,0,0,1,.71.33A.66.66,0,0,1,16.1,8c0,.18,0,.27-.18.33a.47.47,0,0,1-.31,0,.87.87,0,0,0-.67.06l-.06,0A5.34,5.34,0,0,1,13.49,9a2.46,2.46,0,0,0-.59.28,1.4,1.4,0,0,0-.67,1.07,2.55,2.55,0,0,0,.17,1.18.87.87,0,0,1,.08-.14c.14-.27.26-.54.42-.79A2.4,2.4,0,0,1,14.79,9.5a3.06,3.06,0,0,1,1.64.23C16.55,9.78,16.65,9.85,16.78,9.91ZM5.27,6a11.43,11.43,0,0,1,2.51,1.7,13,13,0,0,1,2,2.3.2.2,0,0,0,0-.08,1.42,1.42,0,0,0,0-.2,1.09,1.09,0,0,0-.39-1.09l-.25-.22c-.66-.59-1.31-1.18-2-1.71a3.77,3.77,0,0,0-.78-.45l-.92-.37-.12,0Z"/><path d="M48.13,18.07a.74.74,0,0,1-.45.15h-5.5A.18.18,0,0,1,42,18a1.34,1.34,0,0,1,.56-.24,5.6,5.6,0,0,0,.59-.12,1,1,0,0,0,.76-.91,5.27,5.27,0,0,0,0-.56c0-1.13,0-2.27,0-3.4V8.62c0-1.94,0-3.88,0-5.83a2.87,2.87,0,0,0-.07-.58,1,1,0,0,0-.68-.77,2.88,2.88,0,0,0-.72-.15h-.08c-.26,0-.3-.06-.34-.36h2.66l4.06,0a11.22,11.22,0,0,1,1.92.16,5.57,5.57,0,0,1,2.52,1.11A3.46,3.46,0,0,1,54.53,4.7,4.29,4.29,0,0,1,53,8.47a5.73,5.73,0,0,1-2.43,1.2L50,9.81h0c0,.09,0,.11.08.12l.62.16c.22.05.44.1.65.17a3,3,0,0,1,2,2.1c.25.89.46,1.79.69,2.68.13.51.26,1,.4,1.53a2.49,2.49,0,0,0,.2.54,1.9,1.9,0,0,0,.3.4.84.84,0,0,0,.94.19,1.5,1.5,0,0,0,.53-.34l.24-.24c.18-.18.24-.18.47-.05a3.62,3.62,0,0,1-.7.86,2.54,2.54,0,0,1-1.9.64,2.66,2.66,0,0,1-.74-.12,2.14,2.14,0,0,1-1.34-1.19,5.37,5.37,0,0,1-.33-1c-.26-1.1-.51-2.2-.79-3.3-.12-.48-.27-.94-.41-1.41a3.17,3.17,0,0,0-.19-.42A2,2,0,0,0,49.11,10,6.34,6.34,0,0,0,48,9.92H46.51c-.26,0-.37.13-.37.39,0,.58,0,1.15,0,1.72,0,1,0,2.08,0,3.12,0,.52,0,1,.05,1.54a2.34,2.34,0,0,0,0,.26.91.91,0,0,0,.61.69,1.73,1.73,0,0,0,.67.12A.67.67,0,0,1,48.13,18.07Zm-2-10.46h0c0,.44,0,.88,0,1.32a.88.88,0,0,0,0,.28.38.38,0,0,0,.3.31l.26,0,1.69,0a5.32,5.32,0,0,0,1.12-.11A3.11,3.11,0,0,0,52,7.05a6.13,6.13,0,0,0,.19-1.54A5.82,5.82,0,0,0,52,3.75a3,3,0,0,0-2.42-2.3,8.08,8.08,0,0,0-1.9-.14,2.94,2.94,0,0,0-.72.08.88.88,0,0,0-.65.66,2.36,2.36,0,0,0-.08.45c0,.53,0,1.06,0,1.59s0,1.23,0,1.85c0,0,0,.12,0,.14s-.06.13-.06.2Z"/><path d="M58,18.08c.11-.09.19-.18.29-.25s.08,0,.13,0c.24-.05.48-.09.72-.16a1.87,1.87,0,0,0,.4-.2.72.72,0,0,0,.31-.56,8.24,8.24,0,0,0,.07-1c0-.76,0-1.53,0-2.29l0-8.11c0-.64,0-1.27,0-1.9a10.69,10.69,0,0,0-.1-1.26,1.09,1.09,0,0,0-.94-.95l-.76-.13L58,1.18l0-.24.47,0,2,0c1.3,0,2.6,0,3.9,0a14,14,0,0,1,3.23.31,7.75,7.75,0,0,1,3.07,1.41,6.34,6.34,0,0,1,2.07,3,12.38,12.38,0,0,1,.58,2.83,10.29,10.29,0,0,1-1.28,6,7,7,0,0,1-4.46,3.4,9.15,9.15,0,0,1-2.14.32c-.72,0-1.43.05-2.15.05-1,0-1.94,0-2.91,0-.61,0-1.22,0-1.83.06A.82.82,0,0,1,58,18.08ZM71,9.85a19.72,19.72,0,0,0-.13-2.37,13.18,13.18,0,0,0-.34-2,5.58,5.58,0,0,0-.87-2A5.36,5.36,0,0,0,66.5,1.46a8.87,8.87,0,0,0-3-.19c-.15,0-.3,0-.44.06a.92.92,0,0,0-.78.71s0,.1,0,.15a10.57,10.57,0,0,0-.12,1.49c0,.47,0,.93,0,1.39,0,1.63,0,3.26,0,4.89s0,3.07,0,4.6c0,.71,0,1.43.08,2.14a1.79,1.79,0,0,0,.09.46.8.8,0,0,0,.55.56,2.63,2.63,0,0,0,.55.09,11.62,11.62,0,0,0,1.77,0,9.9,9.9,0,0,0,1.42-.2,5,5,0,0,0,2.44-1.36,5.29,5.29,0,0,0,1.33-2.33A15.11,15.11,0,0,0,71,9.85Z"/><path d="M87.46,5.14a1.25,1.25,0,0,1-.32-.57c-.08-.43-.16-.85-.26-1.27a4.37,4.37,0,0,0-.22-.7,1.72,1.72,0,0,0-1.47-1.14,11.43,11.43,0,0,0-1.65-.11c-.92,0-1.84,0-2.76.07l-.25,0a.77.77,0,0,0-.6.54,4.34,4.34,0,0,0-.11.61,18.35,18.35,0,0,0-.08,2V7.44c0,.37,0,.74,0,1.11a2.73,2.73,0,0,0,0,.41.4.4,0,0,0,.41.35H81.4a3.86,3.86,0,0,0,.76-.1,1.52,1.52,0,0,0,1.06-.82,3.72,3.72,0,0,0,.35-1,5.86,5.86,0,0,0,.13-.73A.78.78,0,0,1,84,6.1a.78.78,0,0,1,.19.48c0,.36,0,.71,0,1.06,0,.72,0,1.43,0,2.15,0,.88,0,1.76.08,2.64a.93.93,0,0,1-.17.48.77.77,0,0,1-.34-.51c0-.33-.09-.65-.15-1a2.26,2.26,0,0,0-.22-.68,1.87,1.87,0,0,0-1.44-1,9.63,9.63,0,0,0-1.42-.05h-.41c-.3,0-.41.12-.41.41,0,.9,0,1.81,0,2.71l0,2.24c0,.58,0,1.15,0,1.72a1.08,1.08,0,0,0,0,.19.81.81,0,0,0,.74.7l.28,0c.9,0,1.8,0,2.7,0a15.26,15.26,0,0,0,1.66-.13A2.19,2.19,0,0,0,87,16.4,4.54,4.54,0,0,0,87.47,15c.06-.34.12-.67.17-1a.8.8,0,0,1,.38-.61.24.24,0,0,1,.16.24c0,1.49,0,3,0,4.47a.76.76,0,0,1,0,.15h-.28l-1.8,0h-7l-2.89,0h-.38c-.11,0-.21-.08-.21-.15a.28.28,0,0,1,.18-.25l.29,0c.21,0,.43-.06.64-.12a1,1,0,0,0,.76-.91,3.25,3.25,0,0,0,0-.44v-3c0-1.57,0-3.14,0-4.71,0-1.94,0-3.88,0-5.82a3.18,3.18,0,0,0-.06-.62,1,1,0,0,0-.57-.69,1.83,1.83,0,0,0-.76-.17.45.45,0,0,1-.34-.13L75.61,1a.64.64,0,0,1,.51-.16c1.22.06,2.44.05,3.66.05l5.36,0h2.09l.26,0a.27.27,0,0,1,.26.25,1,1,0,0,1,0,.24l-.09,2.8c0,.12,0,.25,0,.37A1,1,0,0,1,87.46,5.14Z"/><path d="M93.19,2.41c0,.2,0,.4,0,.6a.57.57,0,0,0,0,.13V15.43a5.55,5.55,0,0,0,.15,1.29,1.12,1.12,0,0,0,.86.9c.22.06.45.12.68.16a1,1,0,0,1,.52.27,1,1,0,0,1-.5.15H91.2a1,1,0,0,1-.45-.1.68.68,0,0,1,.43-.33,6,6,0,0,0,.69-.21,1.07,1.07,0,0,0,.75-1c0-.21,0-.41,0-.62,0-.69,0-1.37,0-2.06V6.15c0-1.14,0-2.28,0-3.42a2.08,2.08,0,0,0-.07-.55,1,1,0,0,0-.66-.73,2.57,2.57,0,0,0-.78-.15h-.08c-.26,0-.33-.08-.3-.36h.17c.51,0,1,0,1.54,0s1,0,1.55,0a1.27,1.27,0,0,1,1.25.59l.91,1.42,7,10.8c.11.17.23.33.36.52,0-.06,0-.08,0-.11,0-.19,0-.39,0-.59q0-5.1,0-10.21a3.88,3.88,0,0,0-.1-.9,1.27,1.27,0,0,0-.9-1,5.29,5.29,0,0,0-.54-.13l-.37-.07a2.52,2.52,0,0,1-.29-.1l0-.18h4.63l0,.14,0,0a1.7,1.7,0,0,1-.54.17l-.54.13a1,1,0,0,0-.69.69,3.5,3.5,0,0,0-.17.71,9.24,9.24,0,0,0-.06,1q0,6.4,0,12.82c0,.47,0,.94,0,1.41,0,.16,0,.18-.17.21a.39.39,0,0,1-.42-.16c-.08-.11-.14-.23-.22-.34l-8.41-13L93.65,3l-.37-.5a.25.25,0,0,1,0-.09Z"/><path d="M41.48,18.05a.49.49,0,0,1-.41.16H36.24a.54.54,0,0,1-.36-.12.38.38,0,0,1,.32-.29,4.34,4.34,0,0,0,.52-.08,3,3,0,0,0,.42-.14.66.66,0,0,0,.41-.8,7.23,7.23,0,0,0-.26-.94c-.33-.93-.68-1.84-1-2.76-.11-.32-.23-.64-.35-.95,0-.05,0-.09,0-.13a.58.58,0,0,0-.59-.4H30.21a.8.8,0,0,0-.43.13.46.46,0,0,0-.18.21c-.43,1.12-.87,2.23-1.22,3.38-.08.27-.14.55-.2.82a1.31,1.31,0,0,0,0,.59,1.19,1.19,0,0,0,.61.77,2.42,2.42,0,0,0,1,.26.57.57,0,0,1,.37.16,1.77,1.77,0,0,1,.17.14.84.84,0,0,1-.46.15c-1.3,0-2.6-.11-3.91-.08h-.21a2.74,2.74,0,0,1,.11-.28.24.24,0,0,1,.1-.1,3,3,0,0,0,1.48-1.57c.23-.51.42-1,.62-1.53L33.28,1.28a1.79,1.79,0,0,1,.37-.54,1.68,1.68,0,0,1,.38.57L39.73,16a7.35,7.35,0,0,0,.34.76,1.87,1.87,0,0,0,1.22,1C41.39,17.83,41.4,17.84,41.48,18.05Zm-5.91-6.88L32.83,3.88h-.15l-2.8,7.29Z"/><path d="M4,0l.16.08L6.45,1.35A3.68,3.68,0,0,1,7,1.74a2.23,2.23,0,0,1,.89,1.64,4.08,4.08,0,0,1,0,1.15c-.33-.61-.62-1.2-.93-1.79-.11,0-.12,0-.08.14.09.31.19.62.29.92s.13.4.2.61c0,0,0,.07,0,.12l-.07,0c-.58-.32-1.18-.62-1.75-1A3.3,3.3,0,0,1,3.91,1.09,2.55,2.55,0,0,1,4,0Z"/><path d="M29.3,23a1.42,1.42,0,0,0,.39-1.58.78.78,0,0,0-.47-.47,2.13,2.13,0,0,0-.79-.11l-.29,0a.45.45,0,0,0-.44.41,1.49,1.49,0,0,0,0,.21v3.36a2.31,2.31,0,0,0,0,.37.44.44,0,0,0,.4.39,2.3,2.3,0,0,1,.28.06l-1.84.06c.05-.07.08-.13.12-.18a1.15,1.15,0,0,0,.28-.86c0-.31,0-.62,0-.93a.4.4,0,0,0,0-.11q-9.88.09-19.76,0a.24.24,0,0,1,.18,0l1.59,0,11.18,0,4.49,0,2.14,0H27a.69.69,0,0,0,0-.13c0-.6,0-1.2,0-1.8a1,1,0,0,0-.23-.66l-.12-.16.12,0h2.34a2,2,0,0,1,.86.19,1.17,1.17,0,0,1,.5.41.89.89,0,0,1-.15,1.15,2,2,0,0,1-.89.46s-.05,0-.08,0Z"/><path d="M90.12,23.54c6.27,0,12.51-.06,18.76.05-6.25.11-12.51.09-18.78.05a2.38,2.38,0,0,1-1,1.54,3,3,0,0,1-1.24.45l.18-.09a2.09,2.09,0,0,0,.66-.47,1.45,1.45,0,0,0,.39-.78c0-.21.07-.43.11-.67h-.6v0l.58,0a.31.31,0,0,0,0-.08,3.46,3.46,0,0,0-.13-1.5,1.75,1.75,0,0,0-1.51-1.22c-.19,0-.38,0-.6-.05a2.92,2.92,0,0,1,1.32.06,2.76,2.76,0,0,1,1.42,1,2.07,2.07,0,0,1,.43,1.61C90.14,23.41,90.13,23.46,90.12,23.54Z"/><path d="M59.49,21.89a3,3,0,0,1,0-.73.57.57,0,0,1,.49-.4h4.48v1h0l-.11-.15c-.09-.14-.17-.27-.27-.41a.91.91,0,0,0-.72-.4c-.3,0-.6,0-.9,0h-.05s0,.07,0,.11c0,.54,0,1.08,0,1.62v2a3,3,0,0,0,0,.43.7.7,0,0,0,.53.67H61l.25-.08a.47.47,0,0,0,.36-.44c0-.12,0-.24,0-.36,0-.89,0-1.78,0-2.68,0-.22,0-.43,0-.65v-.13c0-.32-.13-.45-.45-.45s-.49,0-.74,0a.79.79,0,0,0-.65.43c-.08.15-.14.31-.21.46l-.06.15Z"/><path d="M50.21,20.7l-.19,0a5.66,5.66,0,0,0-.56.13.77.77,0,0,0-.44.34.7.7,0,0,0,0,.7.83.83,0,0,0,.32.35c.21.13.43.26.65.37s.62.31.93.48a7.76,7.76,0,0,1,.69.4,1.27,1.27,0,0,1,.48.57,1,1,0,0,1,0,.72,1.42,1.42,0,0,1-1.25.84l.16-.21c.1-.14.21-.29.3-.44a.68.68,0,0,0-.18-1,3,3,0,0,0-.44-.29l-1.17-.59c-.21-.11-.42-.23-.62-.36a1.36,1.36,0,0,1-.44-.48.91.91,0,0,1,.12-1.1,1.53,1.53,0,0,1,1-.5c.22,0,.45,0,.68,0Z"/><path d="M72.33,20.86l1.3,0a0,0,0,0,1,0,0,.55.55,0,0,0-.33.55l0,1.33a.5.5,0,0,0,0,.12.4.4,0,0,0,.38.35c.28,0,.57,0,.85,0h.21l.09.23-.44-.05-.73-.08a.34.34,0,0,0-.38.29.69.69,0,0,0,0,.13c0,.41,0,.82,0,1.23a.63.63,0,0,0,.15.39l.21.25a10.54,10.54,0,0,1-1.51,0,0,0,0,0,1,0,0,.62.62,0,0,0,.39-.62c0-.25,0-.51,0-.77V21.37A.56.56,0,0,0,72.33,20.86Z"/><path d="M40.28,25.62H38.85a.3.3,0,0,1,0-.1l.19-.29a.74.74,0,0,0,.09-.36c0-1.14,0-2.28,0-3.42v-.11a.57.57,0,0,0-.39-.56h1.45a.42.42,0,0,1,0,.1l-.17.25a.65.65,0,0,0-.11.38c0,1.12,0,2.25,0,3.38a.81.81,0,0,0,.14.43Z"/><path d="M86.69,25.61a1.47,1.47,0,0,1-.66-.09,2.26,2.26,0,0,1-1.64-2.13,2.49,2.49,0,0,1,.68-1.91,2.23,2.23,0,0,1,1.3-.68h.11l.06,0-.08,0a2.1,2.1,0,0,0-1.19,1.55,3.63,3.63,0,0,0,0,1.64,2.19,2.19,0,0,0,1.18,1.46Z"/><path d="M29.3,23a.41.41,0,0,0,.38.28,2,2,0,0,1,.9.31,1,1,0,0,1,.43.56.94.94,0,0,1-.15.81,1.36,1.36,0,0,1-.89.56,6.28,6.28,0,0,1-1.3.1c.17,0,.34,0,.5-.06l.34-.11a1.12,1.12,0,0,0,.71-1.22.92.92,0,0,0-.83-.89c-.32-.06-.65-.1-1-.15l.16,0L29.2,23l.1,0Z"/><path d="M74.91,23.49a.91.91,0,0,1,1,.42,3.39,3.39,0,0,1,.24.55c.06.17.11.34.17.51a1.17,1.17,0,0,0,.32.53l.1.12a1.63,1.63,0,0,1-.62,0,.57.57,0,0,1-.36-.26,3,3,0,0,1-.2-.4c-.19-.43-.38-.87-.56-1.31A1.42,1.42,0,0,1,74.91,23.49Z"/><path d="M74.85,23.2A1.28,1.28,0,0,0,75.66,22a1.16,1.16,0,0,0-.76-1.17,1.76,1.76,0,0,1,.23,0l.25,0a1.46,1.46,0,0,1,.8.38.87.87,0,0,1,.1,1.23A1.8,1.8,0,0,1,74.85,23.2Z"/><path d="M9.94,2a.74.74,0,0,1-.44.89L9.21,3a2.4,2.4,0,0,0-.64.32,1.35,1.35,0,0,1,.36-.94A1.23,1.23,0,0,1,9.94,2Z"/><path d="M49.05,25.46l-.69-.06V24.24A10.61,10.61,0,0,1,49.05,25.46Z"/><path d="M51.17,21l.6-.07v1l0,0Z"/><path d="M73.9,20.83a1.63,1.63,0,0,1,.76,0Z"/></g></g></svg>