<svg xmlns="http://www.w3.org/2000/svg" viewBox="0 0 349.98 78.75"><defs><style>.cls-1,.cls-2{fill:#fff;}.cls-2{stroke:#fff;stroke-miterlimit:10;stroke-width:0.75px;}</style></defs><g id="Capa_2" data-name="Capa 2"><g id="Capa_1-2" data-name="Capa 1"><path class="cls-1" d="M107.17,1.05h13.11v56.7H107.17Z"/><path class="cls-1" d="M145.87,14.25c6.3,0,10.9,2.9,13.11,6.6v-6h13.1v42.8H159v-6.1c-2.31,3.8-6.81,6.6-13.31,6.6-10.39,0-18.8-8.6-18.8-22.1C127.07,22.65,135.28,14.25,145.87,14.25Zm3.8,11.5c-4.8,0-9.3,3.6-9.3,10.4s4.5,10.6,9.3,10.6c5,0,9.31-3.8,9.31-10.6S154.67,25.75,149.67,25.75Z"/><path class="cls-1" d="M197.67,14.25c6.31,0,10.9,2.9,13.11,6.6v-6h13.1v42.7c0,11.5-6.6,21.2-21.3,21.2-12.7,0-21-6.5-22.1-16.7h12.89c.9,3.2,4.11,5.2,8.61,5.2,5,0,8.8-2.7,8.8-9.9v-6.1c-2.3,3.8-6.8,6.8-13.11,6.8-10.39,0-18.8-8.6-18.8-22.1C178.87,22.65,187.28,14.25,197.67,14.25Zm4,11.5c-4.8,0-9.3,3.6-9.3,10.4s4.5,10.6,9.3,10.6c5,0,9.3-3.8,9.3-10.6S206.67,25.75,201.67,25.75Z"/><path class="cls-1" d="M275.67,57.65h-13.1V52a15.9,15.9,0,0,1-12.9,6.3c-9.89,0-16.5-6.8-16.5-18.3V15h13.11v23.1c0,5.7,3.2,9,8.2,9s8.2-3.2,8.2-9V15h13.1v42.7Z"/><path class="cls-1" d="M285,1.05h13.1v56.7H285Z"/><path class="cls-1" d="M323.78,14.25c6.29,0,10.89,2.9,13.1,6.6v-6H350v42.8h-13.1v-6.1c-2.3,3.8-6.8,6.6-13.3,6.6-10.4,0-18.8-8.6-18.8-22.1C305.07,22.65,313.38,14.25,323.78,14.25Zm3.89,11.5c-4.79,0-9.29,3.6-9.29,10.4s4.5,10.6,9.29,10.6c5,0,9.3-3.8,9.3-10.6S332.67,25.75,327.67,25.75Z"/><path class="cls-2" d="M91,44.45H2.88a2.5,2.5,0,0,0,0,5H91a2.5,2.5,0,0,0,0-5Z"/><path class="cls-2" d="M75.37,54.15H18.48a2.5,2.5,0,1,0,0,5h56.8a2.62,2.62,0,0,0,2.6-2.5A2.49,2.49,0,0,0,75.37,54.15Z"/><path class="cls-2" d="M9.47,48.05a2.07,2.07,0,0,0,2.3-1.9,1.42,1.42,0,0,0,.2-.6,34.79,34.79,0,0,1,58.5-23,34.2,34.2,0,0,1,10.9,22.3,2.7,2.7,0,0,0,2.7,2.3,2.27,2.27,0,0,0,1.9-.8,2.52,2.52,0,0,0,.8-2.1A39.74,39.74,0,0,0,83.67,32,39.12,39.12,0,0,0,73,17.55a37.26,37.26,0,0,0-16.1-8.4,10,10,0,0,0-16.9-6,9.38,9.38,0,0,0-3,5.9,39.84,39.84,0,0,0-30.1,36.2,2.72,2.72,0,0,0,.7,2A3.29,3.29,0,0,0,9.47,48.05Zm38.2-40.3a38.3,38.3,0,0,0-6.8.4,5.63,5.63,0,0,1,1.7-2.6,6.1,6.1,0,0,1,8.5,0,6.5,6.5,0,0,1,1.7,2.7C51.08,8.05,49.48,7.85,47.67,7.75ZM9.08,47.65c.2,0,.3.1.5.1h-.1C9.27,47.75,9.17,47.75,9.08,47.65Z"/></g></g></svg>