<svg xmlns="http://www.w3.org/2000/svg" viewBox="0 0 358.45 77.88"><defs><style>.cls-1{fill:#00122b;}.cls-2{fill:#0f4df1;}</style></defs><g id="Capa_2" data-name="Capa 2"><g id="Capa_1-2" data-name="Capa 1"><path class="cls-1" d="M115.65.18h13.1v56.7h-13.1Z"/><path class="cls-1" d="M154.35,13.38c6.3,0,10.9,2.9,13.1,6.6V14h13.1v42.8h-13.1v-6.1c-2.3,3.8-6.8,6.6-13.3,6.6-10.4,0-18.8-8.6-18.8-22.1C135.55,21.78,143.75,13.38,154.35,13.38Zm3.8,11.5c-4.8,0-9.3,3.6-9.3,10.4s4.5,10.6,9.3,10.6c5,0,9.3-3.8,9.3-10.6S163.15,24.88,158.15,24.88Z"/><path class="cls-1" d="M206.15,13.38c6.3,0,10.9,2.9,13.1,6.6V14h13.1v42.7c0,11.5-6.6,21.2-21.3,21.2-12.7,0-21-6.5-22.1-16.7h12.9c.9,3.2,4.1,5.2,8.6,5.2,5,0,8.8-2.7,8.8-9.9v-6.1c-2.3,3.8-6.8,6.8-13.1,6.8-10.4,0-18.8-8.6-18.8-22.1C187.35,21.78,195.75,13.38,206.15,13.38Zm4,11.5c-4.8,0-9.3,3.6-9.3,10.4s4.5,10.6,9.3,10.6c5,0,9.3-3.8,9.3-10.6S215.15,24.88,210.15,24.88Z"/><path class="cls-1" d="M284.15,56.78h-13.1v-5.7a15.9,15.9,0,0,1-12.9,6.3c-9.9,0-16.5-6.8-16.5-18.3v-25h13.1v23.1c0,5.7,3.2,9,8.2,9s8.2-3.2,8.2-9V14.08h13.1v42.7Z"/><path class="cls-1" d="M293.45.18h13.1v56.7h-13.1Z"/><path class="cls-1" d="M332.25,13.38c6.3,0,10.9,2.9,13.1,6.6V14h13.1v42.8h-13.1v-6.1c-2.3,3.8-6.8,6.6-13.3,6.6-10.4,0-18.8-8.6-18.8-22.1C313.55,21.78,321.85,13.38,332.25,13.38Zm3.9,11.5c-4.8,0-9.3,3.6-9.3,10.4s4.5,10.6,9.3,10.6c5,0,9.3-3.8,9.3-10.6S341.15,24.88,336.15,24.88Z"/><path class="cls-2" d="M90.59,44.12H2.52a2.52,2.52,0,0,0,0,5H90.59a2.65,2.65,0,0,0,2.52-2.52A2.52,2.52,0,0,0,90.59,44.12Z"/><path class="cls-2" d="M75,52H18.17a2.52,2.52,0,0,0,0,5H74.94a2.67,2.67,0,0,0,2.61-2.52A2.52,2.52,0,0,0,75,52Z"/><path class="cls-2" d="M9.13,47.69a2.11,2.11,0,0,0,2.35-1.92,1.69,1.69,0,0,0,.17-.61A34.74,34.74,0,0,1,70.07,22.21,34.46,34.46,0,0,1,80.94,44.47a2.72,2.72,0,0,0,2.69,2.35A2.61,2.61,0,0,0,85.55,46,2.5,2.5,0,0,0,86.33,44,39.69,39.69,0,0,0,72.51,17.17,38.27,38.27,0,0,0,56.42,8.74a10.11,10.11,0,0,0-3-6,10.2,10.2,0,0,0-13.91,0,9.71,9.71,0,0,0-3.05,5.91A39.84,39.84,0,0,0,6.43,44.82a2.72,2.72,0,0,0,.7,2A3.18,3.18,0,0,0,9.13,47.69ZM47.38,7.43a35,35,0,0,0-6.78.44,5.88,5.88,0,0,1,1.65-2.61,6.2,6.2,0,0,1,8.52,0A6.33,6.33,0,0,1,52.42,8,48,48,0,0,0,47.38,7.43ZM8.69,47.34c.18,0,.35.08.53.08H9.13A.86.86,0,0,1,8.69,47.34Z"/></g></g></svg>