<svg xmlns="http://www.w3.org/2000/svg" viewBox="0 0 72.15 59.94"><g id="Capa_2" data-name="Capa 2"><g id="Capa_1-2" data-name="Capa 1"><path d="M61.28,40.47a8,8,0,0,0-1.53,1.05,12,12,0,0,0-1.63,2.17c-.45.74-.7,1.61-1.15,2.36-.61,1-1.32,2-2,3a1.13,1.13,0,0,1-.74.33A3,3,0,0,1,51.7,48c-.47-1.35-.82-2.73-1.22-4.1,0-.18-.06-.37-.11-.67-.63,1.13-1.19,2.16-1.77,3.17S47.52,48.24,47,49.16A2.18,2.18,0,0,1,43.11,49a9.12,9.12,0,0,1-.65-5.07c0-.49.12-1,.21-1.6-.24.13-.41.17-.48.27-.66,1-1.25,2.12-2,3.12a2,2,0,0,1-3.3-.29,17.31,17.31,0,0,1-.73-2.06A10.8,10.8,0,0,1,35,44a20.18,20.18,0,0,1-2.61.81c-.75.17-1.32.36-1.52,1.24A8.88,8.88,0,0,1,30,48.06a15,15,0,0,1-1.34,2.16A8.07,8.07,0,0,1,25.81,53a2.54,2.54,0,0,1-1.82.29,4.05,4.05,0,0,1-3.41-4,8.82,8.82,0,0,1,2.2-6.63c.4-.5,1-.87,1.41-1.36a1.1,1.1,0,0,0,.31-.82C24.09,38.19,26,36,29,36.48a2.4,2.4,0,0,1,1.18.59,5.56,5.56,0,0,1,1.78,5.46,2.32,2.32,0,0,0-.06.38c0,.08,0,.16,0,.33a3.08,3.08,0,0,0,.87-.06c1.2-.45,2.39-.91,3.57-1.41a.92.92,0,0,0,.37-.53,10.15,10.15,0,0,1,2.68-4.31,6.48,6.48,0,0,1,1.76-1.14,2.67,2.67,0,0,1,3.28.6l.82-2c.33-.81.48-.83,1.17-.27a2.7,2.7,0,0,1,1,3.24c-.66,2-1.34,4-1.88,6A18.55,18.55,0,0,0,44.71,49a3.41,3.41,0,0,0,.63-.44c.56-.7,1.12-1.41,1.64-2.14,1.1-1.54,2.17-3.11,3.25-4.67a1.32,1.32,0,0,0,.22-.52A27,27,0,0,1,54,30.69a26.27,26.27,0,0,1,6.26-8,7.54,7.54,0,0,1,3-1.77,2,2,0,0,1,2.33.91,4.5,4.5,0,0,1,.73,3.54c-.33,1.32-.67,2.63-1.12,3.91a11.68,11.68,0,0,1-1.07,1.87,10.57,10.57,0,0,0-.73,1.26,6.73,6.73,0,0,1-1.84,2.39,11.44,11.44,0,0,0-.67,1,20.1,20.1,0,0,1-1.74,1.83,13.87,13.87,0,0,1-1.34.85c-.27.19-.44.52-.72.69-1,.6-2,1.14-3,1.74-.23.13-.53.35-.58.58a12.76,12.76,0,0,0-.26,5.15,1,1,0,0,0,.08.24c0,.06.07.1.23.3.68-.77,1.36-1.49,2-2.27,1.22-1.55,2.39-3.15,3.62-4.71a2.92,2.92,0,0,1,1-.91,1.71,1.71,0,0,1,1.31-.12,3.84,3.84,0,0,1,2,3.14,10,10,0,0,1-.24,2.31c-.37,1.44-1,2.84-1.24,4.29a20.07,20.07,0,0,0-.58,5.91A9.37,9.37,0,0,0,62.65,54a13.51,13.51,0,0,0,3-3.39c2-3.18,4-6.33,6-9.49a2.6,2.6,0,0,1,.32-.35l.19.05a3.4,3.4,0,0,1-.08.65c-.15.45-.37.88-.54,1.31s-.38,1.08-.64,1.59c-.47.88-.91,1.77-1.39,2.64s-.86,1.41-1.25,2.13-.65,1.4-1.06,2c-.59.92-1.28,1.77-1.91,2.65a8,8,0,0,1-.86,1.24c-.56.52-1.18,1.24-1.85,1.32a2.94,2.94,0,0,1-2.41-1.12,5,5,0,0,1-.72-1.2,8.82,8.82,0,0,1-.16-6.45c.61-1.91,1.26-3.81,1.89-5.72.13-.41.21-.84.31-1.27Zm-7.4-1.09.23.19c1.21-.86,2.47-1.65,3.63-2.59A22.14,22.14,0,0,0,65.28,26a6,6,0,0,0,.23-3.1c-.09-.4-.34-.76-.74-.59a5.76,5.76,0,0,0-2,1.11,40.28,40.28,0,0,0-3.22,3.81,42.62,42.62,0,0,0-4.94,9.64C54.32,37.7,54.13,38.56,53.88,39.38Zm-28.2,3.8c-.28.45-.66,1-1,1.59A13.5,13.5,0,0,0,23,49.44a7.25,7.25,0,0,0,.18,1.65,6.34,6.34,0,0,0,1.6-.49,12.11,12.11,0,0,0,4.45-5.18,1.28,1.28,0,0,0,.1-.42Zm5.16-3a14.88,14.88,0,0,0-.39-1.69,1,1,0,0,0-1.14-.73,3.63,3.63,0,0,0-2.95,2,2.39,2.39,0,0,0,0,2.42,4.94,4.94,0,0,0,3.16,1.22.64.64,0,0,0,.74-.54C30.49,42,30.66,41.11,30.84,40.22Zm12.73-2.28c-2.1.63-4.45,5-4.63,6.65A33.65,33.65,0,0,0,43.57,37.94Z"/><path d="M22.29,24.17c-.48.39-1,.76-1.44,1.17s-1,.89-1.53,1.37a8,8,0,0,0-.66.85c-.61.79-1.23,1.58-1.84,2.38-.05.06-.05.15-.09.23-.29.54-.56,1.1-.86,1.63-.45.81-.91,1.62-1.38,2.42-.57,1-1.17,1.92-1.72,2.9-.3.55-.51,1.15-.78,1.71-.49,1-1,2-1.49,3-.28.57-.49,1.18-.74,1.76-.35.83-.67,1.67-1.06,2.47s-.86,1.61-1.27,2.42c-.18.37-.29.78-.46,1.16a17.1,17.1,0,0,1-2.24,4.3,2.18,2.18,0,0,1-3.57-.26A7.58,7.58,0,0,1,0,50.17a29.78,29.78,0,0,1,1.25-9.62c.89-3.19,1.87-6.35,3-9.45a52.51,52.51,0,0,1,2.81-5.55,6.86,6.86,0,0,1,.67-.88c.48.56.93,1,1.31,1.55a.72.72,0,0,1,0,.61C8.07,30,7,33.08,6,36.23c-.47,1.48-.76,3-1.12,4.52A47.66,47.66,0,0,0,3.3,51.9a10.54,10.54,0,0,0,.9-1.21C5.61,48.13,7,45.55,8.37,43c2.33-4.37,4.61-8.77,7-13.12A29,29,0,0,1,20,23.7a11.74,11.74,0,0,1,1.7-1.45c.69-.49,1.1-.38,1.68.24a5.15,5.15,0,0,1,1.18,5.24c-.42,1.5-.87,3-1.32,4.48-.9,2.95-1.88,5.89-2.71,8.87-.72,2.61-1.38,5.24-1.87,7.9a18.44,18.44,0,0,0,.17,8,5.58,5.58,0,0,0,.51,1.38,2.1,2.1,0,0,0,.75.57c.12.08.32,0,.42.13a3.59,3.59,0,0,1,.44.57c-.2.11-.4.32-.61.34a3.35,3.35,0,0,1-2.84-1.2,10.39,10.39,0,0,1-2-3.83,17.54,17.54,0,0,1-.3-7.56c.81-6.24,3.43-11.91,5.63-17.71.58-1.54,1.08-3.11,1.61-4.66a4.81,4.81,0,0,0,.13-.66Z"/><path d="M15.18,1.14c.09.83.18,1.72.25,2.61,0,.12-.13.26-.2.39-.12-.09-.34-.16-.36-.27C14.49,2,13.1,1.78,11.55,1.81c-.66,0-1.33,0-2,0-.44,0-.67.14-.67.63,0,1.56,0,3.12,0,4.68,0,.36.11.57.51.56l2.76,0a1,1,0,0,0,1.15-1,1.18,1.18,0,0,1,.11-.5.68.68,0,0,1,.38-.23c.06,0,.15.2.22.31s0,.09,0,.13c0,1.17,0,2.35,0,3.52,0,.17-.17.33-.25.49-.13-.14-.32-.26-.37-.42-.41-1.39-.49-1.46-2-1.48-.66,0-1.33,0-2,0-.19,0-.53.28-.53.44,0,1.56,0,3.12.08,4.67.05.86.42,1.21,1.27,1.26a29.64,29.64,0,0,0,3.77,0,2.62,2.62,0,0,0,1.27-.75,6,6,0,0,0,.7-1c.19-.23.17-.8.65-.57.12.06.09.6,0,.89-.13.54-.35,1.06-.49,1.59s-.42.72-1,.71c-2.58-.06-5.17-.06-7.76-.06-.68,0-1.37.09-2,.09-.15,0-.3-.18-.45-.28.13-.11.24-.29.39-.32,1.64-.28,1.76-.4,1.77-2.09,0-3.14,0-6.29,0-9.43a5.69,5.69,0,0,0,0-.83C6.92,2,6.7,1.8,5.9,1.64a1.91,1.91,0,0,1-.57-.35c.21-.09.41-.26.61-.25,2.57,0,5.14.06,7.7.09Z"/><path d="M31.23,6.32V7.87L32,7.48a5,5,0,0,1,3.14-.64,3.82,3.82,0,0,1,3,4.26,5.07,5.07,0,0,1-5.07,4.8c-.41,0-.82,0-1.22,0s-.62.2-.61.62c0,1.07,0,2.14,0,3.21,0,.79.21,1,1,1.06a1.61,1.61,0,0,1,.44.06,1.86,1.86,0,0,1,.35.29c-.14.1-.27.27-.41.27-1.34,0-2.69,0-4,0-.11,0-.23-.16-.35-.25.11-.11.2-.27.33-.31,1-.33,1-.32,1-1.41,0-3.4,0-6.8,0-10.2A1.2,1.2,0,0,0,29,8.08a.71.71,0,0,1-.15-.52C29.62,7.14,30.37,6.76,31.23,6.32Zm5.27,5.14c-.12-2.5-1.78-4-4-3.52-1,.23-1.29.58-1.3,1.6,0,1.19,0,2.39,0,3.58a1.7,1.7,0,0,0,1.47,1.93,2.47,2.47,0,0,0,3-1.25A16,16,0,0,0,36.5,11.46Z"/><path d="M70,11.27A4.43,4.43,0,0,1,65.4,15.9a4.3,4.3,0,0,1-4.52-4.45,4.57,4.57,0,0,1,4.67-4.66A4.34,4.34,0,0,1,70,11.27Zm-7.35-.16a6.11,6.11,0,0,0,1.15,3.28,2.26,2.26,0,0,0,3.74-.3,6,6,0,0,0-.31-5.63,2.22,2.22,0,0,0-3.89.28A14.09,14.09,0,0,0,62.64,11.11Z"/><path d="M47.91,14.68a3.59,3.59,0,0,1-.42.6,2,2,0,0,1-3-.1c-.25-.27-.44-.23-.72-.08a7.94,7.94,0,0,1-1.37.68A2.09,2.09,0,0,1,39.58,14a1.52,1.52,0,0,1,1-1.62c1-.41,2-.79,3-1.13.54-.18.83-.45.76-1.06,0-.38,0-.77,0-1.15a1.47,1.47,0,0,0-2.91-.33,1.35,1.35,0,0,1-1.52,1,.43.43,0,0,1-.23-.36,1.26,1.26,0,0,1,.27-.64A5.1,5.1,0,0,1,43.81,6.8a1.86,1.86,0,0,1,2.07,1.89c.06,1.34,0,2.69-.06,4a7.37,7.37,0,0,0,0,1.15c.12.94.62,1.23,1.53.91C47.49,14.74,47.61,14.74,47.91,14.68Zm-3.65-3c-.84.3-1.53.5-2.18.79a1.18,1.18,0,0,0-.78,1.38,1.24,1.24,0,0,0,1.21,1c.7,0,1.54-.37,1.62-.89C44.23,13.3,44.21,12.58,44.26,11.69Z"/><path d="M20.46,0V.62c0,4.31,0,8.63,0,12.94,0,.21,0,.43,0,.64a.84.84,0,0,0,.86,1c.19,0,.37.24.55.36a1.65,1.65,0,0,1-.58.22q-1.69,0-3.39,0a1.41,1.41,0,0,1-.51-.22c.16-.12.31-.34.48-.35.69,0,.92-.43.92-1V2.66a1.2,1.2,0,0,0-.62-1.12c-.14-.08-.22-.27-.33-.41a2.14,2.14,0,0,1,.44-.3C19,.55,19.65.3,20.46,0Z"/><path d="M42.64,23.48c0-1,.06-2,0-2.89,0-.34-.38-.64-.63-1l1.81-.69v1.35c0,2.54,0,5.09,0,7.63,0,1.16,0,1.16,1.07,1.16-.06.4-.43.55-2.14.81l-.08-.63a11.58,11.58,0,0,1-2.42.38,2.37,2.37,0,0,1-2.18-1.82,3.1,3.1,0,0,1,.84-3.29,3.63,3.63,0,0,1,2.51-1C41.78,23.47,42.17,23.48,42.64,23.48Zm0,3.14V25.4A1.31,1.31,0,0,0,41.2,24a2.06,2.06,0,0,0-2.05,2.16A2.37,2.37,0,0,0,41,28.86a2.87,2.87,0,0,0,1-.05.77.77,0,0,0,.68-.91C42.62,27.47,42.65,27.05,42.65,26.62Z"/><path d="M48.26,7.87c.23-.23.34-.41.49-.46a3.29,3.29,0,0,0,1.86-1.58c.08-.13.27-.21.41-.31a1.76,1.76,0,0,1,.22.46,2.25,2.25,0,0,1,0,.58c0,.36.12.49.48.48h2c.35,0,.51.11.52.47s-.19.46-.52.45h-2c-.35,0-.5.13-.5.49,0,1.62,0,3.25,0,4.87a1.52,1.52,0,0,0,2.38,1.39,1.58,1.58,0,0,1,.49,0,1.31,1.31,0,0,1-.22.46,3.24,3.24,0,0,1-3.31.53,1.86,1.86,0,0,1-1-1.86c0-1.54,0-3.08,0-4.61C49.58,8.06,49.58,8.06,48.26,7.87Z"/><path d="M58.29,6.44V11c0,1,0,2.09,0,3.14,0,.62.2,1,.9,1.08.15,0,.3.21.45.32-.16.09-.32.25-.48.25q-1.7,0-3.39,0c-.17,0-.34-.15-.51-.23.14-.11.28-.33.43-.34.73,0,.94-.46.94-1.1,0-1.67,0-3.34,0-5a1.74,1.74,0,0,0-.55-1c-.32-.32-.37-.48.09-.68C56.85,7.11,57.54,6.78,58.29,6.44Z"/><path d="M50.61,28.2a2,2,0,0,1-1.16,1.17,2.72,2.72,0,0,1-3.89-2,3.22,3.22,0,0,1,.95-3.16,2.73,2.73,0,0,1,2.79-.65A1.72,1.72,0,0,1,50.6,25c.07.41-.07.64-.54.63-1,0-2,0-3,0-.42,0-.56.13-.55.56a2.44,2.44,0,0,0,2.33,2.55,4.09,4.09,0,0,0,1.29-.43,2.09,2.09,0,0,0,.37-.26Zm-3.87-3c.72,0,1.43,0,2.15,0,.19,0,.54-.19.54-.26a1.11,1.11,0,0,0-.29-.72A1.62,1.62,0,0,0,46.74,25.16Z"/><path d="M58.44,3.1a1.07,1.07,0,0,1-1.13,1.12,1.1,1.1,0,0,1-1.15-1.11,1.17,1.17,0,0,1,1.18-1.17A1.12,1.12,0,0,1,58.44,3.1Z"/></g></g></svg>