<svg xmlns="http://www.w3.org/2000/svg" viewBox="0 0 93.85 59.52"><defs><style>.cls-1{fill:#fff;stroke:#fff;stroke-miterlimit:10;stroke-width:0.75px;}</style></defs><g id="Capa_2" data-name="Capa 2"><g id="Capa_1-2" data-name="Capa 1"><path class="cls-1" d="M91,44.45H2.88a2.5,2.5,0,0,0,0,5H91a2.5,2.5,0,0,0,0-5Z"/><path class="cls-1" d="M75.37,54.15H18.48a2.5,2.5,0,1,0,0,5h56.8a2.62,2.62,0,0,0,2.6-2.5A2.49,2.49,0,0,0,75.37,54.15Z"/><path class="cls-1" d="M9.47,48.05a2.07,2.07,0,0,0,2.3-1.9,1.42,1.42,0,0,0,.2-.6,34.79,34.79,0,0,1,58.5-23,34.2,34.2,0,0,1,10.9,22.3,2.7,2.7,0,0,0,2.7,2.3,2.27,2.27,0,0,0,1.9-.8,2.52,2.52,0,0,0,.8-2.1A39.74,39.74,0,0,0,83.67,32,39.12,39.12,0,0,0,73,17.55a37.26,37.26,0,0,0-16.1-8.4,10,10,0,0,0-16.9-6,9.38,9.38,0,0,0-3,5.9,39.84,39.84,0,0,0-30.1,36.2,2.72,2.72,0,0,0,.7,2A3.29,3.29,0,0,0,9.47,48.05Zm38.2-40.3a38.3,38.3,0,0,0-6.8.4,5.63,5.63,0,0,1,1.7-2.6,6.1,6.1,0,0,1,8.5,0,6.5,6.5,0,0,1,1.7,2.7C51.08,8.05,49.48,7.85,47.67,7.75ZM9.08,47.65c.2,0,.3.1.5.1h-.1C9.27,47.75,9.17,47.75,9.08,47.65Z"/></g></g></svg>