<svg xmlns="http://www.w3.org/2000/svg" viewBox="0 0 93.11 56.99"><defs><style>.cls-1{fill:#0f4df1;}</style></defs><g id="Capa_2" data-name="Capa 2"><g id="Capa_1-2" data-name="Capa 1"><path class="cls-1" d="M90.59,44.12H2.52a2.52,2.52,0,0,0,0,5H90.59a2.65,2.65,0,0,0,2.52-2.52A2.52,2.52,0,0,0,90.59,44.12Z"/><path class="cls-1" d="M75,52H18.17a2.52,2.52,0,0,0,0,5H74.94a2.67,2.67,0,0,0,2.61-2.52A2.52,2.52,0,0,0,75,52Z"/><path class="cls-1" d="M9.13,47.69a2.11,2.11,0,0,0,2.35-1.92,1.69,1.69,0,0,0,.17-.61A34.74,34.74,0,0,1,70.07,22.21,34.46,34.46,0,0,1,80.94,44.47a2.72,2.72,0,0,0,2.69,2.35A2.61,2.61,0,0,0,85.55,46,2.5,2.5,0,0,0,86.33,44,39.69,39.69,0,0,0,72.51,17.17,38.27,38.27,0,0,0,56.42,8.74a10.11,10.11,0,0,0-3-6,10.2,10.2,0,0,0-13.91,0,9.71,9.71,0,0,0-3.05,5.91A39.84,39.84,0,0,0,6.43,44.82a2.72,2.72,0,0,0,.7,2A3.18,3.18,0,0,0,9.13,47.69ZM47.38,7.43a35,35,0,0,0-6.78.44,5.88,5.88,0,0,1,1.65-2.61,6.2,6.2,0,0,1,8.52,0A6.33,6.33,0,0,1,52.42,8,48,48,0,0,0,47.38,7.43ZM8.69,47.34c.18,0,.35.08.53.08H9.13A.86.86,0,0,1,8.69,47.34Z"/></g></g></svg>