<svg xmlns="http://www.w3.org/2000/svg" viewBox="0 0 60.4 46.2"><g id="Capa_2" data-name="Capa 2"><g id="Capa_1-2" data-name="Capa 1"><path d="M15.7,24.3l-.9,3.3c-.1.5-.3.7-.9.7-1.5,0-1.5,0-2.1-1.5-.8-2.1-1.6-4.2-2.3-6.3a6.89,6.89,0,0,1-.3-.8h2.1c.1,0,.3.3.4.4.4,1.1.9,2.3,1.3,3.4a2.09,2.09,0,0,0,.4.6c.3-1.2.7-2.4.9-3.6.1-.7.4-.9,1.1-.9,1.5.1,1.2-.3,1.7,1.2.3.9.6,1.9.8,2.8a1.69,1.69,0,0,0,.2.5c.2-.7.4-1.2.6-1.8.3-.8.5-1.6.8-2.4a.63.63,0,0,1,.6-.5h3.4c.5,0,.6.2.6.6v2.2c0,.4.1.6.6.6h1.7c.4,0,.5-.1.5-.5V19.5h2.2c0,.2.1.4.1.6v7.3c0,.5-.1.7-.6.6H27V24.8H24.2v2.5c0,.6-.2.7-.8.7-1.5,0-1.5,0-1.5-1.5V20.6a.6.6,0,0,0-.1-.4c-.1.2-.1.4-.2.6-.7,2.2-1.5,4.4-2.2,6.7-.1.5-.3.6-.8.6-1.5,0-1.5,0-2-1.5a23.35,23.35,0,0,1-.7-2.5C15.8,24.3,15.7,24.3,15.7,24.3Z"/><path d="M57.9,17.5a24.11,24.11,0,0,0-2.7-6.6,20.12,20.12,0,0,1,3.7,8.9c.5-.2.4-.5.3-.8a22.32,22.32,0,0,0-2.6-7.5,4.88,4.88,0,0,1-.3-.7,8.34,8.34,0,0,1,.8,1.2,21.39,21.39,0,0,1,2.5,6.5c.1.4.4.9.5,1.3.1,1.4.2,2.9.3,4.3,0,.4-.1.8-.1,1.2a15.19,15.19,0,0,1-1,4.7c-.1.1-.1.3-.2.4a3.58,3.58,0,0,1-.9,2.4c-.1.1-.1.3-.2.4a3.48,3.48,0,0,1-2.1,2.6,2.19,2.19,0,0,1,.5.3c-1.1,1.4-2.5,1.4-3.5.1-.2-.3-.5-.5-.7-.8a2.12,2.12,0,0,1-.3-2.6c.1.1.3.1.4.2v-.2a2.5,2.5,0,0,1,.8-1.8c.1-.1.2-.4.3-.5v-.3a10.4,10.4,0,0,0,.9-3c.1-.4.1-.8.2-1.1V26c.4-1.1.1-2.3.3-3.4a.35.35,0,0,1,.1-.2c-.5-1.9,0-3.9-.9-5.7-.4-.8-.8-1.7-1.2-2.6l-.3-.6c.1,0,.1-.1.2-.1.5,1.1,1.1,2.2,1.6,3.4.4,1,.6,2,.9,3a1,1,0,0,0,.4.5,21,21,0,0,0-2.9-8.4c.3.4.6.9.9,1.3a10.93,10.93,0,0,1,.8,1.5c.2.5.5,1,.7,1.5s.4,1,.6,1.6a1.7,1.7,0,0,0,.2-1.8,24.2,24.2,0,0,0-3.1-5.7c-.1-.2-.3-.4-.4-.6a15.56,15.56,0,0,1,2.7,3.5,12.81,12.81,0,0,1,1.1,2.4A4.36,4.36,0,0,0,57.9,17.5Zm0,3.1a2.12,2.12,0,0,0-.5-2.5A22.11,22.11,0,0,1,57.9,20.6Zm-3.1,14c0,.1.1.1.1.2a18.65,18.65,0,0,0,2-1c0-.1-.1-.1-.1-.2C56.1,34,55.4,34.3,54.8,34.6ZM57.1,30c0,.1.1.1.1.2l1.5-1.5c0-.1-.1-.1-.1-.2C58.2,29,57.6,29.5,57.1,30Zm-.9,2.4c0,.1.1.1.1.2.6-.4,1.2-.8,1.7-1.2,0-.1-.1-.1-.1-.2C57.3,31.6,56.7,32,56.2,32.4Zm2-10c.1,0,.1.1.2.1.3-.6.6-1.3.9-1.9-.1,0-.1-.1-.2-.1C58.8,21.1,58.5,21.7,58.2,22.4Zm-.4,5.1c.1,0,.1.1.2.1l1.2-1.5c-.1,0-.1-.1-.2-.1C58.6,26.4,58.2,27,57.8,27.5Zm-2.9,4.4a2.29,2.29,0,0,0-.4-2.1C54.6,30.6,54.8,31.2,54.9,31.9Zm-1.3,1.9h.2V32h-.2Zm2.3-10.6c-.1,0-.1.1-.2.1.3.5.7,1,1,1.6.1,0,.1-.1.2-.1A14,14,0,0,0,55.9,23.2Zm.5,4c.1,0,.1-.1.2-.1-.3-.5-.5-1-.8-1.6-.1,0-.1.1-.2.1C55.9,26.1,56.1,26.7,56.4,27.2Zm3-3.8c-.1,0-.1-.1-.2-.1-.3.5-.7,1.1-1,1.6.1,0,.1.1.2.1A8.64,8.64,0,0,1,59.4,23.4Zm-3.9,4.4c-.1,0-.1,0-.2.1l.6,1.8c.1,0,.1,0,.2-.1A6.36,6.36,0,0,1,55.5,27.8Zm.3-6.9c-.1,0-.1.1-.2.1l1.2,1.5c.1,0,.1-.1.2-.1Z"/><path d="M4.4,17.7a17.59,17.59,0,0,1,2.9-5.6,19.75,19.75,0,0,0-2.9,8.1.35.35,0,0,1,.2.1c.1-.2.2-.5.3-.7A18.4,18.4,0,0,1,7,14.1c.1-.2.3-.4.4-.6a.35.35,0,0,1,.2-.1c-.5,1.1-1,2.1-1.4,3.2s-.6,2-.8,3c-.1.2,0,.5,0,.7s.1.4.1.6a20.55,20.55,0,0,0-.2,3.5,2,2,0,0,0,.1.7c.1.5.1,1,.2,1.5,0,.2.1.4.1.6a8.33,8.33,0,0,0,.4,1.5c.1.2.1.4.2.6a25.91,25.91,0,0,0,1.4,2.9c.2.2.1.6.2,1,.1,0,.3-.1.4-.1a2,2,0,0,1-.2,2.5c-.2.3-.5.5-.7.8-1.1,1.3-2.2,1.4-3.5.1.1-.1.2-.3.4-.4a3.43,3.43,0,0,1-2.1-2.7A.76.76,0,0,0,2,33,24.11,24.11,0,0,1,.4,28.5c0-.5-.2-.9-.2-1.4C.1,25.7.1,24.3,0,22.9a4.87,4.87,0,0,1,.1-1.2,3.75,3.75,0,0,1,.1-1.1c.6-2,1.3-4.1,2-6.1A21.12,21.12,0,0,1,4,11.2c-.6,1.5-1.4,3-1.9,4.5a24.91,24.91,0,0,0-.9,3.7c-.1.2.1.5.2.8a22.67,22.67,0,0,1,3.9-9A22.69,22.69,0,0,0,2.5,18a4.7,4.7,0,0,0,1.7-2,15.23,15.23,0,0,1,3.7-5.7c-.1.2-.3.4-.4.6a19.64,19.64,0,0,0-3,5.5C3.9,16.6,3.9,17.1,4.4,17.7Zm-1.8.4a2.15,2.15,0,0,0-.5,2.5A22.11,22.11,0,0,0,2.6,18.1ZM5.1,34.7c0-.1.1-.1.1-.2-.6-.3-1.3-.6-1.9-.9,0,.1,0,.1-.1.2C3.8,34.1,4.4,34.4,5.1,34.7Zm-3-3.6c0,.1-.1.1-.1.2a20.28,20.28,0,0,1,1.8,1.3c0-.1.1-.1.1-.2A20.28,20.28,0,0,1,2.1,31.1Zm-.6-2.5-.2.2c.5.5,1,.9,1.5,1.4l.1-.1C2.4,29.5,2,29.1,1.5,28.6ZM.8,23.2c-.1,0-.1.1-.2.1l1.2,1.8c.1,0,.1-.1.2-.1Zm3.5.2c-.1,0-.1-.1-.2-.1l-.9,1.5c.1,0,.1.1.2.1A11.91,11.91,0,0,1,4.3,23.4Zm1.2,6.7a1.51,1.51,0,0,0-.3,1.7C5.3,31.2,5.4,30.6,5.5,30.1Zm-1-4.5c-.1,0-.1-.1-.2-.1-.3.5-.5,1.1-.8,1.6.1,0,.1.1.2.1A11.94,11.94,0,0,1,4.5,25.6ZM3.1,22.4c.1,0,.1.1.2.1A14.31,14.31,0,0,0,4.4,21c-.1,0-.1-.1-.2-.1A14.31,14.31,0,0,1,3.1,22.4Zm-1.4,0c.1,0,.1-.1.2-.1L1,20.5c-.1,0-.1.1-.2.1Zm2.4,7.1h.2c.2-.6.4-1.2.6-1.7-.1,0-.1,0-.2-.1C4.5,28.4,4.3,28.9,4.1,29.5Zm-2-1.9c.1,0,.1-.1.2-.1L1.1,26c-.1,0-.1.1-.2.1Zm4.3,4.3a2.23,2.23,0,0,0,0,2.1ZM4.9,36.1c0,.1,0,.2.1.2.4-.1.8-.1,1.2-.2v-.2C5.8,36,5.4,36,4.9,36.1Z"/><path d="M25.5,33.7v.6c0,.5,0,1,.8,1a1.14,1.14,0,0,1,.6.3c.2.6,1,.8.8,1.5,0,.1.3.4.5.5l4.5,3.6a18,18,0,0,1,1.9,2c.3.3.3.8.5,1.2.1.2.1.5.3.7s.3.7-.1.9c-.2.1-.6,0-.9,0a2.54,2.54,0,0,1-.7-.2,6.92,6.92,0,0,1-1.9-1c-1.4-1.5-2.7-3-4-4.6a11.32,11.32,0,0,1-1-1.3c-.3-.3-.4-.6-1-.5-.4.1-1.5-1.1-1.5-1.6s-.2-.5-.5-.5H22.3a5.7,5.7,0,0,1-1.3-.1,1.9,1.9,0,0,1-1.4-2.4,4.5,4.5,0,0,1,3.2-3.2,1.77,1.77,0,0,1,2.4,1.5,3.23,3.23,0,0,1,.3,1.6Zm-2.3-1.9a2.76,2.76,0,0,0-2.4,2.4,1.14,1.14,0,0,0,1.4,1.1c.1,0,.2-.1.3-.2a2.34,2.34,0,0,1,1.6-1.6c.1,0,.2-.2.3-.3A1.27,1.27,0,0,0,23.2,31.8Z"/><path d="M27.9,12h2.8V9.5c0-.6.1-.8.8-.8,1.4,0,1.4,0,1.4,1.5v6.4c0,.5-.1.6-.6.6-1.6,0-1.6,0-1.6-1.6V13.9H28.3c-.1,0-.3.3-.3.5v2.2c0,.3-.1.5-.5.5-1.8.1-1.8.1-1.8-1.6V9.2c0-.5.1-.6.6-.6,1.6,0,1.6,0,1.6,1.6Z"/><path d="M36.1,28.3H31c-1.2,0-1.1.2-1.1-1.1V20.4c0-.5.1-.7.7-.7h5.5v1.7c0,.1-.3.3-.5.3H32.7c-.5,0-.6.2-.6.6s.1.7.6.7h2.1c.4,0,.5.1.5.5.1,1.5.1,1.5-1.4,1.5h-1c-.8,0-1.1.4-.8,1.1a.76.76,0,0,0,.5.2h2.9c.4,0,.6.1.6.5Z"/><path d="M43.1,26.3v2H37.5A.85.85,0,0,1,37,28c-.1,0,0-.2,0-.3V19.9h6.1v1.9H39.9c-.7,0-1,.4-.7,1.1a.76.76,0,0,0,.5.2h2.2c.4,0,.5.1.5.5v1.5H39.8c-.5,0-.7.1-.7.7s.1.7.7.7A17.22,17.22,0,0,1,43.1,26.3Z"/><path d="M39.4,10.7H35.6a.35.35,0,0,1-.1.2c-.1,1-.1,1,.9,1h1.8a.45.45,0,0,1,.4.3v1.6H35.5v1.4h3.2c.6,0,.7.2.7.7-.1,1.4.2,1.2-1.3,1.3H33.8c-.4,0-.6-.1-.6-.6V9.3c0-.4.1-.6.6-.6h5c.4,0,.6.1.6.6Z"/><path d="M31.7,40.1A19.23,19.23,0,0,1,30,38.8c.5-.4.9-.8,1.4-1.2a.91.91,0,0,0,.3-.7c0-.4,1.1-1.5,1.5-1.6a1.49,1.49,0,0,0,.6-.1c0-.5.1-.9.1-1.4a7.57,7.57,0,0,1,.1-1.5,1.92,1.92,0,0,1,2.7-1.7,4.64,4.64,0,0,1,2.9,2.9A1.87,1.87,0,0,1,38,36.2a16.2,16.2,0,0,1-2.2.1c-.4,0-.8,0-.8.6a1,1,0,0,1-.4.7c-.5.2-.8,1-1.5.8-.1,0-.3.2-.4.3A12.13,12.13,0,0,1,31.7,40.1Zm6.9-5.9a2.76,2.76,0,0,0-2.4-2.4,1.11,1.11,0,0,0-1.1,1.3.45.45,0,0,0,.3.3A2.55,2.55,0,0,1,37,35c0,.1.2.2.3.3A1.16,1.16,0,0,0,38.6,34.2Z"/><path d="M43.9,28.3V19.7h1.9c.1,0,.3.3.3.5v5.2c0,.6.1.9.8.8a16.13,16.13,0,0,1,2.2,0c.5,0,.6.2.6.6,0,1.7.2,1.4-1.4,1.4S45.4,28.3,43.9,28.3Z"/><path d="M19.5,10.6v-2H24c1.4,0,1.6.2,1.3,1.6a.45.45,0,0,1-.4.3H23.5v5.9c0,.5-.1.6-.6.6-1.6,0-1.6,0-1.6-1.5V11.1c0-.5-.1-.7-.6-.6A2.46,2.46,0,0,1,19.5,10.6Z"/><path d="M26.8,2.1a10.41,10.41,0,0,0,.5,1.2c.1-.2.2-.3.3-.5q.45.9-.3,1.2c-.6.2-1.2,0-1.3-.5-.1-.2,0-.5-.1-.7s-.3-.2-.5-.3c-.1.2-.3.3-.2.5a2.51,2.51,0,0,0,.4.7c.1.1.2.2.2.3s-.2.2-.3.2l-4,.6c-.5-.2,1-1.1-.3-1.1-.4,0-.8.1-.7.5a2.65,2.65,0,0,1,.5.6l-.6.3a1.27,1.27,0,0,1-.6.1.9.9,0,0,1-.5-.1c.1-.2.1-.3.2-.5a1.42,1.42,0,0,0,.2-.6,19.42,19.42,0,0,0,.2-2.4c0-.7.6-.5.9-.7s.5,0,.7.3c.4.7.8,1.3,1.2,2,.2.4.5.5.8.3s.2-.4.2-.7a7.72,7.72,0,0,0-.2-1.5c0-.2-.2-.3-.3-.5S23.1.6,23,.5a.52.52,0,0,1,.4-.2L25.9,0c.4,0,.9.1,1,.6A3.4,3.4,0,0,1,26.8,2.1Zm-2.2-.8c.3.3.5.7.6.6s.4-.3.6-.5c-.2-.2-.3-.4-.5-.5A5.74,5.74,0,0,0,24.6,1.3Z"/><path d="M27.6,40.7c.6.7,1.2,1.4,1.7,2.1.1.1,0,.4,0,.4l-2.7,2.4c-.2.2-.5.2-.7.3a2.93,2.93,0,0,1-1,.3,1.72,1.72,0,0,1-.8-.1,1.1,1.1,0,0,1,0-.8,2.12,2.12,0,0,1,.3-.7,3.58,3.58,0,0,1,.4-1.1A10.64,10.64,0,0,1,27.6,40.7Z"/><path d="M44.5,6.8c.2-.1.3-.2.5-.3.1.6-.3,1-.8.9-.8-.2-1.1-.7-.7-1.4.2-.5.2-.9-.5-1-.1.4-.7.7-.1,1.2v.3a.37.37,0,0,1-.3.1A11.11,11.11,0,0,1,41,5.9a.19.19,0,0,1-.1-.3c0-.1.2-.2.3-.2.2-.2.4-.3.5-.5a6.12,6.12,0,0,0,.5-1.2c.1-.3.4-.6,0-.9V2.5a.37.37,0,0,1,.3-.1,22.45,22.45,0,0,1,2.7,1.3c.7.4.5,1.2-.4,1.5C44.7,5.8,44.6,6.2,44.5,6.8ZM43.1,4.5c.4,0,.7.1.9,0s.3-.4.2-.5a2.17,2.17,0,0,0-.7-.6A4.87,4.87,0,0,1,43.1,4.5Z"/><path d="M14.3,3.2a23.4,23.4,0,0,1,2.4-.9,1.31,1.31,0,0,1,1.1.2c.2.2.1.7.2,1.1-.1,0-.1,0-.2.1a4.33,4.33,0,0,1,.5.1c.6.2.9,1.2.3,1.5-.9.5-1.9.9-2.8,1.3a4,4,0,0,0-.3-.4c.5-.3.2-.6.1-.9s-.3-.7-.4-1-.2-.7-.7-.7Zm2.8,2.3c.1,0,.1,0,.2.1.2-.2.4-.4.4-.6a.71.71,0,0,0-.3-.6c-.2-.1-.4,0-.7,0A2.82,2.82,0,0,0,17.1,5.5Zm-1-2.3a3,3,0,0,0,.4.8c.4-.1.7-.2.5-.7S16.5,2.9,16.1,3.2Z"/><path d="M31.3,2.1a1,1,0,0,1,.6,1.1c-.1.6-.6.7-1.1.7H28.4c-.1,0-.3-.1-.3-.2a1.44,1.44,0,0,1,.2-.3c.1-.2.3-.3.3-.5a8.55,8.55,0,0,0,0-1.6c0-.2-.2-.4-.3-.6s-.2-.2-.1-.2.2-.2.3-.2h2.6c.3,0,.7.3.7.5A5,5,0,0,0,31.3,2.1Zm-1.5.2V3.5c.5,0,.8-.1.8-.6S30.2,2.2,29.8,2.3Zm0-.6a.51.51,0,0,0,.7-.5c0-.4-.3-.5-.7-.4Z"/><path d="M32.8.3c1.1.2,2.2.3,3.3.5a.45.45,0,0,1,.4.3,4.51,4.51,0,0,1-.3,1.1c-.2-.1-.4-.1-.4-.2-.4-.8-.5-.8-1.5-.8a6.53,6.53,0,0,1-.2,1.1,5.92,5.92,0,0,0,.6-.4c.1-.1.2-.1.3-.2,0,.1.1.2.1.3a4.25,4.25,0,0,1-.2,1.1c0,.1-.1.2-.2.3l-.3-.3c-.1-.2-.2-.3-.3-.5-.1,0-.1.1-.2.1-.1.3-.1.7-.2,1,1,.4,1.1.4,1.7-.5a.75.75,0,0,1,.5-.1.31.31,0,0,1,.1.2c-.2,1.4-.2,1.4-1.5,1.2l-2.1-.3c-.1,0-.3-.2-.4-.2l.3-.3h.1c.3-.2.6-2.4.3-2.6-.1-.1-.2-.3-.3-.4C32.7.4,32.7.3,32.8.3Z"/><path d="M41.3,2a7.37,7.37,0,0,1-.4,1.4c-.2-.2-.5-.3-.5-.4,0-.9-.7-.9-1.4-1.1l-.3.9.1.1c.2-.1.3-.2.5-.3s.2-.1.3-.1.1.2.1.3L39.4,4c0,.1-.2.2-.2.2A.22.22,0,0,1,39,4c-.1-.2-.1-.4-.2-.6h-.2c-.1.3-.2.7-.3,1,1,.5,1,.5,1.8-.3a.6.6,0,0,1,.4-.1c.1,0,.2.2.2.3s-.1.3-.1.5a6.37,6.37,0,0,0-.2.7c-1.2-.3-2.3-.7-3.5-1-.1,0-.3-.2-.2-.2s.2-.2.3-.3.4-.3.4-.5A8.33,8.33,0,0,0,37.8,2c0-.2-.1-.5-.1-.7s-.1-.3-.1-.4a1,1,0,0,1,.3-.1A17,17,0,0,0,41.3,2Z"/><path d="M36.1,41.2v-.8h9.3v.8Z"/><path d="M19.8,40.4h4.1c.3,0,.6,0,.6.5s-.3.4-.6.4H15.6c-.3,0-.6.1-.6-.4s.3-.4.6-.4C17,40.4,18.4,40.4,19.8,40.4Z"/></g></g></svg>